0
SECTION
2
HEADER
9
$ACADVER
1
AC1015
9
$ACADMAINTVER
70
6
9
$DWGCODEPAGE
3
ANSI_1252
9
$INSBASE
10
0.0
20
0.0
30
0.0
9
$ORTHOMODE
70
0
9
$REGENMODE
70
1
9
$FILLMODE
70
1
9
$QTEXTMODE
70
0
9
$MIRRTEXT
70
1
9
$LTSCALE
40
1.0
9
$ATTMODE
70
1
9
$TEXTSIZE
40
2.5
9
$TRACEWID
40
1.0
9
$TEXTSTYLE
7
Standard
9
$CLAYER
8
0
9
$CELTYPE
6
ByLayer
9
$CECOLOR
62
256
9
$CELTSCALE
40
1.0
9
$DISPSILH
70
0
9
$DIMSCALE
40
1.0
9
$DIMASZ
40
2.5
9
$DIMEXO
40
0.625
9
$DIMDLI
40
3.75
9
$DIMRND
40
0.0
9
$DIMDLE
40
0.0
9
$DIMEXE
40
1.25
9
$DIMTP
40
0.0
9
$DIMTM
40
0.0
9
$DIMTXT
40
2.5
9
$DIMCEN
40
2.5
9
$DIMTSZ
40
0.0
9
$DIMTOL
70
0
9
$DIMLIM
70
0
9
$DIMTIH
70
0
9
$DIMTOH
70
0
9
$DIMSE1
70
0
9
$DIMSE2
70
0
9
$DIMTAD
70
1
9
$DIMZIN
70
8
9
$DIMBLK
1

9
$DIMASO
70
1
9
$DIMSHO
70
1
9
$DIMPOST
1

9
$DIMAPOST
1

9
$DIMALT
70
0
9
$DIMALTD
70
3
9
$DIMALTF
40
0.03937007874
9
$DIMLFAC
40
1.0
9
$DIMTOFL
70
1
9
$DIMTVP
40
0.0
9
$DIMTIX
70
0
9
$DIMSOXD
70
0
9
$DIMSAH
70
0
9
$DIMBLK1
1

9
$DIMBLK2
1

9
$DIMSTYLE
2
ISO-25
9
$DIMCLRD
70
0
9
$DIMCLRE
70
0
9
$DIMCLRT
70
0
9
$DIMTFAC
40
1.0
9
$DIMGAP
40
0.625
9
$DIMJUST
70
0
9
$DIMSD1
70
0
9
$DIMSD2
70
0
9
$DIMTOLJ
70
0
9
$DIMTZIN
70
8
9
$DIMALTZ
70
0
9
$DIMALTTZ
70
0
9
$DIMUPT
70
0
9
$DIMDEC
70
2
9
$DIMTDEC
70
2
9
$DIMALTU
70
2
9
$DIMALTTD
70
3
9
$DIMTXSTY
7
Standard
9
$DIMAUNIT
70
0
9
$DIMADEC
70
0
9
$DIMALTRND
40
0.0
9
$DIMAZIN
70
0
9
$DIMDSEP
70
44
9
$DIMATFIT
70
3
9
$DIMFRAC
70
0
9
$DIMLDRBLK
1

9
$DIMLUNIT
70
2
9
$DIMLWD
70
-2
9
$DIMLWE
70
-2
9
$DIMTMOVE
70
0
9
$LUNITS
70
2
9
$LUPREC
70
4
9
$SKETCHINC
40
1.0
9
$FILLETRAD
40
10.0
9
$AUNITS
70
0
9
$AUPREC
70
2
9
$MENU
1
.
9
$ELEVATION
40
0.0
9
$PELEVATION
40
0.0
9
$THICKNESS
40
0.0
9
$LIMCHECK
70
0
9
$CHAMFERA
40
0.0
9
$CHAMFERB
40
0.0
9
$CHAMFERC
40
0.0
9
$CHAMFERD
40
0.0
9
$SKPOLY
70
0
9
$TDINDWG
40
0.0
9
$TDUSRTIMER
40
0.0
9
$USRTIMER
70
1
9
$ANGBASE
50
0.0
9
$ANGDIR
70
0
9
$PDMODE
70
0
9
$PDSIZE
40
0.0
9
$PLINEWID
40
0.0
9
$SPLFRAME
70
0
9
$SPLINETYPE
70
6
9
$SPLINESEGS
70
8
9
$SURFTAB1
70
6
9
$SURFTAB2
70
6
9
$SURFTYPE
70
6
9
$SURFU
70
6
9
$SURFV
70
6
9
$UCSBASE
2

9
$UCSNAME
2

9
$UCSORG
10
0.0
20
0.0
30
0.0
9
$UCSXDIR
10
1.0
20
0.0
30
0.0
9
$UCSYDIR
10
0.0
20
1.0
30
0.0
9
$UCSORTHOREF
2

9
$UCSORTHOVIEW
70
0
9
$UCSORGTOP
10
0.0
20
0.0
30
0.0
9
$UCSORGBOTTOM
10
0.0
20
0.0
30
0.0
9
$UCSORGLEFT
10
0.0
20
0.0
30
0.0
9
$UCSORGRIGHT
10
0.0
20
0.0
30
0.0
9
$UCSORGFRONT
10
0.0
20
0.0
30
0.0
9
$UCSORGBACK
10
0.0
20
0.0
30
0.0
9
$PUCSBASE
2

9
$PUCSNAME
2

9
$PUCSORG
10
0.0
20
0.0
30
0.0
9
$PUCSXDIR
10
1.0
20
0.0
30
0.0
9
$PUCSYDIR
10
0.0
20
1.0
30
0.0
9
$PUCSORTHOREF
2

9
$PUCSORTHOVIEW
70
0
9
$PUCSORGTOP
10
0.0
20
0.0
30
0.0
9
$PUCSORGBOTTOM
10
0.0
20
0.0
30
0.0
9
$PUCSORGLEFT
10
0.0
20
0.0
30
0.0
9
$PUCSORGRIGHT
10
0.0
20
0.0
30
0.0
9
$PUCSORGFRONT
10
0.0
20
0.0
30
0.0
9
$PUCSORGBACK
10
0.0
20
0.0
30
0.0
9
$USERI1
70
0
9
$USERI2
70
0
9
$USERI3
70
0
9
$USERI4
70
0
9
$USERI5
70
0
9
$USERR1
40
0.0
9
$USERR2
40
0.0
9
$USERR3
40
0.0
9
$USERR4
40
0.0
9
$USERR5
40
0.0
9
$WORLDVIEW
70
1
9
$SHADEDGE
70
3
9
$SHADEDIF
70
70
9
$TILEMODE
70
1
9
$MAXACTVP
70
64
9
$PINSBASE
10
0.0
20
0.0
30
0.0
9
$PLIMCHECK
70
0
9
$PEXTMIN
10
1e+20
20
1e+20
30
1e+20
9
$PEXTMAX
10
-1e+20
20
-1e+20
30
-1e+20
9
$PLIMMIN
10
0.0
20
0.0
9
$PLIMMAX
10
420.0
20
297.0
9
$UNITMODE
70
0
9
$VISRETAIN
70
1
9
$PLINEGEN
70
0
9
$PSLTSCALE
70
1
9
$TREEDEPTH
70
3020
9
$CMLSTYLE
2
Standard
9
$CMLJUST
70
0
9
$CMLSCALE
40
20.0
9
$PROXYGRAPHICS
70
1
9
$MEASUREMENT
70
0
9
$CELWEIGHT
370
-1
9
$ENDCAPS
280
0
9
$JOINSTYLE
280
0
9
$LWDISPLAY
290
0
9
$INSUNITS
70
1
9
$HYPERLINKBASE
1

9
$STYLESHEET
1

9
$XEDIT
290
1
9
$CEPSNTYPE
380
0
9
$PSTYLEMODE
290
1
9
$EXTNAMES
290
1
9
$PSVPSCALE
40
0.0
9
$OLESTARTUP
290
0
9
$EXTMIN
10
-25.5
20
-115.5
30
0.0
9
$EXTMAX
10
322.5
20
24.0
30
0.0
9
$LIMMIN
10
0.0
20
0.0
9
$LIMMAX
10
12.0
20
9.0
9
$TDCREATE
40
2461309.184879
9
$TDUCREATE
40
2461309.184879
9
$TDUPDATE
40
2461309.184879
9
$TDUUPDATE
40
2461309.184879
9
$FINGERPRINTGUID
2
{5176B9A0-C96F-4D6C-44EC-F539E3D4B063}
9
$VERSIONGUID
2
{6C899894-6631-4AB9-A6B8-698A30605921}
9
$HANDSEED
5
5D3
0
ENDSEC
0
SECTION
2
CLASSES
0
CLASS
1
ACDBDICTIONARYWDFLT
2
AcDbDictionaryWithDefault
3
ObjectDBX Classes
90
0
280
0
281
0
0
CLASS
1
SUN
2
AcDbSun
3
SCENEOE
90
1153
280
0
281
0
0
CLASS
1
VISUALSTYLE
2
AcDbVisualStyle
3
ObjectDBX Classes
90
4095
280
0
281
0
0
CLASS
1
MATERIAL
2
AcDbMaterial
3
ObjectDBX Classes
90
1153
280
0
281
0
0
CLASS
1
SCALE
2
AcDbScale
3
ObjectDBX Classes
90
1153
280
0
281
0
0
CLASS
1
TABLESTYLE
2
AcDbTableStyle
3
ObjectDBX Classes
90
4095
280
0
281
0
0
CLASS
1
MLEADERSTYLE
2
AcDbMLeaderStyle
3
ACDB_MLEADERSTYLE_CLASS
90
4095
280
0
281
0
0
CLASS
1
DICTIONARYVAR
2
AcDbDictionaryVar
3
ObjectDBX Classes
90
0
280
0
281
0
0
CLASS
1
CELLSTYLEMAP
2
AcDbCellStyleMap
3
ObjectDBX Classes
90
1152
280
0
281
0
0
CLASS
1
MENTALRAYRENDERSETTINGS
2
AcDbMentalRayRenderSettings
3
SCENEOE
90
1024
280
0
281
0
0
CLASS
1
ACDBDETAILVIEWSTYLE
2
AcDbDetailViewStyle
3
ObjectDBX Classes
90
1025
280
0
281
0
0
CLASS
1
ACDBSECTIONVIEWSTYLE
2
AcDbSectionViewStyle
3
ObjectDBX Classes
90
1025
280
0
281
0
0
CLASS
1
RASTERVARIABLES
2
AcDbRasterVariables
3
ISM
90
0
280
0
281
0
0
CLASS
1
ACDBPLACEHOLDER
2
AcDbPlaceHolder
3
ObjectDBX Classes
90
0
280
0
281
0
0
CLASS
1
LAYOUT
2
AcDbLayout
3
ObjectDBX Classes
90
0
280
0
281
0
0
ENDSEC
0
SECTION
2
TABLES
0
TABLE
2
VPORT
5
8
330
0
100
AcDbSymbolTable
70
1
0
VPORT
5
23
330
8
100
AcDbSymbolTableRecord
100
AcDbViewportTableRecord
2
*Active
70
0
10
0.0
20
0.0
11
1.0
21
1.0
12
0.0
22
0.0
13
0.0
23
0.0
14
0.5
24
0.5
15
0.5
25
0.5
16
0.0
26
0.0
36
1.0
17
0.0
27
0.0
37
0.0
40
1000.0
41
1.34
42
50.0
43
0.0
44
0.0
50
0.0
51
0.0
71
0
72
1000
73
1
74
3
75
0
76
0
77
0
78
0
281
0
65
0
146
0.0
0
ENDTAB
0
TABLE
2
LTYPE
5
2
330
0
100
AcDbSymbolTable
70
3
0
LTYPE
5
24
330
2
100
AcDbSymbolTableRecord
100
AcDbLinetypeTableRecord
2
ByBlock
70
0
3

72
65
73
0
40
0.0
0
LTYPE
5
25
330
2
100
AcDbSymbolTableRecord
100
AcDbLinetypeTableRecord
2
ByLayer
70
0
3

72
65
73
0
40
0.0
0
LTYPE
5
26
330
2
100
AcDbSymbolTableRecord
100
AcDbLinetypeTableRecord
2
Continuous
70
0
3

72
65
73
0
40
0.0
0
ENDTAB
0
TABLE
2
LAYER
5
1
330
0
100
AcDbSymbolTable
70
19
0
LAYER
5
118
330
1
100
AcDbSymbolTableRecord
100
AcDbLayerTableRecord
2
0
70
0
62
7
6
Continuous
370
-3
390
13
0
LAYER
5
119
330
1
100
AcDbSymbolTableRecord
100
AcDbLayerTableRecord
2
Defpoints
70
0
62
7
6
Continuous
290
0
370
-3
390
13
0
LAYER
5
11A
330
1
100
AcDbSymbolTableRecord
100
AcDbLayerTableRecord
2
A-FURN
70
0
62
7
6
Continuous
370
-3
390
13
0
LAYER
5
11B
330
1
100
AcDbSymbolTableRecord
100
AcDbLayerTableRecord
2
CAPTAG
70
0
62
7
6
Continuous
370
-3
390
13
0
LAYER
5
11C
330
1
100
AcDbSymbolTableRecord
100
AcDbLayerTableRecord
2
A-FURN-P-PNLS-42
70
0
62
3
6
Continuous
370
-3
390
13
0
LAYER
5
11D
330
1
100
AcDbSymbolTableRecord
100
AcDbLayerTableRecord
2
A-FURN-P-PNLS-42-T
70
0
62
3
6
Continuous
370
-3
390
13
0
LAYER
5
11E
330
1
100
AcDbSymbolTableRecord
100
AcDbLayerTableRecord
2
AFUPA-3D-004
70
0
62
7
6
Continuous
370
-3
390
13
0
LAYER
5
11F
330
1
100
AcDbSymbolTableRecord
100
AcDbLayerTableRecord
2
A-FURN-POINT-PART
70
0
62
7
6
Continuous
370
-3
390
13
0
LAYER
5
120
330
1
100
AcDbSymbolTableRecord
100
AcDbLayerTableRecord
2
A-FURN-POINT-PART-T
70
0
62
7
6
Continuous
370
-3
390
13
0
LAYER
5
121
330
1
100
AcDbSymbolTableRecord
100
AcDbLayerTableRecord
2
AFUSK-3D-017
70
0
62
7
6
Continuous
370
-3
390
13
0
LAYER
5
122
330
1
100
AcDbSymbolTableRecord
100
AcDbLayerTableRecord
2
AFUPA-3D-051
70
0
62
7
6
Continuous
370
-3
390
13
0
LAYER
5
123
330
1
100
AcDbSymbolTableRecord
100
AcDbLayerTableRecord
2
AFUPA-3D-020
70
0
62
7
6
Continuous
370
-3
390
13
0
LAYER
5
124
330
1
100
AcDbSymbolTableRecord
100
AcDbLayerTableRecord
2
A-FURN-PNLS-BUILDUP-T
70
0
62
7
6
Continuous
370
-3
390
13
0
LAYER
5
125
330
1
100
AcDbSymbolTableRecord
100
AcDbLayerTableRecord
2
A-FURN-P-PNLS-54
70
0
62
3
6
Continuous
370
-3
390
13
0
LAYER
5
126
330
1
100
AcDbSymbolTableRecord
100
AcDbLayerTableRecord
2
A-FURN-P-PNLS-54-T
70
0
62
3
6
Continuous
370
-3
390
13
0
LAYER
5
127
330
1
100
AcDbSymbolTableRecord
100
AcDbLayerTableRecord
2
AFUSK-3D-006
70
0
62
7
6
Continuous
370
-3
390
13
0
LAYER
5
128
330
1
100
AcDbSymbolTableRecord
100
AcDbLayerTableRecord
2
AFUSK-3D-016
70
0
62
7
6
Continuous
370
-3
390
13
0
LAYER
5
129
330
1
100
AcDbSymbolTableRecord
100
AcDbLayerTableRecord
2
A-FURN-P-PNLS-JNCT
70
0
62
3
6
Continuous
370
-3
390
13
0
LAYER
5
12A
330
1
100
AcDbSymbolTableRecord
100
AcDbLayerTableRecord
2
A-FURN-P-PNLS-JNCT-T
70
0
62
3
6
Continuous
370
-3
390
13
0
ENDTAB
0
TABLE
2
STYLE
5
5
330
0
100
AcDbSymbolTable
70
2
0
STYLE
5
29
330
5
100
AcDbSymbolTableRecord
100
AcDbTextStyleTableRecord
2
Standard
70
0
40
0.0
41
1.0
50
0.0
71
0
42
2.5
3
txt
4

0
STYLE
5
30
330
5
100
AcDbSymbolTableRecord
100
AcDbTextStyleTableRecord
2
MONOTXT
70
0
40
0.0
41
1.0
50
0.0
71
0
42
2.5
3
MONOTXT.SHX
4

0
ENDTAB
0
TABLE
2
VIEW
5
7
330
0
100
AcDbSymbolTable
70
0
0
ENDTAB
0
TABLE
2
UCS
5
6
330
0
100
AcDbSymbolTable
70
0
0
ENDTAB
0
TABLE
2
APPID
5
3
330
0
100
AcDbSymbolTable
70
2
0
APPID
5
2A
330
3
100
AcDbSymbolTableRecord
100
AcDbRegAppTableRecord
2
ACAD
70
0
0
APPID
5
42
330
3
100
AcDbSymbolTableRecord
100
AcDbRegAppTableRecord
2
HATCHBACKGROUNDCOLOR
70
0
0
ENDTAB
0
TABLE
2
DIMSTYLE
5
4
330
0
100
AcDbSymbolTable
70
1
100
AcDbDimStyleTable
0
DIMSTYLE
105
2B
330
4
100
AcDbSymbolTableRecord
100
AcDbDimStyleTableRecord
2
Standard
70
0
3

4

40
1.0
41
2.5
42
0.625
43
3.75
44
1.25
45
0.0
46
0.0
47
0.0
48
0.0
140
2.5
141
2.5
142
0.0
143
0.03937007874
144
1.0
145
0.0
146
1.0
147
0.625
148
0.0
71
0
72
0
73
0
74
0
75
0
76
0
77
1
78
8
79
3
170
0
171
3
172
1
173
0
174
0
175
0
176
0
177
0
178
0
179
2
271
2
272
2
273
2
274
3
275
0
276
0
277
2
278
44
279
0
280
0
281
0
282
0
283
0
284
8
285
0
286
0
288
0
289
3
371
-2
372
-2
0
ENDTAB
0
TABLE
2
BLOCK_RECORD
5
9
330
0
100
AcDbSymbolTable
70
26
0
BLOCK_RECORD
5
17
330
9
100
AcDbSymbolTableRecord
100
AcDbBlockTableRecord
2
*Model_Space
340
1A
0
BLOCK_RECORD
5
1B
330
9
100
AcDbSymbolTableRecord
100
AcDbBlockTableRecord
2
*Paper_Space
340
1E
0
BLOCK_RECORD
5
100
330
9
100
AcDbSymbolTableRecord
100
AcDbBlockTableRecord
2
P_TS736THF
340
0
0
BLOCK_RECORD
5
101
330
9
100
AcDbSymbolTableRecord
100
AcDbBlockTableRecord
2
3_TS736THF
340
0
0
BLOCK_RECORD
5
103
330
9
100
AcDbSymbolTableRecord
100
AcDbBlockTableRecord
2
P_TS73636TK
340
0
0
BLOCK_RECORD
5
104
330
9
100
AcDbSymbolTableRecord
100
AcDbBlockTableRecord
2
3_TS73636TK
340
0
0
BLOCK_RECORD
5
105
330
9
100
AcDbSymbolTableRecord
100
AcDbBlockTableRecord
2
P_TS71236TFGR
340
0
0
BLOCK_RECORD
5
106
330
9
100
AcDbSymbolTableRecord
100
AcDbBlockTableRecord
2
3_TS71236TFGR
340
0
0
BLOCK_RECORD
5
107
330
9
100
AcDbSymbolTableRecord
100
AcDbBlockTableRecord
2
P_TS7TFGRC
340
0
0
BLOCK_RECORD
5
108
330
9
100
AcDbSymbolTableRecord
100
AcDbBlockTableRecord
2
3_TS7TFGRC
340
0
0
BLOCK_RECORD
5
102
330
9
100
AcDbSymbolTableRecord
100
AcDbBlockTableRecord
2
P_A36.000000
340
0
0
BLOCK_RECORD
5
109
330
9
100
AcDbSymbolTableRecord
100
AcDbBlockTableRecord
2
3_A36.000000
340
0
0
BLOCK_RECORD
5
10A
330
9
100
AcDbSymbolTableRecord
100
AcDbBlockTableRecord
2
P_TS736THF_2
340
0
0
BLOCK_RECORD
5
10B
330
9
100
AcDbSymbolTableRecord
100
AcDbBlockTableRecord
2
3_TS736THF_2
340
0
0
BLOCK_RECORD
5
10D
330
9
100
AcDbSymbolTableRecord
100
AcDbBlockTableRecord
2
P_TS73636TK_2
340
0
0
BLOCK_RECORD
5
10E
330
9
100
AcDbSymbolTableRecord
100
AcDbBlockTableRecord
2
3_TS73636TK_2
340
0
0
BLOCK_RECORD
5
10F
330
9
100
AcDbSymbolTableRecord
100
AcDbBlockTableRecord
2
P_TS71236SPW
340
0
0
BLOCK_RECORD
5
110
330
9
100
AcDbSymbolTableRecord
100
AcDbBlockTableRecord
2
3_TS71236SPW
340
0
0
BLOCK_RECORD
5
10C
330
9
100
AcDbSymbolTableRecord
100
AcDbBlockTableRecord
2
P_B36.000000
340
0
0
BLOCK_RECORD
5
111
330
9
100
AcDbSymbolTableRecord
100
AcDbBlockTableRecord
2
3_B36.000000
340
0
0
BLOCK_RECORD
5
112
330
9
100
AcDbSymbolTableRecord
100
AcDbBlockTableRecord
2
P_TS745TCLJ
340
0
0
BLOCK_RECORD
5
113
330
9
100
AcDbSymbolTableRecord
100
AcDbBlockTableRecord
2
3_TS745TCLJ
340
0
0
BLOCK_RECORD
5
114
330
9
100
AcDbSymbolTableRecord
100
AcDbBlockTableRecord
2
P_TS742TEPJ
340
0
0
BLOCK_RECORD
5
115
330
9
100
AcDbSymbolTableRecord
100
AcDbBlockTableRecord
2
3_TS742TEPJ
340
0
0
BLOCK_RECORD
5
116
330
9
100
AcDbSymbolTableRecord
100
AcDbBlockTableRecord
2
P_TS754TEPJ
340
0
0
BLOCK_RECORD
5
117
330
9
100
AcDbSymbolTableRecord
100
AcDbBlockTableRecord
2
3_TS754TEPJ
340
0
0
ENDTAB
0
ENDSEC
0
SECTION
2
BLOCKS
0
BLOCK
5
18
330
17
100
AcDbEntity
8
0
100
AcDbBlockBegin
2
*Model_Space
70
0
10
0.0
20
0.0
30
0.0
3
*Model_Space
1

0
ENDBLK
5
19
330
17
100
AcDbEntity
8
0
100
AcDbBlockEnd
0
BLOCK
5
1C
330
1B
100
AcDbEntity
8
0
100
AcDbBlockBegin
2
*Paper_Space
70
0
10
0.0
20
0.0
30
0.0
3
*Paper_Space
1

0
ENDBLK
5
1D
330
1B
100
AcDbEntity
8
0
100
AcDbBlockEnd
0
BLOCK
5
12B
330
100
100
AcDbEntity
8
0
100
AcDbBlockBegin
2
P_TS736THF
70
2
10
0.0
20
0.0
30
0.0
3
P_TS736THF
1

0
POLYLINE
5
12C
330
100
100
AcDbEntity
8
A-FURN-P-PNLS-42
100
AcDb2dPolyline
66
1
10
0.0
20
0.0
30
0.0
70
1
0
VERTEX
5
12D
330
100
100
AcDbEntity
8
A-FURN-P-PNLS-42
100
AcDbVertex
100
AcDb2dVertex
10
0.0
20
0.0
30
0.0
70
0
0
VERTEX
5
12E
330
100
100
AcDbEntity
8
A-FURN-P-PNLS-42
100
AcDbVertex
100
AcDb2dVertex
10
36.0
20
0.0
30
0.0
70
0
0
VERTEX
5
12F
330
100
100
AcDbEntity
8
A-FURN-P-PNLS-42
100
AcDbVertex
100
AcDb2dVertex
10
36.0
20
3.0
30
0.0
70
0
0
VERTEX
5
130
330
100
100
AcDbEntity
8
A-FURN-P-PNLS-42
100
AcDbVertex
100
AcDb2dVertex
10
0.0
20
3.0
30
0.0
70
0
0
SEQEND
5
131
330
12C
100
AcDbEntity
8
A-FURN-P-PNLS-42
0
POINT
5
132
330
100
100
AcDbEntity
8
A-FURN-P-PNLS-42
100
AcDbPoint
10
0.0
20
3.0
30
0.0
0
POINT
5
133
330
100
100
AcDbEntity
8
A-FURN-P-PNLS-42
100
AcDbPoint
10
36.0
20
3.0
30
0.0
0
POINT
5
134
330
100
100
AcDbEntity
8
A-FURN-P-PNLS-42
100
AcDbPoint
10
36.0
20
0.0
30
0.0
0
POINT
5
135
330
100
100
AcDbEntity
8
A-FURN-P-PNLS-42
100
AcDbPoint
10
0.0
20
0.0
30
0.0
0
ATTDEF
5
136
330
100
100
AcDbEntity
8
A-FURN-P-PNLS-42-T
100
AcDbText
10
0.0
20
0.0
30
0.0
40
0.001
1

100
AcDbAttributeDefinition
3

2
CAPPN
70
1
0
ATTDEF
5
137
330
100
100
AcDbEntity
8
A-FURN-P-PNLS-42-T
100
AcDbText
10
0.0
20
0.0
30
0.0
40
0.001
1

100
AcDbAttributeDefinition
3

2
CAPPD
70
1
0
ATTDEF
5
138
330
100
100
AcDbEntity
8
A-FURN-P-PNLS-42-T
100
AcDbText
10
0.0
20
0.0
30
0.0
40
0.001
1

100
AcDbAttributeDefinition
3

2
CAPMG
70
1
0
ATTDEF
5
139
330
100
100
AcDbEntity
8
A-FURN-P-PNLS-42-T
100
AcDbText
10
0.0
20
0.0
30
0.0
40
0.001
1

100
AcDbAttributeDefinition
3

2
CAPMC
70
1
0
ATTDEF
5
13A
330
100
100
AcDbEntity
8
A-FURN-P-PNLS-42-T
100
AcDbText
10
0.0
20
0.0
30
0.0
40
0.001
1

100
AcDbAttributeDefinition
3

2
CAPGC
70
1
0
ATTDEF
5
13B
330
100
100
AcDbEntity
8
A-FURN-P-PNLS-42-T
100
AcDbText
10
0.0
20
0.0
30
0.0
40
0.001
1

100
AcDbAttributeDefinition
3

2
CAPALIAS1
70
1
0
ATTDEF
5
13C
330
100
100
AcDbEntity
8
A-FURN-P-PNLS-42-T
100
AcDbText
10
0.0
20
0.0
30
0.0
40
0.001
1

100
AcDbAttributeDefinition
3

2
CAPALIAS2
70
1
0
ATTDEF
5
13D
330
100
100
AcDbEntity
8
A-FURN-P-PNLS-42-T
100
AcDbText
10
0.0
20
0.0
30
0.0
40
0.001
1

100
AcDbAttributeDefinition
3

2
CAPALIAS3
70
1
0
ATTDEF
5
13E
330
100
100
AcDbEntity
8
A-FURN-P-PNLS-42-T
100
AcDbText
10
0.0
20
0.0
30
0.0
40
0.001
1

100
AcDbAttributeDefinition
3

2
CAPBLDG
70
1
0
ATTDEF
5
13F
330
100
100
AcDbEntity
8
A-FURN-P-PNLS-42-T
100
AcDbText
10
0.0
20
0.0
30
0.0
40
0.001
1

100
AcDbAttributeDefinition
3

2
CAPFLOOR
70
1
0
ATTDEF
5
140
330
100
100
AcDbEntity
8
A-FURN-P-PNLS-42-T
100
AcDbText
10
0.0
20
0.0
30
0.0
40
0.001
1

100
AcDbAttributeDefinition
3

2
CAPDEPT
70
1
0
ATTDEF
5
141
330
100
100
AcDbEntity
8
A-FURN-P-PNLS-42-T
100
AcDbText
10
0.0
20
0.0
30
0.0
40
0.001
1

100
AcDbAttributeDefinition
3

2
CAPPERSON
70
1
0
ATTDEF
5
142
330
100
100
AcDbEntity
8
A-FURN-P-PNLS-42-T
100
AcDbText
10
0.0
20
0.0
30
0.0
40
0.001
1

100
AcDbAttributeDefinition
3

2
CAPPL
70
1
0
ATTDEF
5
143
330
100
100
AcDbEntity
8
A-FURN-P-PNLS-42-T
100
AcDbText
10
18.0
20
-5.5
30
0.0
40
3.0
1

7
MONOTXT
72
1
11
18.0
21
-5.5
31
0.0
100
AcDbAttributeDefinition
3

2
CAPTG
70
0
0
ATTDEF
5
144
330
100
100
AcDbEntity
8
A-FURN-P-PNLS-42-T
100
AcDbText
10
0.0
20
0.0
30
0.0
40
0.001
1

100
AcDbAttributeDefinition
3

2
CAPQT
70
1
0
ATTDEF
5
145
330
100
100
AcDbEntity
8
A-FURN-P-PNLS-42-T
100
AcDbText
10
0.0
20
0.0
30
0.0
40
0.001
1

100
AcDbAttributeDefinition
3

2
CAPDH
70
1
0
ENDBLK
5
146
330
100
100
AcDbEntity
8
0
100
AcDbBlockEnd
0
BLOCK
5
147
330
101
100
AcDbEntity
8
0
100
AcDbBlockBegin
2
3_TS736THF
70
2
10
0.0
20
0.0
30
0.0
3
3_TS736THF
1

0
POLYLINE
5
148
330
101
100
AcDbEntity
8
AFUPA-3D-004
100
AcDbPolyFaceMesh
66
1
10
0.0
20
0.0
30
0.0
70
64
71
8
72
6
0
VERTEX
5
149
330
148
100
AcDbEntity
8
AFUPA-3D-004
100
AcDbVertex
100
AcDbPolyFaceMeshVertex
10
0.0
20
0.0
30
0.0
70
192
0
VERTEX
5
14A
330
148
100
AcDbEntity
8
AFUPA-3D-004
100
AcDbVertex
100
AcDbPolyFaceMeshVertex
10
36.0
20
0.0
30
0.0
70
192
0
VERTEX
5
14B
330
148
100
AcDbEntity
8
AFUPA-3D-004
100
AcDbVertex
100
AcDbPolyFaceMeshVertex
10
36.0
20
3.0
30
0.0
70
192
0
VERTEX
5
14C
330
148
100
AcDbEntity
8
AFUPA-3D-004
100
AcDbVertex
100
AcDbPolyFaceMeshVertex
10
0.0
20
3.0
30
0.0
70
192
0
VERTEX
5
14D
330
148
100
AcDbEntity
8
AFUPA-3D-004
100
AcDbVertex
100
AcDbPolyFaceMeshVertex
10
0.0
20
0.0
30
3.75
70
192
0
VERTEX
5
14E
330
148
100
AcDbEntity
8
AFUPA-3D-004
100
AcDbVertex
100
AcDbPolyFaceMeshVertex
10
36.0
20
0.0
30
3.75
70
192
0
VERTEX
5
14F
330
148
100
AcDbEntity
8
AFUPA-3D-004
100
AcDbVertex
100
AcDbPolyFaceMeshVertex
10
36.0
20
3.0
30
3.75
70
192
0
VERTEX
5
150
330
148
100
AcDbEntity
8
AFUPA-3D-004
100
AcDbVertex
100
AcDbPolyFaceMeshVertex
10
0.0
20
3.0
30
3.75
70
192
0
VERTEX
5
151
330
148
100
AcDbEntity
8
AFUPA-3D-004
100
AcDbFaceRecord
10
0.0
20
0.0
30
0.0
70
128
71
1
72
4
73
3
74
2
0
VERTEX
5
152
330
148
100
AcDbEntity
8
AFUPA-3D-004
100
AcDbFaceRecord
10
0.0
20
0.0
30
0.0
70
128
71
5
72
6
73
7
74
8
0
VERTEX
5
153
330
148
100
AcDbEntity
8
AFUPA-3D-004
100
AcDbFaceRecord
10
0.0
20
0.0
30
0.0
70
128
71
1
72
2
73
6
74
5
0
VERTEX
5
154
330
148
100
AcDbEntity
8
AFUPA-3D-004
100
AcDbFaceRecord
10
0.0
20
0.0
30
0.0
70
128
71
2
72
3
73
7
74
6
0
VERTEX
5
155
330
148
100
AcDbEntity
8
AFUPA-3D-004
100
AcDbFaceRecord
10
0.0
20
0.0
30
0.0
70
128
71
3
72
4
73
8
74
7
0
VERTEX
5
156
330
148
100
AcDbEntity
8
AFUPA-3D-004
100
AcDbFaceRecord
10
0.0
20
0.0
30
0.0
70
128
71
4
72
1
73
5
74
8
0
SEQEND
5
157
330
148
100
AcDbEntity
8
AFUPA-3D-004
0
POLYLINE
5
158
330
101
100
AcDbEntity
8
AFUPA-3D-004
100
AcDbPolyFaceMesh
66
1
10
0.0
20
0.0
30
0.0
70
64
71
8
72
6
0
VERTEX
5
159
330
158
100
AcDbEntity
8
AFUPA-3D-004
100
AcDbVertex
100
AcDbPolyFaceMeshVertex
10
0.0
20
0.0
30
41.25
70
192
0
VERTEX
5
15A
330
158
100
AcDbEntity
8
AFUPA-3D-004
100
AcDbVertex
100
AcDbPolyFaceMeshVertex
10
36.0
20
0.0
30
41.25
70
192
0
VERTEX
5
15B
330
158
100
AcDbEntity
8
AFUPA-3D-004
100
AcDbVertex
100
AcDbPolyFaceMeshVertex
10
36.0
20
3.0
30
41.25
70
192
0
VERTEX
5
15C
330
158
100
AcDbEntity
8
AFUPA-3D-004
100
AcDbVertex
100
AcDbPolyFaceMeshVertex
10
0.0
20
3.0
30
41.25
70
192
0
VERTEX
5
15D
330
158
100
AcDbEntity
8
AFUPA-3D-004
100
AcDbVertex
100
AcDbPolyFaceMeshVertex
10
0.0
20
0.0
30
41.875
70
192
0
VERTEX
5
15E
330
158
100
AcDbEntity
8
AFUPA-3D-004
100
AcDbVertex
100
AcDbPolyFaceMeshVertex
10
36.0
20
0.0
30
41.875
70
192
0
VERTEX
5
15F
330
158
100
AcDbEntity
8
AFUPA-3D-004
100
AcDbVertex
100
AcDbPolyFaceMeshVertex
10
36.0
20
3.0
30
41.875
70
192
0
VERTEX
5
160
330
158
100
AcDbEntity
8
AFUPA-3D-004
100
AcDbVertex
100
AcDbPolyFaceMeshVertex
10
0.0
20
3.0
30
41.875
70
192
0
VERTEX
5
161
330
158
100
AcDbEntity
8
AFUPA-3D-004
100
AcDbFaceRecord
10
0.0
20
0.0
30
0.0
70
128
71
1
72
4
73
3
74
2
0
VERTEX
5
162
330
158
100
AcDbEntity
8
AFUPA-3D-004
100
AcDbFaceRecord
10
0.0
20
0.0
30
0.0
70
128
71
5
72
6
73
7
74
8
0
VERTEX
5
163
330
158
100
AcDbEntity
8
AFUPA-3D-004
100
AcDbFaceRecord
10
0.0
20
0.0
30
0.0
70
128
71
1
72
2
73
6
74
5
0
VERTEX
5
164
330
158
100
AcDbEntity
8
AFUPA-3D-004
100
AcDbFaceRecord
10
0.0
20
0.0
30
0.0
70
128
71
2
72
3
73
7
74
6
0
VERTEX
5
165
330
158
100
AcDbEntity
8
AFUPA-3D-004
100
AcDbFaceRecord
10
0.0
20
0.0
30
0.0
70
128
71
3
72
4
73
8
74
7
0
VERTEX
5
166
330
158
100
AcDbEntity
8
AFUPA-3D-004
100
AcDbFaceRecord
10
0.0
20
0.0
30
0.0
70
128
71
4
72
1
73
5
74
8
0
SEQEND
5
167
330
158
100
AcDbEntity
8
AFUPA-3D-004
0
ATTDEF
5
168
330
101
100
AcDbEntity
8
A-FURN-P-PNLS-42-T
100
AcDbText
10
0.0
20
0.0
30
0.0
40
0.001
1

100
AcDbAttributeDefinition
3

2
CAPPN
70
1
0
ATTDEF
5
169
330
101
100
AcDbEntity
8
A-FURN-P-PNLS-42-T
100
AcDbText
10
0.0
20
0.0
30
0.0
40
0.001
1

100
AcDbAttributeDefinition
3

2
CAPPD
70
1
0
ATTDEF
5
16A
330
101
100
AcDbEntity
8
A-FURN-P-PNLS-42-T
100
AcDbText
10
0.0
20
0.0
30
0.0
40
0.001
1

100
AcDbAttributeDefinition
3

2
CAPMG
70
1
0
ATTDEF
5
16B
330
101
100
AcDbEntity
8
A-FURN-P-PNLS-42-T
100
AcDbText
10
0.0
20
0.0
30
0.0
40
0.001
1

100
AcDbAttributeDefinition
3

2
CAPMC
70
1
0
ATTDEF
5
16C
330
101
100
AcDbEntity
8
A-FURN-P-PNLS-42-T
100
AcDbText
10
0.0
20
0.0
30
0.0
40
0.001
1

100
AcDbAttributeDefinition
3

2
CAPGC
70
1
0
ATTDEF
5
16D
330
101
100
AcDbEntity
8
A-FURN-P-PNLS-42-T
100
AcDbText
10
0.0
20
0.0
30
0.0
40
0.001
1

100
AcDbAttributeDefinition
3

2
CAPALIAS1
70
1
0
ATTDEF
5
16E
330
101
100
AcDbEntity
8
A-FURN-P-PNLS-42-T
100
AcDbText
10
0.0
20
0.0
30
0.0
40
0.001
1

100
AcDbAttributeDefinition
3

2
CAPALIAS2
70
1
0
ATTDEF
5
16F
330
101
100
AcDbEntity
8
A-FURN-P-PNLS-42-T
100
AcDbText
10
0.0
20
0.0
30
0.0
40
0.001
1

100
AcDbAttributeDefinition
3

2
CAPALIAS3
70
1
0
ATTDEF
5
170
330
101
100
AcDbEntity
8
A-FURN-P-PNLS-42-T
100
AcDbText
10
0.0
20
0.0
30
0.0
40
0.001
1

100
AcDbAttributeDefinition
3

2
CAPBLDG
70
1
0
ATTDEF
5
171
330
101
100
AcDbEntity
8
A-FURN-P-PNLS-42-T
100
AcDbText
10
0.0
20
0.0
30
0.0
40
0.001
1

100
AcDbAttributeDefinition
3

2
CAPFLOOR
70
1
0
ATTDEF
5
172
330
101
100
AcDbEntity
8
A-FURN-P-PNLS-42-T
100
AcDbText
10
0.0
20
0.0
30
0.0
40
0.001
1

100
AcDbAttributeDefinition
3

2
CAPDEPT
70
1
0
ATTDEF
5
173
330
101
100
AcDbEntity
8
A-FURN-P-PNLS-42-T
100
AcDbText
10
0.0
20
0.0
30
0.0
40
0.001
1

100
AcDbAttributeDefinition
3

2
CAPPERSON
70
1
0
ATTDEF
5
174
330
101
100
AcDbEntity
8
A-FURN-P-PNLS-42-T
100
AcDbText
10
0.0
20
0.0
30
0.0
40
0.001
1

100
AcDbAttributeDefinition
3

2
CAPPL
70
1
0
ATTDEF
5
175
330
101
100
AcDbEntity
8
A-FURN-P-PNLS-42-T
100
AcDbText
10
18.0
20
-5.5
30
0.0
40
3.0
1

7
MONOTXT
72
1
11
18.0
21
-5.5
31
0.0
100
AcDbAttributeDefinition
3

2
CAPTG
70
0
0
ATTDEF
5
176
330
101
100
AcDbEntity
8
A-FURN-P-PNLS-42-T
100
AcDbText
10
0.0
20
0.0
30
0.0
40
0.001
1

100
AcDbAttributeDefinition
3

2
CAPQT
70
1
0
ATTDEF
5
177
330
101
100
AcDbEntity
8
A-FURN-P-PNLS-42-T
100
AcDbText
10
0.0
20
0.0
30
0.0
40
0.001
1

100
AcDbAttributeDefinition
3

2
CAPDH
70
1
0
ENDBLK
5
178
330
101
100
AcDbEntity
8
0
100
AcDbBlockEnd
0
BLOCK
5
179
330
103
100
AcDbEntity
8
0
100
AcDbBlockBegin
2
P_TS73636TK
70
2
10
0.0
20
0.0
30
0.0
3
P_TS73636TK
1

0
POINT
5
17A
330
103
100
AcDbEntity
8
A-FURN-POINT-PART
100
AcDbPoint
10
0.0
20
0.0
30
0.0
0
ATTDEF
5
17B
330
103
100
AcDbEntity
8
A-FURN-POINT-PART-T
100
AcDbText
10
0.0
20
0.0
30
0.0
40
0.001
1

100
AcDbAttributeDefinition
3

2
CAPPN
70
1
0
ATTDEF
5
17C
330
103
100
AcDbEntity
8
A-FURN-POINT-PART-T
100
AcDbText
10
0.0
20
0.0
30
0.0
40
0.001
1

100
AcDbAttributeDefinition
3

2
CAPPD
70
1
0
ATTDEF
5
17D
330
103
100
AcDbEntity
8
A-FURN-POINT-PART-T
100
AcDbText
10
0.0
20
0.0
30
0.0
40
0.001
1

100
AcDbAttributeDefinition
3

2
CAPMG
70
1
0
ATTDEF
5
17E
330
103
100
AcDbEntity
8
A-FURN-POINT-PART-T
100
AcDbText
10
0.0
20
0.0
30
0.0
40
0.001
1

100
AcDbAttributeDefinition
3

2
CAPMC
70
1
0
ATTDEF
5
17F
330
103
100
AcDbEntity
8
A-FURN-POINT-PART-T
100
AcDbText
10
0.0
20
0.0
30
0.0
40
0.001
1

100
AcDbAttributeDefinition
3

2
CAPGC
70
1
0
ATTDEF
5
180
330
103
100
AcDbEntity
8
A-FURN-POINT-PART-T
100
AcDbText
10
0.0
20
0.0
30
0.0
40
0.001
1

100
AcDbAttributeDefinition
3

2
CAPALIAS1
70
1
0
ATTDEF
5
181
330
103
100
AcDbEntity
8
A-FURN-POINT-PART-T
100
AcDbText
10
0.0
20
0.0
30
0.0
40
0.001
1

100
AcDbAttributeDefinition
3

2
CAPALIAS2
70
1
0
ATTDEF
5
182
330
103
100
AcDbEntity
8
A-FURN-POINT-PART-T
100
AcDbText
10
0.0
20
0.0
30
0.0
40
0.001
1

100
AcDbAttributeDefinition
3

2
CAPALIAS3
70
1
0
ATTDEF
5
183
330
103
100
AcDbEntity
8
A-FURN-POINT-PART-T
100
AcDbText
10
0.0
20
0.0
30
0.0
40
0.001
1

100
AcDbAttributeDefinition
3

2
CAPBLDG
70
1
0
ATTDEF
5
184
330
103
100
AcDbEntity
8
A-FURN-POINT-PART-T
100
AcDbText
10
0.0
20
0.0
30
0.0
40
0.001
1

100
AcDbAttributeDefinition
3

2
CAPFLOOR
70
1
0
ATTDEF
5
185
330
103
100
AcDbEntity
8
A-FURN-POINT-PART-T
100
AcDbText
10
0.0
20
0.0
30
0.0
40
0.001
1

100
AcDbAttributeDefinition
3

2
CAPDEPT
70
1
0
ATTDEF
5
186
330
103
100
AcDbEntity
8
A-FURN-POINT-PART-T
100
AcDbText
10
0.0
20
0.0
30
0.0
40
0.001
1

100
AcDbAttributeDefinition
3

2
CAPPERSON
70
1
0
ATTDEF
5
187
330
103
100
AcDbEntity
8
A-FURN-POINT-PART-T
100
AcDbText
10
0.0
20
0.0
30
0.0
40
0.001
1

100
AcDbAttributeDefinition
3

2
CAPPL
70
1
0
ATTDEF
5
188
330
103
100
AcDbEntity
8
A-FURN-POINT-PART-T
100
AcDbText
10
0.0
20
0.0
30
0.0
40
0.001
1

100
AcDbAttributeDefinition
3

2
CAPTG
70
1
0
ATTDEF
5
189
330
103
100
AcDbEntity
8
A-FURN-POINT-PART-T
100
AcDbText
10
0.0
20
0.0
30
0.0
40
0.001
1

100
AcDbAttributeDefinition
3

2
CAPQT
70
1
0
ATTDEF
5
18A
330
103
100
AcDbEntity
8
A-FURN-POINT-PART-T
100
AcDbText
10
0.0
20
0.0
30
0.0
40
0.001
1

100
AcDbAttributeDefinition
3

2
CAPDH
70
1
0
ENDBLK
5
18B
330
103
100
AcDbEntity
8
0
100
AcDbBlockEnd
0
BLOCK
5
18C
330
104
100
AcDbEntity
8
0
100
AcDbBlockBegin
2
3_TS73636TK
70
2
10
0.0
20
0.0
30
0.0
3
3_TS73636TK
1

0
POLYLINE
5
18D
330
104
100
AcDbEntity
8
AFUSK-3D-017
100
AcDbPolyFaceMesh
66
1
10
0.0
20
0.0
30
0.0
70
64
71
4
72
1
0
VERTEX
5
18E
330
18D
100
AcDbEntity
8
AFUSK-3D-017
100
AcDbVertex
100
AcDbPolyFaceMeshVertex
10
0.0
20
0.0
30
0.0
70
192
0
VERTEX
5
18F
330
18D
100
AcDbEntity
8
AFUSK-3D-017
100
AcDbVertex
100
AcDbPolyFaceMeshVertex
10
36.0
20
0.0
30
0.0
70
192
0
VERTEX
5
190
330
18D
100
AcDbEntity
8
AFUSK-3D-017
100
AcDbVertex
100
AcDbPolyFaceMeshVertex
10
36.0
20
0.0
30
37.5
70
192
0
VERTEX
5
191
330
18D
100
AcDbEntity
8
AFUSK-3D-017
100
AcDbVertex
100
AcDbPolyFaceMeshVertex
10
0.0
20
0.0
30
37.5
70
192
0
VERTEX
5
192
330
18D
100
AcDbEntity
8
AFUSK-3D-017
100
AcDbFaceRecord
10
0.0
20
0.0
30
0.0
70
128
71
1
72
2
73
3
74
4
0
SEQEND
5
193
330
18D
100
AcDbEntity
8
AFUSK-3D-017
0
ATTDEF
5
194
330
104
100
AcDbEntity
8
A-FURN-POINT-PART-T
100
AcDbText
10
0.0
20
0.0
30
0.0
40
0.001
1

100
AcDbAttributeDefinition
3

2
CAPPN
70
1
0
ATTDEF
5
195
330
104
100
AcDbEntity
8
A-FURN-POINT-PART-T
100
AcDbText
10
0.0
20
0.0
30
0.0
40
0.001
1

100
AcDbAttributeDefinition
3

2
CAPPD
70
1
0
ATTDEF
5
196
330
104
100
AcDbEntity
8
A-FURN-POINT-PART-T
100
AcDbText
10
0.0
20
0.0
30
0.0
40
0.001
1

100
AcDbAttributeDefinition
3

2
CAPMG
70
1
0
ATTDEF
5
197
330
104
100
AcDbEntity
8
A-FURN-POINT-PART-T
100
AcDbText
10
0.0
20
0.0
30
0.0
40
0.001
1

100
AcDbAttributeDefinition
3

2
CAPMC
70
1
0
ATTDEF
5
198
330
104
100
AcDbEntity
8
A-FURN-POINT-PART-T
100
AcDbText
10
0.0
20
0.0
30
0.0
40
0.001
1

100
AcDbAttributeDefinition
3

2
CAPGC
70
1
0
ATTDEF
5
199
330
104
100
AcDbEntity
8
A-FURN-POINT-PART-T
100
AcDbText
10
0.0
20
0.0
30
0.0
40
0.001
1

100
AcDbAttributeDefinition
3

2
CAPALIAS1
70
1
0
ATTDEF
5
19A
330
104
100
AcDbEntity
8
A-FURN-POINT-PART-T
100
AcDbText
10
0.0
20
0.0
30
0.0
40
0.001
1

100
AcDbAttributeDefinition
3

2
CAPALIAS2
70
1
0
ATTDEF
5
19B
330
104
100
AcDbEntity
8
A-FURN-POINT-PART-T
100
AcDbText
10
0.0
20
0.0
30
0.0
40
0.001
1

100
AcDbAttributeDefinition
3

2
CAPALIAS3
70
1
0
ATTDEF
5
19C
330
104
100
AcDbEntity
8
A-FURN-POINT-PART-T
100
AcDbText
10
0.0
20
0.0
30
0.0
40
0.001
1

100
AcDbAttributeDefinition
3

2
CAPBLDG
70
1
0
ATTDEF
5
19D
330
104
100
AcDbEntity
8
A-FURN-POINT-PART-T
100
AcDbText
10
0.0
20
0.0
30
0.0
40
0.001
1

100
AcDbAttributeDefinition
3

2
CAPFLOOR
70
1
0
ATTDEF
5
19E
330
104
100
AcDbEntity
8
A-FURN-POINT-PART-T
100
AcDbText
10
0.0
20
0.0
30
0.0
40
0.001
1

100
AcDbAttributeDefinition
3

2
CAPDEPT
70
1
0
ATTDEF
5
19F
330
104
100
AcDbEntity
8
A-FURN-POINT-PART-T
100
AcDbText
10
0.0
20
0.0
30
0.0
40
0.001
1

100
AcDbAttributeDefinition
3

2
CAPPERSON
70
1
0
ATTDEF
5
1A0
330
104
100
AcDbEntity
8
A-FURN-POINT-PART-T
100
AcDbText
10
0.0
20
0.0
30
0.0
40
0.001
1

100
AcDbAttributeDefinition
3

2
CAPPL
70
1
0
ATTDEF
5
1A1
330
104
100
AcDbEntity
8
A-FURN-POINT-PART-T
100
AcDbText
10
0.0
20
0.0
30
0.0
40
0.001
1

100
AcDbAttributeDefinition
3

2
CAPTG
70
1
0
ATTDEF
5
1A2
330
104
100
AcDbEntity
8
A-FURN-POINT-PART-T
100
AcDbText
10
0.0
20
0.0
30
0.0
40
0.001
1

100
AcDbAttributeDefinition
3

2
CAPQT
70
1
0
ATTDEF
5
1A3
330
104
100
AcDbEntity
8
A-FURN-POINT-PART-T
100
AcDbText
10
0.0
20
0.0
30
0.0
40
0.001
1

100
AcDbAttributeDefinition
3

2
CAPDH
70
1
0
ENDBLK
5
1A4
330
104
100
AcDbEntity
8
0
100
AcDbBlockEnd
0
BLOCK
5
1A5
330
105
100
AcDbEntity
8
0
100
AcDbBlockBegin
2
P_TS71236TFGR
70
2
10
0.0
20
0.0
30
0.0
3
P_TS71236TFGR
1

0
POINT
5
1A6
330
105
100
AcDbEntity
8
A-FURN-POINT-PART
100
AcDbPoint
10
0.0
20
0.0
30
0.0
0
ATTDEF
5
1A7
330
105
100
AcDbEntity
8
A-FURN-POINT-PART-T
100
AcDbText
10
0.0
20
0.0
30
0.0
40
0.001
1

100
AcDbAttributeDefinition
3

2
CAPPN
70
1
0
ATTDEF
5
1A8
330
105
100
AcDbEntity
8
A-FURN-POINT-PART-T
100
AcDbText
10
0.0
20
0.0
30
0.0
40
0.001
1

100
AcDbAttributeDefinition
3

2
CAPPD
70
1
0
ATTDEF
5
1A9
330
105
100
AcDbEntity
8
A-FURN-POINT-PART-T
100
AcDbText
10
0.0
20
0.0
30
0.0
40
0.001
1

100
AcDbAttributeDefinition
3

2
CAPMG
70
1
0
ATTDEF
5
1AA
330
105
100
AcDbEntity
8
A-FURN-POINT-PART-T
100
AcDbText
10
0.0
20
0.0
30
0.0
40
0.001
1

100
AcDbAttributeDefinition
3

2
CAPMC
70
1
0
ATTDEF
5
1AB
330
105
100
AcDbEntity
8
A-FURN-POINT-PART-T
100
AcDbText
10
0.0
20
0.0
30
0.0
40
0.001
1

100
AcDbAttributeDefinition
3

2
CAPGC
70
1
0
ATTDEF
5
1AC
330
105
100
AcDbEntity
8
A-FURN-POINT-PART-T
100
AcDbText
10
0.0
20
0.0
30
0.0
40
0.001
1

100
AcDbAttributeDefinition
3

2
CAPALIAS1
70
1
0
ATTDEF
5
1AD
330
105
100
AcDbEntity
8
A-FURN-POINT-PART-T
100
AcDbText
10
0.0
20
0.0
30
0.0
40
0.001
1

100
AcDbAttributeDefinition
3

2
CAPALIAS2
70
1
0
ATTDEF
5
1AE
330
105
100
AcDbEntity
8
A-FURN-POINT-PART-T
100
AcDbText
10
0.0
20
0.0
30
0.0
40
0.001
1

100
AcDbAttributeDefinition
3

2
CAPALIAS3
70
1
0
ATTDEF
5
1AF
330
105
100
AcDbEntity
8
A-FURN-POINT-PART-T
100
AcDbText
10
0.0
20
0.0
30
0.0
40
0.001
1

100
AcDbAttributeDefinition
3

2
CAPBLDG
70
1
0
ATTDEF
5
1B0
330
105
100
AcDbEntity
8
A-FURN-POINT-PART-T
100
AcDbText
10
0.0
20
0.0
30
0.0
40
0.001
1

100
AcDbAttributeDefinition
3

2
CAPFLOOR
70
1
0
ATTDEF
5
1B1
330
105
100
AcDbEntity
8
A-FURN-POINT-PART-T
100
AcDbText
10
0.0
20
0.0
30
0.0
40
0.001
1

100
AcDbAttributeDefinition
3

2
CAPDEPT
70
1
0
ATTDEF
5
1B2
330
105
100
AcDbEntity
8
A-FURN-POINT-PART-T
100
AcDbText
10
0.0
20
0.0
30
0.0
40
0.001
1

100
AcDbAttributeDefinition
3

2
CAPPERSON
70
1
0
ATTDEF
5
1B3
330
105
100
AcDbEntity
8
A-FURN-POINT-PART-T
100
AcDbText
10
0.0
20
0.0
30
0.0
40
0.001
1

100
AcDbAttributeDefinition
3

2
CAPPL
70
1
0
ATTDEF
5
1B4
330
105
100
AcDbEntity
8
A-FURN-POINT-PART-T
100
AcDbText
10
0.0
20
0.0
30
0.0
40
0.001
1

100
AcDbAttributeDefinition
3

2
CAPTG
70
1
0
ATTDEF
5
1B5
330
105
100
AcDbEntity
8
A-FURN-POINT-PART-T
100
AcDbText
10
0.0
20
0.0
30
0.0
40
0.001
1

100
AcDbAttributeDefinition
3

2
CAPQT
70
1
0
ATTDEF
5
1B6
330
105
100
AcDbEntity
8
A-FURN-POINT-PART-T
100
AcDbText
10
0.0
20
0.0
30
0.0
40
0.001
1

100
AcDbAttributeDefinition
3

2
CAPDH
70
1
0
ENDBLK
5
1B7
330
105
100
AcDbEntity
8
0
100
AcDbBlockEnd
0
BLOCK
5
1B8
330
106
100
AcDbEntity
8
0
100
AcDbBlockBegin
2
3_TS71236TFGR
70
2
10
0.0
20
0.0
30
0.0
3
3_TS71236TFGR
1

0
POLYLINE
5
1B9
330
106
100
AcDbEntity
8
AFUPA-3D-051
100
AcDbPolyFaceMesh
66
1
10
0.0
20
0.0
30
0.0
70
64
71
8
72
6
0
VERTEX
5
1BA
330
1B9
100
AcDbEntity
8
AFUPA-3D-051
100
AcDbVertex
100
AcDbPolyFaceMeshVertex
10
0.0625
20
1.3125
30
0.0
70
192
0
VERTEX
5
1BB
330
1B9
100
AcDbEntity
8
AFUPA-3D-051
100
AcDbVertex
100
AcDbPolyFaceMeshVertex
10
35.9375
20
1.3125
30
0.0
70
192
0
VERTEX
5
1BC
330
1B9
100
AcDbEntity
8
AFUPA-3D-051
100
AcDbVertex
100
AcDbPolyFaceMeshVertex
10
35.9375
20
1.6875
30
0.0
70
192
0
VERTEX
5
1BD
330
1B9
100
AcDbEntity
8
AFUPA-3D-051
100
AcDbVertex
100
AcDbPolyFaceMeshVertex
10
0.0625
20
1.6875
30
0.0
70
192
0
VERTEX
5
1BE
330
1B9
100
AcDbEntity
8
AFUPA-3D-051
100
AcDbVertex
100
AcDbPolyFaceMeshVertex
10
0.0625
20
1.3125
30
15.5
70
192
0
VERTEX
5
1BF
330
1B9
100
AcDbEntity
8
AFUPA-3D-051
100
AcDbVertex
100
AcDbPolyFaceMeshVertex
10
35.9375
20
1.3125
30
15.5
70
192
0
VERTEX
5
1C0
330
1B9
100
AcDbEntity
8
AFUPA-3D-051
100
AcDbVertex
100
AcDbPolyFaceMeshVertex
10
35.9375
20
1.6875
30
15.5
70
192
0
VERTEX
5
1C1
330
1B9
100
AcDbEntity
8
AFUPA-3D-051
100
AcDbVertex
100
AcDbPolyFaceMeshVertex
10
0.0625
20
1.6875
30
15.5
70
192
0
VERTEX
5
1C2
330
1B9
100
AcDbEntity
8
AFUPA-3D-051
100
AcDbFaceRecord
10
0.0
20
0.0
30
0.0
70
128
71
1
72
4
73
3
74
2
0
VERTEX
5
1C3
330
1B9
100
AcDbEntity
8
AFUPA-3D-051
100
AcDbFaceRecord
10
0.0
20
0.0
30
0.0
70
128
71
5
72
6
73
7
74
8
0
VERTEX
5
1C4
330
1B9
100
AcDbEntity
8
AFUPA-3D-051
100
AcDbFaceRecord
10
0.0
20
0.0
30
0.0
70
128
71
1
72
2
73
6
74
5
0
VERTEX
5
1C5
330
1B9
100
AcDbEntity
8
AFUPA-3D-051
100
AcDbFaceRecord
10
0.0
20
0.0
30
0.0
70
128
71
2
72
3
73
7
74
6
0
VERTEX
5
1C6
330
1B9
100
AcDbEntity
8
AFUPA-3D-051
100
AcDbFaceRecord
10
0.0
20
0.0
30
0.0
70
128
71
3
72
4
73
8
74
7
0
VERTEX
5
1C7
330
1B9
100
AcDbEntity
8
AFUPA-3D-051
100
AcDbFaceRecord
10
0.0
20
0.0
30
0.0
70
128
71
4
72
1
73
5
74
8
0
SEQEND
5
1C8
330
1B9
100
AcDbEntity
8
AFUPA-3D-051
0
ATTDEF
5
1C9
330
106
100
AcDbEntity
8
A-FURN-POINT-PART-T
100
AcDbText
10
0.0
20
0.0
30
0.0
40
0.001
1

100
AcDbAttributeDefinition
3

2
CAPPN
70
1
0
ATTDEF
5
1CA
330
106
100
AcDbEntity
8
A-FURN-POINT-PART-T
100
AcDbText
10
0.0
20
0.0
30
0.0
40
0.001
1

100
AcDbAttributeDefinition
3

2
CAPPD
70
1
0
ATTDEF
5
1CB
330
106
100
AcDbEntity
8
A-FURN-POINT-PART-T
100
AcDbText
10
0.0
20
0.0
30
0.0
40
0.001
1

100
AcDbAttributeDefinition
3

2
CAPMG
70
1
0
ATTDEF
5
1CC
330
106
100
AcDbEntity
8
A-FURN-POINT-PART-T
100
AcDbText
10
0.0
20
0.0
30
0.0
40
0.001
1

100
AcDbAttributeDefinition
3

2
CAPMC
70
1
0
ATTDEF
5
1CD
330
106
100
AcDbEntity
8
A-FURN-POINT-PART-T
100
AcDbText
10
0.0
20
0.0
30
0.0
40
0.001
1

100
AcDbAttributeDefinition
3

2
CAPGC
70
1
0
ATTDEF
5
1CE
330
106
100
AcDbEntity
8
A-FURN-POINT-PART-T
100
AcDbText
10
0.0
20
0.0
30
0.0
40
0.001
1

100
AcDbAttributeDefinition
3

2
CAPALIAS1
70
1
0
ATTDEF
5
1CF
330
106
100
AcDbEntity
8
A-FURN-POINT-PART-T
100
AcDbText
10
0.0
20
0.0
30
0.0
40
0.001
1

100
AcDbAttributeDefinition
3

2
CAPALIAS2
70
1
0
ATTDEF
5
1D0
330
106
100
AcDbEntity
8
A-FURN-POINT-PART-T
100
AcDbText
10
0.0
20
0.0
30
0.0
40
0.001
1

100
AcDbAttributeDefinition
3

2
CAPALIAS3
70
1
0
ATTDEF
5
1D1
330
106
100
AcDbEntity
8
A-FURN-POINT-PART-T
100
AcDbText
10
0.0
20
0.0
30
0.0
40
0.001
1

100
AcDbAttributeDefinition
3

2
CAPBLDG
70
1
0
ATTDEF
5
1D2
330
106
100
AcDbEntity
8
A-FURN-POINT-PART-T
100
AcDbText
10
0.0
20
0.0
30
0.0
40
0.001
1

100
AcDbAttributeDefinition
3

2
CAPFLOOR
70
1
0
ATTDEF
5
1D3
330
106
100
AcDbEntity
8
A-FURN-POINT-PART-T
100
AcDbText
10
0.0
20
0.0
30
0.0
40
0.001
1

100
AcDbAttributeDefinition
3

2
CAPDEPT
70
1
0
ATTDEF
5
1D4
330
106
100
AcDbEntity
8
A-FURN-POINT-PART-T
100
AcDbText
10
0.0
20
0.0
30
0.0
40
0.001
1

100
AcDbAttributeDefinition
3

2
CAPPERSON
70
1
0
ATTDEF
5
1D5
330
106
100
AcDbEntity
8
A-FURN-POINT-PART-T
100
AcDbText
10
0.0
20
0.0
30
0.0
40
0.001
1

100
AcDbAttributeDefinition
3

2
CAPPL
70
1
0
ATTDEF
5
1D6
330
106
100
AcDbEntity
8
A-FURN-POINT-PART-T
100
AcDbText
10
0.0
20
0.0
30
0.0
40
0.001
1

100
AcDbAttributeDefinition
3

2
CAPTG
70
1
0
ATTDEF
5
1D7
330
106
100
AcDbEntity
8
A-FURN-POINT-PART-T
100
AcDbText
10
0.0
20
0.0
30
0.0
40
0.001
1

100
AcDbAttributeDefinition
3

2
CAPQT
70
1
0
ATTDEF
5
1D8
330
106
100
AcDbEntity
8
A-FURN-POINT-PART-T
100
AcDbText
10
0.0
20
0.0
30
0.0
40
0.001
1

100
AcDbAttributeDefinition
3

2
CAPDH
70
1
0
ENDBLK
5
1D9
330
106
100
AcDbEntity
8
0
100
AcDbBlockEnd
0
BLOCK
5
1DA
330
107
100
AcDbEntity
8
0
100
AcDbBlockBegin
2
P_TS7TFGRC
70
2
10
0.0
20
0.0
30
0.0
3
P_TS7TFGRC
1

0
POINT
5
1DB
330
107
100
AcDbEntity
8
A-FURN-POINT-PART
100
AcDbPoint
10
0.0
20
0.0
30
0.0
0
ATTDEF
5
1DC
330
107
100
AcDbEntity
8
A-FURN-POINT-PART-T
100
AcDbText
10
0.0
20
0.0
30
0.0
40
0.001
1

100
AcDbAttributeDefinition
3

2
CAPPN
70
1
0
ATTDEF
5
1DD
330
107
100
AcDbEntity
8
A-FURN-POINT-PART-T
100
AcDbText
10
0.0
20
0.0
30
0.0
40
0.001
1

100
AcDbAttributeDefinition
3

2
CAPPD
70
1
0
ATTDEF
5
1DE
330
107
100
AcDbEntity
8
A-FURN-POINT-PART-T
100
AcDbText
10
0.0
20
0.0
30
0.0
40
0.001
1

100
AcDbAttributeDefinition
3

2
CAPMG
70
1
0
ATTDEF
5
1DF
330
107
100
AcDbEntity
8
A-FURN-POINT-PART-T
100
AcDbText
10
0.0
20
0.0
30
0.0
40
0.001
1

100
AcDbAttributeDefinition
3

2
CAPMC
70
1
0
ATTDEF
5
1E0
330
107
100
AcDbEntity
8
A-FURN-POINT-PART-T
100
AcDbText
10
0.0
20
0.0
30
0.0
40
0.001
1

100
AcDbAttributeDefinition
3

2
CAPGC
70
1
0
ATTDEF
5
1E1
330
107
100
AcDbEntity
8
A-FURN-POINT-PART-T
100
AcDbText
10
0.0
20
0.0
30
0.0
40
0.001
1

100
AcDbAttributeDefinition
3

2
CAPALIAS1
70
1
0
ATTDEF
5
1E2
330
107
100
AcDbEntity
8
A-FURN-POINT-PART-T
100
AcDbText
10
0.0
20
0.0
30
0.0
40
0.001
1

100
AcDbAttributeDefinition
3

2
CAPALIAS2
70
1
0
ATTDEF
5
1E3
330
107
100
AcDbEntity
8
A-FURN-POINT-PART-T
100
AcDbText
10
0.0
20
0.0
30
0.0
40
0.001
1

100
AcDbAttributeDefinition
3

2
CAPALIAS3
70
1
0
ATTDEF
5
1E4
330
107
100
AcDbEntity
8
A-FURN-POINT-PART-T
100
AcDbText
10
0.0
20
0.0
30
0.0
40
0.001
1

100
AcDbAttributeDefinition
3

2
CAPBLDG
70
1
0
ATTDEF
5
1E5
330
107
100
AcDbEntity
8
A-FURN-POINT-PART-T
100
AcDbText
10
0.0
20
0.0
30
0.0
40
0.001
1

100
AcDbAttributeDefinition
3

2
CAPFLOOR
70
1
0
ATTDEF
5
1E6
330
107
100
AcDbEntity
8
A-FURN-POINT-PART-T
100
AcDbText
10
0.0
20
0.0
30
0.0
40
0.001
1

100
AcDbAttributeDefinition
3

2
CAPDEPT
70
1
0
ATTDEF
5
1E7
330
107
100
AcDbEntity
8
A-FURN-POINT-PART-T
100
AcDbText
10
0.0
20
0.0
30
0.0
40
0.001
1

100
AcDbAttributeDefinition
3

2
CAPPERSON
70
1
0
ATTDEF
5
1E8
330
107
100
AcDbEntity
8
A-FURN-POINT-PART-T
100
AcDbText
10
0.0
20
0.0
30
0.0
40
0.001
1

100
AcDbAttributeDefinition
3

2
CAPPL
70
1
0
ATTDEF
5
1E9
330
107
100
AcDbEntity
8
A-FURN-POINT-PART-T
100
AcDbText
10
0.0
20
0.0
30
0.0
40
0.001
1

100
AcDbAttributeDefinition
3

2
CAPTG
70
1
0
ATTDEF
5
1EA
330
107
100
AcDbEntity
8
A-FURN-POINT-PART-T
100
AcDbText
10
0.0
20
0.0
30
0.0
40
0.001
1

100
AcDbAttributeDefinition
3

2
CAPQT
70
1
0
ATTDEF
5
1EB
330
107
100
AcDbEntity
8
A-FURN-POINT-PART-T
100
AcDbText
10
0.0
20
0.0
30
0.0
40
0.001
1

100
AcDbAttributeDefinition
3

2
CAPDH
70
1
0
ENDBLK
5
1EC
330
107
100
AcDbEntity
8
0
100
AcDbBlockEnd
0
BLOCK
5
1ED
330
108
100
AcDbEntity
8
0
100
AcDbBlockBegin
2
3_TS7TFGRC
70
2
10
0.0
20
0.0
30
0.0
3
3_TS7TFGRC
1

0
POINT
5
1EE
330
108
100
AcDbEntity
8
AFUPA-3D-020
100
AcDbPoint
10
0.0
20
0.0
30
0.0
0
ATTDEF
5
1EF
330
108
100
AcDbEntity
8
A-FURN-POINT-PART-T
100
AcDbText
10
0.0
20
0.0
30
0.0
40
0.001
1

100
AcDbAttributeDefinition
3

2
CAPPN
70
1
0
ATTDEF
5
1F0
330
108
100
AcDbEntity
8
A-FURN-POINT-PART-T
100
AcDbText
10
0.0
20
0.0
30
0.0
40
0.001
1

100
AcDbAttributeDefinition
3

2
CAPPD
70
1
0
ATTDEF
5
1F1
330
108
100
AcDbEntity
8
A-FURN-POINT-PART-T
100
AcDbText
10
0.0
20
0.0
30
0.0
40
0.001
1

100
AcDbAttributeDefinition
3

2
CAPMG
70
1
0
ATTDEF
5
1F2
330
108
100
AcDbEntity
8
A-FURN-POINT-PART-T
100
AcDbText
10
0.0
20
0.0
30
0.0
40
0.001
1

100
AcDbAttributeDefinition
3

2
CAPMC
70
1
0
ATTDEF
5
1F3
330
108
100
AcDbEntity
8
A-FURN-POINT-PART-T
100
AcDbText
10
0.0
20
0.0
30
0.0
40
0.001
1

100
AcDbAttributeDefinition
3

2
CAPGC
70
1
0
ATTDEF
5
1F4
330
108
100
AcDbEntity
8
A-FURN-POINT-PART-T
100
AcDbText
10
0.0
20
0.0
30
0.0
40
0.001
1

100
AcDbAttributeDefinition
3

2
CAPALIAS1
70
1
0
ATTDEF
5
1F5
330
108
100
AcDbEntity
8
A-FURN-POINT-PART-T
100
AcDbText
10
0.0
20
0.0
30
0.0
40
0.001
1

100
AcDbAttributeDefinition
3

2
CAPALIAS2
70
1
0
ATTDEF
5
1F6
330
108
100
AcDbEntity
8
A-FURN-POINT-PART-T
100
AcDbText
10
0.0
20
0.0
30
0.0
40
0.001
1

100
AcDbAttributeDefinition
3

2
CAPALIAS3
70
1
0
ATTDEF
5
1F7
330
108
100
AcDbEntity
8
A-FURN-POINT-PART-T
100
AcDbText
10
0.0
20
0.0
30
0.0
40
0.001
1

100
AcDbAttributeDefinition
3

2
CAPBLDG
70
1
0
ATTDEF
5
1F8
330
108
100
AcDbEntity
8
A-FURN-POINT-PART-T
100
AcDbText
10
0.0
20
0.0
30
0.0
40
0.001
1

100
AcDbAttributeDefinition
3

2
CAPFLOOR
70
1
0
ATTDEF
5
1F9
330
108
100
AcDbEntity
8
A-FURN-POINT-PART-T
100
AcDbText
10
0.0
20
0.0
30
0.0
40
0.001
1

100
AcDbAttributeDefinition
3

2
CAPDEPT
70
1
0
ATTDEF
5
1FA
330
108
100
AcDbEntity
8
A-FURN-POINT-PART-T
100
AcDbText
10
0.0
20
0.0
30
0.0
40
0.001
1

100
AcDbAttributeDefinition
3

2
CAPPERSON
70
1
0
ATTDEF
5
1FB
330
108
100
AcDbEntity
8
A-FURN-POINT-PART-T
100
AcDbText
10
0.0
20
0.0
30
0.0
40
0.001
1

100
AcDbAttributeDefinition
3

2
CAPPL
70
1
0
ATTDEF
5
1FC
330
108
100
AcDbEntity
8
A-FURN-POINT-PART-T
100
AcDbText
10
0.0
20
0.0
30
0.0
40
0.001
1

100
AcDbAttributeDefinition
3

2
CAPTG
70
1
0
ATTDEF
5
1FD
330
108
100
AcDbEntity
8
A-FURN-POINT-PART-T
100
AcDbText
10
0.0
20
0.0
30
0.0
40
0.001
1

100
AcDbAttributeDefinition
3

2
CAPQT
70
1
0
ATTDEF
5
1FE
330
108
100
AcDbEntity
8
A-FURN-POINT-PART-T
100
AcDbText
10
0.0
20
0.0
30
0.0
40
0.001
1

100
AcDbAttributeDefinition
3

2
CAPDH
70
1
0
ENDBLK
5
1FF
330
108
100
AcDbEntity
8
0
100
AcDbBlockEnd
0
BLOCK
5
200
330
102
100
AcDbEntity
8
0
100
AcDbBlockBegin
2
P_A36.000000
70
2
10
0.0
20
0.0
30
0.0
3
P_A36.000000
1

0
INSERT
5
201
330
102
100
AcDbEntity
8
A-FURN
100
AcDbBlockReference
66
1
2
P_TS736THF
10
0.0
20
0.0
30
0.0
0
ATTRIB
5
202
330
102
100
AcDbEntity
8
A-FURN-P-PNLS-42-T
100
AcDbText
10
0.0
20
0.0
30
0.0
40
0.001
1
TS736THF
100
AcDbAttribute
2
CAPPN
70
1
0
ATTRIB
5
203
330
102
100
AcDbEntity
8
A-FURN-P-PNLS-42-T
100
AcDbText
10
0.0
20
0.0
30
0.0
40
0.001
1
Base horizontal frame package 36"W - Thin (2 bars, top cap, base trims)
100
AcDbAttribute
2
CAPPD
70
1
0
ATTRIB
5
204
330
102
100
AcDbEntity
8
A-FURN-P-PNLS-42-T
100
AcDbText
10
0.0
20
0.0
30
0.0
40
0.001
1
STC
100
AcDbAttribute
2
CAPMG
70
1
0
ATTRIB
5
205
330
102
100
AcDbEntity
8
A-FURN-P-PNLS-42-T
100
AcDbText
10
0.0
20
0.0
30
0.0
40
0.001
1
TSA
100
AcDbAttribute
2
CAPMC
70
1
0
ATTRIB
5
206
330
102
100
AcDbEntity
8
A-FURN-P-PNLS-42-T
100
AcDbText
10
0.0
20
0.0
30
0.0
40
0.001
1

100
AcDbAttribute
2
CAPGC
70
1
0
ATTRIB
5
207
330
102
100
AcDbEntity
8
A-FURN-P-PNLS-42-T
100
AcDbText
10
0.0
20
0.0
30
0.0
40
0.001
1

100
AcDbAttribute
2
CAPALIAS1
70
1
0
ATTRIB
5
208
330
102
100
AcDbEntity
8
A-FURN-P-PNLS-42-T
100
AcDbText
10
0.0
20
0.0
30
0.0
40
0.001
1

100
AcDbAttribute
2
CAPALIAS2
70
1
0
ATTRIB
5
209
330
102
100
AcDbEntity
8
A-FURN-P-PNLS-42-T
100
AcDbText
10
0.0
20
0.0
30
0.0
40
0.001
1

100
AcDbAttribute
2
CAPALIAS3
70
1
0
ATTRIB
5
20A
330
102
100
AcDbEntity
8
A-FURN-P-PNLS-42-T
100
AcDbText
10
0.0
20
0.0
30
0.0
40
0.001
1

100
AcDbAttribute
2
CAPBLDG
70
1
0
ATTRIB
5
20B
330
102
100
AcDbEntity
8
A-FURN-P-PNLS-42-T
100
AcDbText
10
0.0
20
0.0
30
0.0
40
0.001
1

100
AcDbAttribute
2
CAPFLOOR
70
1
0
ATTRIB
5
20C
330
102
100
AcDbEntity
8
A-FURN-P-PNLS-42-T
100
AcDbText
10
0.0
20
0.0
30
0.0
40
0.001
1

100
AcDbAttribute
2
CAPDEPT
70
1
0
ATTRIB
5
20D
330
102
100
AcDbEntity
8
A-FURN-P-PNLS-42-T
100
AcDbText
10
0.0
20
0.0
30
0.0
40
0.001
1

100
AcDbAttribute
2
CAPPERSON
70
1
0
ATTRIB
5
20E
330
102
100
AcDbEntity
8
A-FURN-P-PNLS-42-T
100
AcDbText
10
0.0
20
0.0
30
0.0
40
0.001
1
89.0000
100
AcDbAttribute
2
CAPPL
70
1
0
ATTRIB
5
20F
330
102
100
AcDbEntity
8
A-FURN-P-PNLS-42-T
100
AcDbText
10
18.0
20
-5.5
30
0.0
40
3.0
1
36/42
7
MONOTXT
72
1
11
18.0
21
-5.5
31
0.0
100
AcDbAttribute
2
CAPTG
70
0
0
ATTRIB
5
210
330
102
100
AcDbEntity
8
A-FURN-P-PNLS-42-T
100
AcDbText
10
0.0
20
0.0
30
0.0
40
0.001
1
1
100
AcDbAttribute
2
CAPQT
70
1
0
ATTRIB
5
211
330
102
100
AcDbEntity
8
A-FURN-P-PNLS-42-T
100
AcDbText
10
0.0
20
0.0
30
0.0
40
0.001
1
0
100
AcDbAttribute
2
CAPDH
70
1
0
SEQEND
5
212
330
201
100
AcDbEntity
8
A-FURN
0
INSERT
5
213
330
102
100
AcDbEntity
8
A-FURN
100
AcDbBlockReference
66
1
2
P_TS73636TK
10
36.0
20
0.0
30
0.0
50
180.0
0
ATTRIB
5
214
330
102
100
AcDbEntity
8
A-FURN-POINT-PART-T
100
AcDbText
10
36.0
20
0.0
30
0.0
40
0.001
1
TS73636TK
100
AcDbAttribute
2
CAPPN
70
1
0
ATTRIB
5
215
330
102
100
AcDbEntity
8
A-FURN-POINT-PART-T
100
AcDbText
10
36.0
20
0.0
30
0.0
40
0.001
1
Tackable acoustical skin 36"W x 36"H - side 1
100
AcDbAttribute
2
CAPPD
70
1
0
ATTRIB
5
216
330
102
100
AcDbEntity
8
A-FURN-POINT-PART-T
100
AcDbText
10
36.0
20
0.0
30
0.0
40
0.001
1
STC
100
AcDbAttribute
2
CAPMG
70
1
0
ATTRIB
5
217
330
102
100
AcDbEntity
8
A-FURN-POINT-PART-T
100
AcDbText
10
36.0
20
0.0
30
0.0
40
0.001
1
TSA
100
AcDbAttribute
2
CAPMC
70
1
0
ATTRIB
5
218
330
102
100
AcDbEntity
8
A-FURN-POINT-PART-T
100
AcDbText
10
36.0
20
0.0
30
0.0
40
0.001
1

100
AcDbAttribute
2
CAPGC
70
1
0
ATTRIB
5
219
330
102
100
AcDbEntity
8
A-FURN-POINT-PART-T
100
AcDbText
10
36.0
20
0.0
30
0.0
40
0.001
1

100
AcDbAttribute
2
CAPALIAS1
70
1
0
ATTRIB
5
21A
330
102
100
AcDbEntity
8
A-FURN-POINT-PART-T
100
AcDbText
10
36.0
20
0.0
30
0.0
40
0.001
1

100
AcDbAttribute
2
CAPALIAS2
70
1
0
ATTRIB
5
21B
330
102
100
AcDbEntity
8
A-FURN-POINT-PART-T
100
AcDbText
10
36.0
20
0.0
30
0.0
40
0.001
1

100
AcDbAttribute
2
CAPALIAS3
70
1
0
ATTRIB
5
21C
330
102
100
AcDbEntity
8
A-FURN-POINT-PART-T
100
AcDbText
10
36.0
20
0.0
30
0.0
40
0.001
1

100
AcDbAttribute
2
CAPBLDG
70
1
0
ATTRIB
5
21D
330
102
100
AcDbEntity
8
A-FURN-POINT-PART-T
100
AcDbText
10
36.0
20
0.0
30
0.0
40
0.001
1

100
AcDbAttribute
2
CAPFLOOR
70
1
0
ATTRIB
5
21E
330
102
100
AcDbEntity
8
A-FURN-POINT-PART-T
100
AcDbText
10
36.0
20
0.0
30
0.0
40
0.001
1

100
AcDbAttribute
2
CAPDEPT
70
1
0
ATTRIB
5
21F
330
102
100
AcDbEntity
8
A-FURN-POINT-PART-T
100
AcDbText
10
36.0
20
0.0
30
0.0
40
0.001
1

100
AcDbAttribute
2
CAPPERSON
70
1
0
ATTRIB
5
220
330
102
100
AcDbEntity
8
A-FURN-POINT-PART-T
100
AcDbText
10
36.0
20
0.0
30
0.0
40
0.001
1
177.0000
100
AcDbAttribute
2
CAPPL
70
1
0
ATTRIB
5
221
330
102
100
AcDbEntity
8
A-FURN-POINT-PART-T
100
AcDbText
10
36.0
20
0.0
30
0.0
40
0.001
1

100
AcDbAttribute
2
CAPTG
70
1
0
ATTRIB
5
222
330
102
100
AcDbEntity
8
A-FURN-POINT-PART-T
100
AcDbText
10
36.0
20
0.0
30
0.0
40
0.001
1
1
100
AcDbAttribute
2
CAPQT
70
1
0
ATTRIB
5
223
330
102
100
AcDbEntity
8
A-FURN-POINT-PART-T
100
AcDbText
10
36.0
20
0.0
30
0.0
40
0.001
1
3.75
100
AcDbAttribute
2
CAPDH
70
1
0
SEQEND
5
224
330
213
100
AcDbEntity
8
A-FURN
0
INSERT
5
225
330
102
100
AcDbEntity
8
A-FURN
100
AcDbBlockReference
66
1
2
P_TS73636TK
10
0.0
20
3.0
30
0.0
0
ATTRIB
5
226
330
102
100
AcDbEntity
8
A-FURN-POINT-PART-T
100
AcDbText
10
0.0
20
3.0
30
0.0
40
0.001
1
TS73636TK
100
AcDbAttribute
2
CAPPN
70
1
0
ATTRIB
5
227
330
102
100
AcDbEntity
8
A-FURN-POINT-PART-T
100
AcDbText
10
0.0
20
3.0
30
0.0
40
0.001
1
Tackable acoustical skin 36"W x 36"H - side 2
100
AcDbAttribute
2
CAPPD
70
1
0
ATTRIB
5
228
330
102
100
AcDbEntity
8
A-FURN-POINT-PART-T
100
AcDbText
10
0.0
20
3.0
30
0.0
40
0.001
1
STC
100
AcDbAttribute
2
CAPMG
70
1
0
ATTRIB
5
229
330
102
100
AcDbEntity
8
A-FURN-POINT-PART-T
100
AcDbText
10
0.0
20
3.0
30
0.0
40
0.001
1
TSA
100
AcDbAttribute
2
CAPMC
70
1
0
ATTRIB
5
22A
330
102
100
AcDbEntity
8
A-FURN-POINT-PART-T
100
AcDbText
10
0.0
20
3.0
30
0.0
40
0.001
1

100
AcDbAttribute
2
CAPGC
70
1
0
ATTRIB
5
22B
330
102
100
AcDbEntity
8
A-FURN-POINT-PART-T
100
AcDbText
10
0.0
20
3.0
30
0.0
40
0.001
1

100
AcDbAttribute
2
CAPALIAS1
70
1
0
ATTRIB
5
22C
330
102
100
AcDbEntity
8
A-FURN-POINT-PART-T
100
AcDbText
10
0.0
20
3.0
30
0.0
40
0.001
1

100
AcDbAttribute
2
CAPALIAS2
70
1
0
ATTRIB
5
22D
330
102
100
AcDbEntity
8
A-FURN-POINT-PART-T
100
AcDbText
10
0.0
20
3.0
30
0.0
40
0.001
1

100
AcDbAttribute
2
CAPALIAS3
70
1
0
ATTRIB
5
22E
330
102
100
AcDbEntity
8
A-FURN-POINT-PART-T
100
AcDbText
10
0.0
20
3.0
30
0.0
40
0.001
1

100
AcDbAttribute
2
CAPBLDG
70
1
0
ATTRIB
5
22F
330
102
100
AcDbEntity
8
A-FURN-POINT-PART-T
100
AcDbText
10
0.0
20
3.0
30
0.0
40
0.001
1

100
AcDbAttribute
2
CAPFLOOR
70
1
0
ATTRIB
5
230
330
102
100
AcDbEntity
8
A-FURN-POINT-PART-T
100
AcDbText
10
0.0
20
3.0
30
0.0
40
0.001
1

100
AcDbAttribute
2
CAPDEPT
70
1
0
ATTRIB
5
231
330
102
100
AcDbEntity
8
A-FURN-POINT-PART-T
100
AcDbText
10
0.0
20
3.0
30
0.0
40
0.001
1

100
AcDbAttribute
2
CAPPERSON
70
1
0
ATTRIB
5
232
330
102
100
AcDbEntity
8
A-FURN-POINT-PART-T
100
AcDbText
10
0.0
20
3.0
30
0.0
40
0.001
1
177.0000
100
AcDbAttribute
2
CAPPL
70
1
0
ATTRIB
5
233
330
102
100
AcDbEntity
8
A-FURN-POINT-PART-T
100
AcDbText
10
0.0
20
3.0
30
0.0
40
0.001
1

100
AcDbAttribute
2
CAPTG
70
1
0
ATTRIB
5
234
330
102
100
AcDbEntity
8
A-FURN-POINT-PART-T
100
AcDbText
10
0.0
20
3.0
30
0.0
40
0.001
1
1
100
AcDbAttribute
2
CAPQT
70
1
0
ATTRIB
5
235
330
102
100
AcDbEntity
8
A-FURN-POINT-PART-T
100
AcDbText
10
0.0
20
3.0
30
0.0
40
0.001
1
3.75
100
AcDbAttribute
2
CAPDH
70
1
0
SEQEND
5
236
330
225
100
AcDbEntity
8
A-FURN
0
INSERT
5
237
330
102
100
AcDbEntity
8
A-FURN
100
AcDbBlockReference
66
1
2
P_TS71236TFGR
10
0.0
20
0.0
30
0.0
0
ATTRIB
5
238
330
102
100
AcDbEntity
8
A-FURN-POINT-PART-T
100
AcDbText
10
0.0
20
0.0
30
0.0
40
0.001
1
TS71236TFGR
100
AcDbAttribute
2
CAPPN
70
1
0
ATTRIB
5
239
330
102
100
AcDbEntity
8
A-FURN-POINT-PART-T
100
AcDbText
10
0.0
20
0.0
30
0.0
40
0.001
1
Frameless glass screen, recessed attachment 36"W x 12"H - Thin
100
AcDbAttribute
2
CAPPD
70
1
0
ATTRIB
5
23A
330
102
100
AcDbEntity
8
A-FURN-POINT-PART-T
100
AcDbText
10
0.0
20
0.0
30
0.0
40
0.001
1
STC
100
AcDbAttribute
2
CAPMG
70
1
0
ATTRIB
5
23B
330
102
100
AcDbEntity
8
A-FURN-POINT-PART-T
100
AcDbText
10
0.0
20
0.0
30
0.0
40
0.001
1
TSA
100
AcDbAttribute
2
CAPMC
70
1
0
ATTRIB
5
23C
330
102
100
AcDbEntity
8
A-FURN-POINT-PART-T
100
AcDbText
10
0.0
20
0.0
30
0.0
40
0.001
1

100
AcDbAttribute
2
CAPGC
70
1
0
ATTRIB
5
23D
330
102
100
AcDbEntity
8
A-FURN-POINT-PART-T
100
AcDbText
10
0.0
20
0.0
30
0.0
40
0.001
1

100
AcDbAttribute
2
CAPALIAS1
70
1
0
ATTRIB
5
23E
330
102
100
AcDbEntity
8
A-FURN-POINT-PART-T
100
AcDbText
10
0.0
20
0.0
30
0.0
40
0.001
1

100
AcDbAttribute
2
CAPALIAS2
70
1
0
ATTRIB
5
23F
330
102
100
AcDbEntity
8
A-FURN-POINT-PART-T
100
AcDbText
10
0.0
20
0.0
30
0.0
40
0.001
1

100
AcDbAttribute
2
CAPALIAS3
70
1
0
ATTRIB
5
240
330
102
100
AcDbEntity
8
A-FURN-POINT-PART-T
100
AcDbText
10
0.0
20
0.0
30
0.0
40
0.001
1

100
AcDbAttribute
2
CAPBLDG
70
1
0
ATTRIB
5
241
330
102
100
AcDbEntity
8
A-FURN-POINT-PART-T
100
AcDbText
10
0.0
20
0.0
30
0.0
40
0.001
1

100
AcDbAttribute
2
CAPFLOOR
70
1
0
ATTRIB
5
242
330
102
100
AcDbEntity
8
A-FURN-POINT-PART-T
100
AcDbText
10
0.0
20
0.0
30
0.0
40
0.001
1

100
AcDbAttribute
2
CAPDEPT
70
1
0
ATTRIB
5
243
330
102
100
AcDbEntity
8
A-FURN-POINT-PART-T
100
AcDbText
10
0.0
20
0.0
30
0.0
40
0.001
1

100
AcDbAttribute
2
CAPPERSON
70
1
0
ATTRIB
5
244
330
102
100
AcDbEntity
8
A-FURN-POINT-PART-T
100
AcDbText
10
0.0
20
0.0
30
0.0
40
0.001
1
466.0000
100
AcDbAttribute
2
CAPPL
70
1
0
ATTRIB
5
245
330
102
100
AcDbEntity
8
A-FURN-POINT-PART-T
100
AcDbText
10
0.0
20
0.0
30
0.0
40
0.001
1

100
AcDbAttribute
2
CAPTG
70
1
0
ATTRIB
5
246
330
102
100
AcDbEntity
8
A-FURN-POINT-PART-T
100
AcDbText
10
0.0
20
0.0
30
0.0
40
0.001
1
1
100
AcDbAttribute
2
CAPQT
70
1
0
ATTRIB
5
247
330
102
100
AcDbEntity
8
A-FURN-POINT-PART-T
100
AcDbText
10
0.0
20
0.0
30
0.0
40
0.001
1
38.375
100
AcDbAttribute
2
CAPDH
70
1
0
SEQEND
5
248
330
237
100
AcDbEntity
8
A-FURN
0
INSERT
5
249
330
102
100
AcDbEntity
8
A-FURN
100
AcDbBlockReference
66
1
2
P_TS7TFGRC
10
28.8
20
1.5
30
0.0
0
ATTRIB
5
24A
330
102
100
AcDbEntity
8
A-FURN-POINT-PART-T
100
AcDbText
10
28.8
20
1.5
30
0.0
40
0.001
1
TS7TFGRC
100
AcDbAttribute
2
CAPPN
70
1
0
ATTRIB
5
24B
330
102
100
AcDbEntity
8
A-FURN-POINT-PART-T
100
AcDbText
10
28.8
20
1.5
30
0.0
40
0.001
1
Recessed frameless glass top cap connector (corner junction cap above the glass top caps, p386)
100
AcDbAttribute
2
CAPPD
70
1
0
ATTRIB
5
24C
330
102
100
AcDbEntity
8
A-FURN-POINT-PART-T
100
AcDbText
10
28.8
20
1.5
30
0.0
40
0.001
1
STC
100
AcDbAttribute
2
CAPMG
70
1
0
ATTRIB
5
24D
330
102
100
AcDbEntity
8
A-FURN-POINT-PART-T
100
AcDbText
10
28.8
20
1.5
30
0.0
40
0.001
1
TSA
100
AcDbAttribute
2
CAPMC
70
1
0
ATTRIB
5
24E
330
102
100
AcDbEntity
8
A-FURN-POINT-PART-T
100
AcDbText
10
28.8
20
1.5
30
0.0
40
0.001
1

100
AcDbAttribute
2
CAPGC
70
1
0
ATTRIB
5
24F
330
102
100
AcDbEntity
8
A-FURN-POINT-PART-T
100
AcDbText
10
28.8
20
1.5
30
0.0
40
0.001
1

100
AcDbAttribute
2
CAPALIAS1
70
1
0
ATTRIB
5
250
330
102
100
AcDbEntity
8
A-FURN-POINT-PART-T
100
AcDbText
10
28.8
20
1.5
30
0.0
40
0.001
1

100
AcDbAttribute
2
CAPALIAS2
70
1
0
ATTRIB
5
251
330
102
100
AcDbEntity
8
A-FURN-POINT-PART-T
100
AcDbText
10
28.8
20
1.5
30
0.0
40
0.001
1

100
AcDbAttribute
2
CAPALIAS3
70
1
0
ATTRIB
5
252
330
102
100
AcDbEntity
8
A-FURN-POINT-PART-T
100
AcDbText
10
28.8
20
1.5
30
0.0
40
0.001
1

100
AcDbAttribute
2
CAPBLDG
70
1
0
ATTRIB
5
253
330
102
100
AcDbEntity
8
A-FURN-POINT-PART-T
100
AcDbText
10
28.8
20
1.5
30
0.0
40
0.001
1

100
AcDbAttribute
2
CAPFLOOR
70
1
0
ATTRIB
5
254
330
102
100
AcDbEntity
8
A-FURN-POINT-PART-T
100
AcDbText
10
28.8
20
1.5
30
0.0
40
0.001
1

100
AcDbAttribute
2
CAPDEPT
70
1
0
ATTRIB
5
255
330
102
100
AcDbEntity
8
A-FURN-POINT-PART-T
100
AcDbText
10
28.8
20
1.5
30
0.0
40
0.001
1

100
AcDbAttribute
2
CAPPERSON
70
1
0
ATTRIB
5
256
330
102
100
AcDbEntity
8
A-FURN-POINT-PART-T
100
AcDbText
10
28.8
20
1.5
30
0.0
40
0.001
1
16.0000
100
AcDbAttribute
2
CAPPL
70
1
0
ATTRIB
5
257
330
102
100
AcDbEntity
8
A-FURN-POINT-PART-T
100
AcDbText
10
28.8
20
1.5
30
0.0
40
0.001
1

100
AcDbAttribute
2
CAPTG
70
1
0
ATTRIB
5
258
330
102
100
AcDbEntity
8
A-FURN-POINT-PART-T
100
AcDbText
10
28.8
20
1.5
30
0.0
40
0.001
1
1
100
AcDbAttribute
2
CAPQT
70
1
0
ATTRIB
5
259
330
102
100
AcDbEntity
8
A-FURN-POINT-PART-T
100
AcDbText
10
28.8
20
1.5
30
0.0
40
0.001
1
0
100
AcDbAttribute
2
CAPDH
70
1
0
SEQEND
5
25A
330
249
100
AcDbEntity
8
A-FURN
0
ATTDEF
5
25B
330
102
100
AcDbEntity
8
A-FURN-PNLS-BUILDUP-T
100
AcDbText
10
18.0
20
4.5
30
0.0
40
3.0
1

7
Standard
72
1
11
18.0
21
4.5
31
0.0
100
AcDbAttributeDefinition
3

2
CAPSTD
70
0
0
ATTDEF
5
25C
330
102
100
AcDbEntity
8
A-FURN-PNLS-BUILDUP-T
100
AcDbText
10
0.0
20
0.0
30
0.0
40
0.001
1

100
AcDbAttributeDefinition
3

2
CAPSTDTITLE
70
1
0
ATTDEF
5
25D
330
102
100
AcDbEntity
8
A-FURN-PNLS-BUILDUP-T
100
AcDbText
10
0.0
20
0.0
30
0.0
40
0.001
1

100
AcDbAttributeDefinition
3

2
CAPPANELCAT
70
1
0
ATTDEF
5
25E
330
102
100
AcDbEntity
8
A-FURN-PNLS-BUILDUP-T
100
AcDbText
10
0.0
20
0.0
30
0.0
40
0.001
1

100
AcDbAttributeDefinition
3

2
CAPPANELNAME
70
1
0
ATTDEF
5
25F
330
102
100
AcDbEntity
8
A-FURN-PNLS-BUILDUP-T
100
AcDbText
10
0.0
20
0.0
30
0.0
40
0.001
1

100
AcDbAttributeDefinition
3

2
CAPPANELCONFIG
70
1
0
ATTDEF
5
260
330
102
100
AcDbEntity
8
A-FURN-PNLS-BUILDUP-T
100
AcDbText
10
0.0
20
0.0
30
0.0
40
0.001
1

100
AcDbAttributeDefinition
3

2
CAPPANELWIDTH
70
1
0
ATTDEF
5
261
330
102
100
AcDbEntity
8
A-FURN-PNLS-BUILDUP-T
100
AcDbText
10
0.0
20
0.0
30
0.0
40
0.001
1

100
AcDbAttributeDefinition
3

2
CAPPANELHEIGHT
70
1
0
ATTDEF
5
262
330
102
100
AcDbEntity
8
A-FURN-PNLS-BUILDUP-T
100
AcDbText
10
0.0
20
0.0
30
0.0
40
0.001
1

100
AcDbAttributeDefinition
3

2
CAPALIAS1
70
1
0
ATTDEF
5
263
330
102
100
AcDbEntity
8
A-FURN-PNLS-BUILDUP-T
100
AcDbText
10
0.0
20
0.0
30
0.0
40
0.001
1

100
AcDbAttributeDefinition
3

2
CAPALIAS2
70
1
0
ATTDEF
5
264
330
102
100
AcDbEntity
8
A-FURN-PNLS-BUILDUP-T
100
AcDbText
10
0.0
20
0.0
30
0.0
40
0.001
1

100
AcDbAttributeDefinition
3

2
CAPALIAS3
70
1
0
ENDBLK
5
265
330
102
100
AcDbEntity
8
0
100
AcDbBlockEnd
0
BLOCK
5
266
330
109
100
AcDbEntity
8
0
100
AcDbBlockBegin
2
3_A36.000000
70
2
10
0.0
20
0.0
30
0.0
3
3_A36.000000
1

0
INSERT
5
267
330
109
100
AcDbEntity
8
A-FURN
100
AcDbBlockReference
66
1
2
3_TS736THF
10
0.0
20
0.0
30
0.0
0
ATTRIB
5
268
330
109
100
AcDbEntity
8
A-FURN-P-PNLS-42-T
100
AcDbText
10
0.0
20
0.0
30
0.0
40
0.001
1
TS736THF
100
AcDbAttribute
2
CAPPN
70
1
0
ATTRIB
5
269
330
109
100
AcDbEntity
8
A-FURN-P-PNLS-42-T
100
AcDbText
10
0.0
20
0.0
30
0.0
40
0.001
1
Base horizontal frame package 36"W - Thin (2 bars, top cap, base trims)
100
AcDbAttribute
2
CAPPD
70
1
0
ATTRIB
5
26A
330
109
100
AcDbEntity
8
A-FURN-P-PNLS-42-T
100
AcDbText
10
0.0
20
0.0
30
0.0
40
0.001
1
STC
100
AcDbAttribute
2
CAPMG
70
1
0
ATTRIB
5
26B
330
109
100
AcDbEntity
8
A-FURN-P-PNLS-42-T
100
AcDbText
10
0.0
20
0.0
30
0.0
40
0.001
1
TSA
100
AcDbAttribute
2
CAPMC
70
1
0
ATTRIB
5
26C
330
109
100
AcDbEntity
8
A-FURN-P-PNLS-42-T
100
AcDbText
10
0.0
20
0.0
30
0.0
40
0.001
1

100
AcDbAttribute
2
CAPGC
70
1
0
ATTRIB
5
26D
330
109
100
AcDbEntity
8
A-FURN-P-PNLS-42-T
100
AcDbText
10
0.0
20
0.0
30
0.0
40
0.001
1

100
AcDbAttribute
2
CAPALIAS1
70
1
0
ATTRIB
5
26E
330
109
100
AcDbEntity
8
A-FURN-P-PNLS-42-T
100
AcDbText
10
0.0
20
0.0
30
0.0
40
0.001
1

100
AcDbAttribute
2
CAPALIAS2
70
1
0
ATTRIB
5
26F
330
109
100
AcDbEntity
8
A-FURN-P-PNLS-42-T
100
AcDbText
10
0.0
20
0.0
30
0.0
40
0.001
1

100
AcDbAttribute
2
CAPALIAS3
70
1
0
ATTRIB
5
270
330
109
100
AcDbEntity
8
A-FURN-P-PNLS-42-T
100
AcDbText
10
0.0
20
0.0
30
0.0
40
0.001
1

100
AcDbAttribute
2
CAPBLDG
70
1
0
ATTRIB
5
271
330
109
100
AcDbEntity
8
A-FURN-P-PNLS-42-T
100
AcDbText
10
0.0
20
0.0
30
0.0
40
0.001
1

100
AcDbAttribute
2
CAPFLOOR
70
1
0
ATTRIB
5
272
330
109
100
AcDbEntity
8
A-FURN-P-PNLS-42-T
100
AcDbText
10
0.0
20
0.0
30
0.0
40
0.001
1

100
AcDbAttribute
2
CAPDEPT
70
1
0
ATTRIB
5
273
330
109
100
AcDbEntity
8
A-FURN-P-PNLS-42-T
100
AcDbText
10
0.0
20
0.0
30
0.0
40
0.001
1

100
AcDbAttribute
2
CAPPERSON
70
1
0
ATTRIB
5
274
330
109
100
AcDbEntity
8
A-FURN-P-PNLS-42-T
100
AcDbText
10
0.0
20
0.0
30
0.0
40
0.001
1
89.0000
100
AcDbAttribute
2
CAPPL
70
1
0
ATTRIB
5
275
330
109
100
AcDbEntity
8
A-FURN-P-PNLS-42-T
100
AcDbText
10
18.0
20
-5.5
30
0.0
40
3.0
1
36/42
7
MONOTXT
72
1
11
18.0
21
-5.5
31
0.0
100
AcDbAttribute
2
CAPTG
70
0
0
ATTRIB
5
276
330
109
100
AcDbEntity
8
A-FURN-P-PNLS-42-T
100
AcDbText
10
0.0
20
0.0
30
0.0
40
0.001
1
1
100
AcDbAttribute
2
CAPQT
70
1
0
ATTRIB
5
277
330
109
100
AcDbEntity
8
A-FURN-P-PNLS-42-T
100
AcDbText
10
0.0
20
0.0
30
0.0
40
0.001
1
0
100
AcDbAttribute
2
CAPDH
70
1
0
SEQEND
5
278
330
267
100
AcDbEntity
8
A-FURN
0
INSERT
5
279
330
109
100
AcDbEntity
8
A-FURN
100
AcDbBlockReference
66
1
2
3_TS73636TK
10
36.0
20
0.0
30
3.75
50
180.0
0
ATTRIB
5
27A
330
109
100
AcDbEntity
8
A-FURN-POINT-PART-T
100
AcDbText
10
36.0
20
0.0
30
0.0
40
0.001
1
TS73636TK
100
AcDbAttribute
2
CAPPN
70
1
0
ATTRIB
5
27B
330
109
100
AcDbEntity
8
A-FURN-POINT-PART-T
100
AcDbText
10
36.0
20
0.0
30
0.0
40
0.001
1
Tackable acoustical skin 36"W x 36"H - side 1
100
AcDbAttribute
2
CAPPD
70
1
0
ATTRIB
5
27C
330
109
100
AcDbEntity
8
A-FURN-POINT-PART-T
100
AcDbText
10
36.0
20
0.0
30
0.0
40
0.001
1
STC
100
AcDbAttribute
2
CAPMG
70
1
0
ATTRIB
5
27D
330
109
100
AcDbEntity
8
A-FURN-POINT-PART-T
100
AcDbText
10
36.0
20
0.0
30
0.0
40
0.001
1
TSA
100
AcDbAttribute
2
CAPMC
70
1
0
ATTRIB
5
27E
330
109
100
AcDbEntity
8
A-FURN-POINT-PART-T
100
AcDbText
10
36.0
20
0.0
30
0.0
40
0.001
1

100
AcDbAttribute
2
CAPGC
70
1
0
ATTRIB
5
27F
330
109
100
AcDbEntity
8
A-FURN-POINT-PART-T
100
AcDbText
10
36.0
20
0.0
30
0.0
40
0.001
1

100
AcDbAttribute
2
CAPALIAS1
70
1
0
ATTRIB
5
280
330
109
100
AcDbEntity
8
A-FURN-POINT-PART-T
100
AcDbText
10
36.0
20
0.0
30
0.0
40
0.001
1

100
AcDbAttribute
2
CAPALIAS2
70
1
0
ATTRIB
5
281
330
109
100
AcDbEntity
8
A-FURN-POINT-PART-T
100
AcDbText
10
36.0
20
0.0
30
0.0
40
0.001
1

100
AcDbAttribute
2
CAPALIAS3
70
1
0
ATTRIB
5
282
330
109
100
AcDbEntity
8
A-FURN-POINT-PART-T
100
AcDbText
10
36.0
20
0.0
30
0.0
40
0.001
1

100
AcDbAttribute
2
CAPBLDG
70
1
0
ATTRIB
5
283
330
109
100
AcDbEntity
8
A-FURN-POINT-PART-T
100
AcDbText
10
36.0
20
0.0
30
0.0
40
0.001
1

100
AcDbAttribute
2
CAPFLOOR
70
1
0
ATTRIB
5
284
330
109
100
AcDbEntity
8
A-FURN-POINT-PART-T
100
AcDbText
10
36.0
20
0.0
30
0.0
40
0.001
1

100
AcDbAttribute
2
CAPDEPT
70
1
0
ATTRIB
5
285
330
109
100
AcDbEntity
8
A-FURN-POINT-PART-T
100
AcDbText
10
36.0
20
0.0
30
0.0
40
0.001
1

100
AcDbAttribute
2
CAPPERSON
70
1
0
ATTRIB
5
286
330
109
100
AcDbEntity
8
A-FURN-POINT-PART-T
100
AcDbText
10
36.0
20
0.0
30
0.0
40
0.001
1
177.0000
100
AcDbAttribute
2
CAPPL
70
1
0
ATTRIB
5
287
330
109
100
AcDbEntity
8
A-FURN-POINT-PART-T
100
AcDbText
10
36.0
20
0.0
30
0.0
40
0.001
1

100
AcDbAttribute
2
CAPTG
70
1
0
ATTRIB
5
288
330
109
100
AcDbEntity
8
A-FURN-POINT-PART-T
100
AcDbText
10
36.0
20
0.0
30
0.0
40
0.001
1
1
100
AcDbAttribute
2
CAPQT
70
1
0
ATTRIB
5
289
330
109
100
AcDbEntity
8
A-FURN-POINT-PART-T
100
AcDbText
10
36.0
20
0.0
30
0.0
40
0.001
1
3.75
100
AcDbAttribute
2
CAPDH
70
1
0
SEQEND
5
28A
330
279
100
AcDbEntity
8
A-FURN
0
INSERT
5
28B
330
109
100
AcDbEntity
8
A-FURN
100
AcDbBlockReference
66
1
2
3_TS73636TK
10
0.0
20
3.0
30
3.75
0
ATTRIB
5
28C
330
109
100
AcDbEntity
8
A-FURN-POINT-PART-T
100
AcDbText
10
0.0
20
3.0
30
0.0
40
0.001
1
TS73636TK
100
AcDbAttribute
2
CAPPN
70
1
0
ATTRIB
5
28D
330
109
100
AcDbEntity
8
A-FURN-POINT-PART-T
100
AcDbText
10
0.0
20
3.0
30
0.0
40
0.001
1
Tackable acoustical skin 36"W x 36"H - side 2
100
AcDbAttribute
2
CAPPD
70
1
0
ATTRIB
5
28E
330
109
100
AcDbEntity
8
A-FURN-POINT-PART-T
100
AcDbText
10
0.0
20
3.0
30
0.0
40
0.001
1
STC
100
AcDbAttribute
2
CAPMG
70
1
0
ATTRIB
5
28F
330
109
100
AcDbEntity
8
A-FURN-POINT-PART-T
100
AcDbText
10
0.0
20
3.0
30
0.0
40
0.001
1
TSA
100
AcDbAttribute
2
CAPMC
70
1
0
ATTRIB
5
290
330
109
100
AcDbEntity
8
A-FURN-POINT-PART-T
100
AcDbText
10
0.0
20
3.0
30
0.0
40
0.001
1

100
AcDbAttribute
2
CAPGC
70
1
0
ATTRIB
5
291
330
109
100
AcDbEntity
8
A-FURN-POINT-PART-T
100
AcDbText
10
0.0
20
3.0
30
0.0
40
0.001
1

100
AcDbAttribute
2
CAPALIAS1
70
1
0
ATTRIB
5
292
330
109
100
AcDbEntity
8
A-FURN-POINT-PART-T
100
AcDbText
10
0.0
20
3.0
30
0.0
40
0.001
1

100
AcDbAttribute
2
CAPALIAS2
70
1
0
ATTRIB
5
293
330
109
100
AcDbEntity
8
A-FURN-POINT-PART-T
100
AcDbText
10
0.0
20
3.0
30
0.0
40
0.001
1

100
AcDbAttribute
2
CAPALIAS3
70
1
0
ATTRIB
5
294
330
109
100
AcDbEntity
8
A-FURN-POINT-PART-T
100
AcDbText
10
0.0
20
3.0
30
0.0
40
0.001
1

100
AcDbAttribute
2
CAPBLDG
70
1
0
ATTRIB
5
295
330
109
100
AcDbEntity
8
A-FURN-POINT-PART-T
100
AcDbText
10
0.0
20
3.0
30
0.0
40
0.001
1

100
AcDbAttribute
2
CAPFLOOR
70
1
0
ATTRIB
5
296
330
109
100
AcDbEntity
8
A-FURN-POINT-PART-T
100
AcDbText
10
0.0
20
3.0
30
0.0
40
0.001
1

100
AcDbAttribute
2
CAPDEPT
70
1
0
ATTRIB
5
297
330
109
100
AcDbEntity
8
A-FURN-POINT-PART-T
100
AcDbText
10
0.0
20
3.0
30
0.0
40
0.001
1

100
AcDbAttribute
2
CAPPERSON
70
1
0
ATTRIB
5
298
330
109
100
AcDbEntity
8
A-FURN-POINT-PART-T
100
AcDbText
10
0.0
20
3.0
30
0.0
40
0.001
1
177.0000
100
AcDbAttribute
2
CAPPL
70
1
0
ATTRIB
5
299
330
109
100
AcDbEntity
8
A-FURN-POINT-PART-T
100
AcDbText
10
0.0
20
3.0
30
0.0
40
0.001
1

100
AcDbAttribute
2
CAPTG
70
1
0
ATTRIB
5
29A
330
109
100
AcDbEntity
8
A-FURN-POINT-PART-T
100
AcDbText
10
0.0
20
3.0
30
0.0
40
0.001
1
1
100
AcDbAttribute
2
CAPQT
70
1
0
ATTRIB
5
29B
330
109
100
AcDbEntity
8
A-FURN-POINT-PART-T
100
AcDbText
10
0.0
20
3.0
30
0.0
40
0.001
1
3.75
100
AcDbAttribute
2
CAPDH
70
1
0
SEQEND
5
29C
330
28B
100
AcDbEntity
8
A-FURN
0
INSERT
5
29D
330
109
100
AcDbEntity
8
A-FURN
100
AcDbBlockReference
66
1
2
3_TS71236TFGR
10
0.0
20
0.0
30
38.375
0
ATTRIB
5
29E
330
109
100
AcDbEntity
8
A-FURN-POINT-PART-T
100
AcDbText
10
0.0
20
0.0
30
0.0
40
0.001
1
TS71236TFGR
100
AcDbAttribute
2
CAPPN
70
1
0
ATTRIB
5
29F
330
109
100
AcDbEntity
8
A-FURN-POINT-PART-T
100
AcDbText
10
0.0
20
0.0
30
0.0
40
0.001
1
Frameless glass screen, recessed attachment 36"W x 12"H - Thin
100
AcDbAttribute
2
CAPPD
70
1
0
ATTRIB
5
2A0
330
109
100
AcDbEntity
8
A-FURN-POINT-PART-T
100
AcDbText
10
0.0
20
0.0
30
0.0
40
0.001
1
STC
100
AcDbAttribute
2
CAPMG
70
1
0
ATTRIB
5
2A1
330
109
100
AcDbEntity
8
A-FURN-POINT-PART-T
100
AcDbText
10
0.0
20
0.0
30
0.0
40
0.001
1
TSA
100
AcDbAttribute
2
CAPMC
70
1
0
ATTRIB
5
2A2
330
109
100
AcDbEntity
8
A-FURN-POINT-PART-T
100
AcDbText
10
0.0
20
0.0
30
0.0
40
0.001
1

100
AcDbAttribute
2
CAPGC
70
1
0
ATTRIB
5
2A3
330
109
100
AcDbEntity
8
A-FURN-POINT-PART-T
100
AcDbText
10
0.0
20
0.0
30
0.0
40
0.001
1

100
AcDbAttribute
2
CAPALIAS1
70
1
0
ATTRIB
5
2A4
330
109
100
AcDbEntity
8
A-FURN-POINT-PART-T
100
AcDbText
10
0.0
20
0.0
30
0.0
40
0.001
1

100
AcDbAttribute
2
CAPALIAS2
70
1
0
ATTRIB
5
2A5
330
109
100
AcDbEntity
8
A-FURN-POINT-PART-T
100
AcDbText
10
0.0
20
0.0
30
0.0
40
0.001
1

100
AcDbAttribute
2
CAPALIAS3
70
1
0
ATTRIB
5
2A6
330
109
100
AcDbEntity
8
A-FURN-POINT-PART-T
100
AcDbText
10
0.0
20
0.0
30
0.0
40
0.001
1

100
AcDbAttribute
2
CAPBLDG
70
1
0
ATTRIB
5
2A7
330
109
100
AcDbEntity
8
A-FURN-POINT-PART-T
100
AcDbText
10
0.0
20
0.0
30
0.0
40
0.001
1

100
AcDbAttribute
2
CAPFLOOR
70
1
0
ATTRIB
5
2A8
330
109
100
AcDbEntity
8
A-FURN-POINT-PART-T
100
AcDbText
10
0.0
20
0.0
30
0.0
40
0.001
1

100
AcDbAttribute
2
CAPDEPT
70
1
0
ATTRIB
5
2A9
330
109
100
AcDbEntity
8
A-FURN-POINT-PART-T
100
AcDbText
10
0.0
20
0.0
30
0.0
40
0.001
1

100
AcDbAttribute
2
CAPPERSON
70
1
0
ATTRIB
5
2AA
330
109
100
AcDbEntity
8
A-FURN-POINT-PART-T
100
AcDbText
10
0.0
20
0.0
30
0.0
40
0.001
1
466.0000
100
AcDbAttribute
2
CAPPL
70
1
0
ATTRIB
5
2AB
330
109
100
AcDbEntity
8
A-FURN-POINT-PART-T
100
AcDbText
10
0.0
20
0.0
30
0.0
40
0.001
1

100
AcDbAttribute
2
CAPTG
70
1
0
ATTRIB
5
2AC
330
109
100
AcDbEntity
8
A-FURN-POINT-PART-T
100
AcDbText
10
0.0
20
0.0
30
0.0
40
0.001
1
1
100
AcDbAttribute
2
CAPQT
70
1
0
ATTRIB
5
2AD
330
109
100
AcDbEntity
8
A-FURN-POINT-PART-T
100
AcDbText
10
0.0
20
0.0
30
0.0
40
0.001
1
38.375
100
AcDbAttribute
2
CAPDH
70
1
0
SEQEND
5
2AE
330
29D
100
AcDbEntity
8
A-FURN
0
INSERT
5
2AF
330
109
100
AcDbEntity
8
A-FURN
100
AcDbBlockReference
66
1
2
3_TS7TFGRC
10
28.8
20
1.5
30
0.0
0
ATTRIB
5
2B0
330
109
100
AcDbEntity
8
A-FURN-POINT-PART-T
100
AcDbText
10
28.8
20
1.5
30
0.0
40
0.001
1
TS7TFGRC
100
AcDbAttribute
2
CAPPN
70
1
0
ATTRIB
5
2B1
330
109
100
AcDbEntity
8
A-FURN-POINT-PART-T
100
AcDbText
10
28.8
20
1.5
30
0.0
40
0.001
1
Recessed frameless glass top cap connector (corner junction cap above the glass top caps, p386)
100
AcDbAttribute
2
CAPPD
70
1
0
ATTRIB
5
2B2
330
109
100
AcDbEntity
8
A-FURN-POINT-PART-T
100
AcDbText
10
28.8
20
1.5
30
0.0
40
0.001
1
STC
100
AcDbAttribute
2
CAPMG
70
1
0
ATTRIB
5
2B3
330
109
100
AcDbEntity
8
A-FURN-POINT-PART-T
100
AcDbText
10
28.8
20
1.5
30
0.0
40
0.001
1
TSA
100
AcDbAttribute
2
CAPMC
70
1
0
ATTRIB
5
2B4
330
109
100
AcDbEntity
8
A-FURN-POINT-PART-T
100
AcDbText
10
28.8
20
1.5
30
0.0
40
0.001
1

100
AcDbAttribute
2
CAPGC
70
1
0
ATTRIB
5
2B5
330
109
100
AcDbEntity
8
A-FURN-POINT-PART-T
100
AcDbText
10
28.8
20
1.5
30
0.0
40
0.001
1

100
AcDbAttribute
2
CAPALIAS1
70
1
0
ATTRIB
5
2B6
330
109
100
AcDbEntity
8
A-FURN-POINT-PART-T
100
AcDbText
10
28.8
20
1.5
30
0.0
40
0.001
1

100
AcDbAttribute
2
CAPALIAS2
70
1
0
ATTRIB
5
2B7
330
109
100
AcDbEntity
8
A-FURN-POINT-PART-T
100
AcDbText
10
28.8
20
1.5
30
0.0
40
0.001
1

100
AcDbAttribute
2
CAPALIAS3
70
1
0
ATTRIB
5
2B8
330
109
100
AcDbEntity
8
A-FURN-POINT-PART-T
100
AcDbText
10
28.8
20
1.5
30
0.0
40
0.001
1

100
AcDbAttribute
2
CAPBLDG
70
1
0
ATTRIB
5
2B9
330
109
100
AcDbEntity
8
A-FURN-POINT-PART-T
100
AcDbText
10
28.8
20
1.5
30
0.0
40
0.001
1

100
AcDbAttribute
2
CAPFLOOR
70
1
0
ATTRIB
5
2BA
330
109
100
AcDbEntity
8
A-FURN-POINT-PART-T
100
AcDbText
10
28.8
20
1.5
30
0.0
40
0.001
1

100
AcDbAttribute
2
CAPDEPT
70
1
0
ATTRIB
5
2BB
330
109
100
AcDbEntity
8
A-FURN-POINT-PART-T
100
AcDbText
10
28.8
20
1.5
30
0.0
40
0.001
1

100
AcDbAttribute
2
CAPPERSON
70
1
0
ATTRIB
5
2BC
330
109
100
AcDbEntity
8
A-FURN-POINT-PART-T
100
AcDbText
10
28.8
20
1.5
30
0.0
40
0.001
1
16.0000
100
AcDbAttribute
2
CAPPL
70
1
0
ATTRIB
5
2BD
330
109
100
AcDbEntity
8
A-FURN-POINT-PART-T
100
AcDbText
10
28.8
20
1.5
30
0.0
40
0.001
1

100
AcDbAttribute
2
CAPTG
70
1
0
ATTRIB
5
2BE
330
109
100
AcDbEntity
8
A-FURN-POINT-PART-T
100
AcDbText
10
28.8
20
1.5
30
0.0
40
0.001
1
1
100
AcDbAttribute
2
CAPQT
70
1
0
ATTRIB
5
2BF
330
109
100
AcDbEntity
8
A-FURN-POINT-PART-T
100
AcDbText
10
28.8
20
1.5
30
0.0
40
0.001
1
0
100
AcDbAttribute
2
CAPDH
70
1
0
SEQEND
5
2C0
330
2AF
100
AcDbEntity
8
A-FURN
0
ATTDEF
5
2C1
330
109
100
AcDbEntity
8
A-FURN-PNLS-BUILDUP-T
100
AcDbText
10
18.0
20
4.5
30
0.0
40
3.0
1

7
Standard
72
1
11
18.0
21
4.5
31
0.0
100
AcDbAttributeDefinition
3

2
CAPSTD
70
0
0
ATTDEF
5
2C2
330
109
100
AcDbEntity
8
A-FURN-PNLS-BUILDUP-T
100
AcDbText
10
0.0
20
0.0
30
0.0
40
0.001
1

100
AcDbAttributeDefinition
3

2
CAPSTDTITLE
70
1
0
ATTDEF
5
2C3
330
109
100
AcDbEntity
8
A-FURN-PNLS-BUILDUP-T
100
AcDbText
10
0.0
20
0.0
30
0.0
40
0.001
1

100
AcDbAttributeDefinition
3

2
CAPPANELCAT
70
1
0
ATTDEF
5
2C4
330
109
100
AcDbEntity
8
A-FURN-PNLS-BUILDUP-T
100
AcDbText
10
0.0
20
0.0
30
0.0
40
0.001
1

100
AcDbAttributeDefinition
3

2
CAPPANELNAME
70
1
0
ATTDEF
5
2C5
330
109
100
AcDbEntity
8
A-FURN-PNLS-BUILDUP-T
100
AcDbText
10
0.0
20
0.0
30
0.0
40
0.001
1

100
AcDbAttributeDefinition
3

2
CAPPANELCONFIG
70
1
0
ATTDEF
5
2C6
330
109
100
AcDbEntity
8
A-FURN-PNLS-BUILDUP-T
100
AcDbText
10
0.0
20
0.0
30
0.0
40
0.001
1

100
AcDbAttributeDefinition
3

2
CAPPANELWIDTH
70
1
0
ATTDEF
5
2C7
330
109
100
AcDbEntity
8
A-FURN-PNLS-BUILDUP-T
100
AcDbText
10
0.0
20
0.0
30
0.0
40
0.001
1

100
AcDbAttributeDefinition
3

2
CAPPANELHEIGHT
70
1
0
ATTDEF
5
2C8
330
109
100
AcDbEntity
8
A-FURN-PNLS-BUILDUP-T
100
AcDbText
10
0.0
20
0.0
30
0.0
40
0.001
1

100
AcDbAttributeDefinition
3

2
CAPALIAS1
70
1
0
ATTDEF
5
2C9
330
109
100
AcDbEntity
8
A-FURN-PNLS-BUILDUP-T
100
AcDbText
10
0.0
20
0.0
30
0.0
40
0.001
1

100
AcDbAttributeDefinition
3

2
CAPALIAS2
70
1
0
ATTDEF
5
2CA
330
109
100
AcDbEntity
8
A-FURN-PNLS-BUILDUP-T
100
AcDbText
10
0.0
20
0.0
30
0.0
40
0.001
1

100
AcDbAttributeDefinition
3

2
CAPALIAS3
70
1
0
ENDBLK
5
2CB
330
109
100
AcDbEntity
8
0
100
AcDbBlockEnd
0
BLOCK
5
2CC
330
10A
100
AcDbEntity
8
0
100
AcDbBlockBegin
2
P_TS736THF_2
70
2
10
0.0
20
0.0
30
0.0
3
P_TS736THF_2
1

0
POLYLINE
5
2CD
330
10A
100
AcDbEntity
8
A-FURN-P-PNLS-54
100
AcDb2dPolyline
66
1
10
0.0
20
0.0
30
0.0
70
1
0
VERTEX
5
2CE
330
10A
100
AcDbEntity
8
A-FURN-P-PNLS-54
100
AcDbVertex
100
AcDb2dVertex
10
0.0
20
0.0
30
0.0
70
0
0
VERTEX
5
2CF
330
10A
100
AcDbEntity
8
A-FURN-P-PNLS-54
100
AcDbVertex
100
AcDb2dVertex
10
36.0
20
0.0
30
0.0
70
0
0
VERTEX
5
2D0
330
10A
100
AcDbEntity
8
A-FURN-P-PNLS-54
100
AcDbVertex
100
AcDb2dVertex
10
36.0
20
3.0
30
0.0
70
0
0
VERTEX
5
2D1
330
10A
100
AcDbEntity
8
A-FURN-P-PNLS-54
100
AcDbVertex
100
AcDb2dVertex
10
0.0
20
3.0
30
0.0
70
0
0
SEQEND
5
2D2
330
2CD
100
AcDbEntity
8
A-FURN-P-PNLS-54
0
POINT
5
2D3
330
10A
100
AcDbEntity
8
A-FURN-P-PNLS-54
100
AcDbPoint
10
0.0
20
3.0
30
0.0
0
POINT
5
2D4
330
10A
100
AcDbEntity
8
A-FURN-P-PNLS-54
100
AcDbPoint
10
36.0
20
3.0
30
0.0
0
POINT
5
2D5
330
10A
100
AcDbEntity
8
A-FURN-P-PNLS-54
100
AcDbPoint
10
36.0
20
0.0
30
0.0
0
POINT
5
2D6
330
10A
100
AcDbEntity
8
A-FURN-P-PNLS-54
100
AcDbPoint
10
0.0
20
0.0
30
0.0
0
ATTDEF
5
2D7
330
10A
100
AcDbEntity
8
A-FURN-P-PNLS-54-T
100
AcDbText
10
0.0
20
0.0
30
0.0
40
0.001
1

100
AcDbAttributeDefinition
3

2
CAPPN
70
1
0
ATTDEF
5
2D8
330
10A
100
AcDbEntity
8
A-FURN-P-PNLS-54-T
100
AcDbText
10
0.0
20
0.0
30
0.0
40
0.001
1

100
AcDbAttributeDefinition
3

2
CAPPD
70
1
0
ATTDEF
5
2D9
330
10A
100
AcDbEntity
8
A-FURN-P-PNLS-54-T
100
AcDbText
10
0.0
20
0.0
30
0.0
40
0.001
1

100
AcDbAttributeDefinition
3

2
CAPMG
70
1
0
ATTDEF
5
2DA
330
10A
100
AcDbEntity
8
A-FURN-P-PNLS-54-T
100
AcDbText
10
0.0
20
0.0
30
0.0
40
0.001
1

100
AcDbAttributeDefinition
3

2
CAPMC
70
1
0
ATTDEF
5
2DB
330
10A
100
AcDbEntity
8
A-FURN-P-PNLS-54-T
100
AcDbText
10
0.0
20
0.0
30
0.0
40
0.001
1

100
AcDbAttributeDefinition
3

2
CAPGC
70
1
0
ATTDEF
5
2DC
330
10A
100
AcDbEntity
8
A-FURN-P-PNLS-54-T
100
AcDbText
10
0.0
20
0.0
30
0.0
40
0.001
1

100
AcDbAttributeDefinition
3

2
CAPALIAS1
70
1
0
ATTDEF
5
2DD
330
10A
100
AcDbEntity
8
A-FURN-P-PNLS-54-T
100
AcDbText
10
0.0
20
0.0
30
0.0
40
0.001
1

100
AcDbAttributeDefinition
3

2
CAPALIAS2
70
1
0
ATTDEF
5
2DE
330
10A
100
AcDbEntity
8
A-FURN-P-PNLS-54-T
100
AcDbText
10
0.0
20
0.0
30
0.0
40
0.001
1

100
AcDbAttributeDefinition
3

2
CAPALIAS3
70
1
0
ATTDEF
5
2DF
330
10A
100
AcDbEntity
8
A-FURN-P-PNLS-54-T
100
AcDbText
10
0.0
20
0.0
30
0.0
40
0.001
1

100
AcDbAttributeDefinition
3

2
CAPBLDG
70
1
0
ATTDEF
5
2E0
330
10A
100
AcDbEntity
8
A-FURN-P-PNLS-54-T
100
AcDbText
10
0.0
20
0.0
30
0.0
40
0.001
1

100
AcDbAttributeDefinition
3

2
CAPFLOOR
70
1
0
ATTDEF
5
2E1
330
10A
100
AcDbEntity
8
A-FURN-P-PNLS-54-T
100
AcDbText
10
0.0
20
0.0
30
0.0
40
0.001
1

100
AcDbAttributeDefinition
3

2
CAPDEPT
70
1
0
ATTDEF
5
2E2
330
10A
100
AcDbEntity
8
A-FURN-P-PNLS-54-T
100
AcDbText
10
0.0
20
0.0
30
0.0
40
0.001
1

100
AcDbAttributeDefinition
3

2
CAPPERSON
70
1
0
ATTDEF
5
2E3
330
10A
100
AcDbEntity
8
A-FURN-P-PNLS-54-T
100
AcDbText
10
0.0
20
0.0
30
0.0
40
0.001
1

100
AcDbAttributeDefinition
3

2
CAPPL
70
1
0
ATTDEF
5
2E4
330
10A
100
AcDbEntity
8
A-FURN-P-PNLS-54-T
100
AcDbText
10
18.0
20
-5.5
30
0.0
40
3.0
1

7
MONOTXT
72
1
11
18.0
21
-5.5
31
0.0
100
AcDbAttributeDefinition
3

2
CAPTG
70
0
0
ATTDEF
5
2E5
330
10A
100
AcDbEntity
8
A-FURN-P-PNLS-54-T
100
AcDbText
10
0.0
20
0.0
30
0.0
40
0.001
1

100
AcDbAttributeDefinition
3

2
CAPQT
70
1
0
ATTDEF
5
2E6
330
10A
100
AcDbEntity
8
A-FURN-P-PNLS-54-T
100
AcDbText
10
0.0
20
0.0
30
0.0
40
0.001
1

100
AcDbAttributeDefinition
3

2
CAPDH
70
1
0
ENDBLK
5
2E7
330
10A
100
AcDbEntity
8
0
100
AcDbBlockEnd
0
BLOCK
5
2E8
330
10B
100
AcDbEntity
8
0
100
AcDbBlockBegin
2
3_TS736THF_2
70
2
10
0.0
20
0.0
30
0.0
3
3_TS736THF_2
1

0
POLYLINE
5
2E9
330
10B
100
AcDbEntity
8
AFUPA-3D-004
100
AcDbPolyFaceMesh
66
1
10
0.0
20
0.0
30
0.0
70
64
71
8
72
6
0
VERTEX
5
2EA
330
2E9
100
AcDbEntity
8
AFUPA-3D-004
100
AcDbVertex
100
AcDbPolyFaceMeshVertex
10
0.0
20
0.0
30
0.0
70
192
0
VERTEX
5
2EB
330
2E9
100
AcDbEntity
8
AFUPA-3D-004
100
AcDbVertex
100
AcDbPolyFaceMeshVertex
10
36.0
20
0.0
30
0.0
70
192
0
VERTEX
5
2EC
330
2E9
100
AcDbEntity
8
AFUPA-3D-004
100
AcDbVertex
100
AcDbPolyFaceMeshVertex
10
36.0
20
3.0
30
0.0
70
192
0
VERTEX
5
2ED
330
2E9
100
AcDbEntity
8
AFUPA-3D-004
100
AcDbVertex
100
AcDbPolyFaceMeshVertex
10
0.0
20
3.0
30
0.0
70
192
0
VERTEX
5
2EE
330
2E9
100
AcDbEntity
8
AFUPA-3D-004
100
AcDbVertex
100
AcDbPolyFaceMeshVertex
10
0.0
20
0.0
30
3.75
70
192
0
VERTEX
5
2EF
330
2E9
100
AcDbEntity
8
AFUPA-3D-004
100
AcDbVertex
100
AcDbPolyFaceMeshVertex
10
36.0
20
0.0
30
3.75
70
192
0
VERTEX
5
2F0
330
2E9
100
AcDbEntity
8
AFUPA-3D-004
100
AcDbVertex
100
AcDbPolyFaceMeshVertex
10
36.0
20
3.0
30
3.75
70
192
0
VERTEX
5
2F1
330
2E9
100
AcDbEntity
8
AFUPA-3D-004
100
AcDbVertex
100
AcDbPolyFaceMeshVertex
10
0.0
20
3.0
30
3.75
70
192
0
VERTEX
5
2F2
330
2E9
100
AcDbEntity
8
AFUPA-3D-004
100
AcDbFaceRecord
10
0.0
20
0.0
30
0.0
70
128
71
1
72
4
73
3
74
2
0
VERTEX
5
2F3
330
2E9
100
AcDbEntity
8
AFUPA-3D-004
100
AcDbFaceRecord
10
0.0
20
0.0
30
0.0
70
128
71
5
72
6
73
7
74
8
0
VERTEX
5
2F4
330
2E9
100
AcDbEntity
8
AFUPA-3D-004
100
AcDbFaceRecord
10
0.0
20
0.0
30
0.0
70
128
71
1
72
2
73
6
74
5
0
VERTEX
5
2F5
330
2E9
100
AcDbEntity
8
AFUPA-3D-004
100
AcDbFaceRecord
10
0.0
20
0.0
30
0.0
70
128
71
2
72
3
73
7
74
6
0
VERTEX
5
2F6
330
2E9
100
AcDbEntity
8
AFUPA-3D-004
100
AcDbFaceRecord
10
0.0
20
0.0
30
0.0
70
128
71
3
72
4
73
8
74
7
0
VERTEX
5
2F7
330
2E9
100
AcDbEntity
8
AFUPA-3D-004
100
AcDbFaceRecord
10
0.0
20
0.0
30
0.0
70
128
71
4
72
1
73
5
74
8
0
SEQEND
5
2F8
330
2E9
100
AcDbEntity
8
AFUPA-3D-004
0
POLYLINE
5
2F9
330
10B
100
AcDbEntity
8
AFUPA-3D-004
100
AcDbPolyFaceMesh
66
1
10
0.0
20
0.0
30
0.0
70
64
71
8
72
6
0
VERTEX
5
2FA
330
2F9
100
AcDbEntity
8
AFUPA-3D-004
100
AcDbVertex
100
AcDbPolyFaceMeshVertex
10
0.0
20
0.0
30
53.625
70
192
0
VERTEX
5
2FB
330
2F9
100
AcDbEntity
8
AFUPA-3D-004
100
AcDbVertex
100
AcDbPolyFaceMeshVertex
10
36.0
20
0.0
30
53.625
70
192
0
VERTEX
5
2FC
330
2F9
100
AcDbEntity
8
AFUPA-3D-004
100
AcDbVertex
100
AcDbPolyFaceMeshVertex
10
36.0
20
3.0
30
53.625
70
192
0
VERTEX
5
2FD
330
2F9
100
AcDbEntity
8
AFUPA-3D-004
100
AcDbVertex
100
AcDbPolyFaceMeshVertex
10
0.0
20
3.0
30
53.625
70
192
0
VERTEX
5
2FE
330
2F9
100
AcDbEntity
8
AFUPA-3D-004
100
AcDbVertex
100
AcDbPolyFaceMeshVertex
10
0.0
20
0.0
30
54.25
70
192
0
VERTEX
5
2FF
330
2F9
100
AcDbEntity
8
AFUPA-3D-004
100
AcDbVertex
100
AcDbPolyFaceMeshVertex
10
36.0
20
0.0
30
54.25
70
192
0
VERTEX
5
300
330
2F9
100
AcDbEntity
8
AFUPA-3D-004
100
AcDbVertex
100
AcDbPolyFaceMeshVertex
10
36.0
20
3.0
30
54.25
70
192
0
VERTEX
5
301
330
2F9
100
AcDbEntity
8
AFUPA-3D-004
100
AcDbVertex
100
AcDbPolyFaceMeshVertex
10
0.0
20
3.0
30
54.25
70
192
0
VERTEX
5
302
330
2F9
100
AcDbEntity
8
AFUPA-3D-004
100
AcDbFaceRecord
10
0.0
20
0.0
30
0.0
70
128
71
1
72
4
73
3
74
2
0
VERTEX
5
303
330
2F9
100
AcDbEntity
8
AFUPA-3D-004
100
AcDbFaceRecord
10
0.0
20
0.0
30
0.0
70
128
71
5
72
6
73
7
74
8
0
VERTEX
5
304
330
2F9
100
AcDbEntity
8
AFUPA-3D-004
100
AcDbFaceRecord
10
0.0
20
0.0
30
0.0
70
128
71
1
72
2
73
6
74
5
0
VERTEX
5
305
330
2F9
100
AcDbEntity
8
AFUPA-3D-004
100
AcDbFaceRecord
10
0.0
20
0.0
30
0.0
70
128
71
2
72
3
73
7
74
6
0
VERTEX
5
306
330
2F9
100
AcDbEntity
8
AFUPA-3D-004
100
AcDbFaceRecord
10
0.0
20
0.0
30
0.0
70
128
71
3
72
4
73
8
74
7
0
VERTEX
5
307
330
2F9
100
AcDbEntity
8
AFUPA-3D-004
100
AcDbFaceRecord
10
0.0
20
0.0
30
0.0
70
128
71
4
72
1
73
5
74
8
0
SEQEND
5
308
330
2F9
100
AcDbEntity
8
AFUPA-3D-004
0
ATTDEF
5
309
330
10B
100
AcDbEntity
8
A-FURN-P-PNLS-54-T
100
AcDbText
10
0.0
20
0.0
30
0.0
40
0.001
1

100
AcDbAttributeDefinition
3

2
CAPPN
70
1
0
ATTDEF
5
30A
330
10B
100
AcDbEntity
8
A-FURN-P-PNLS-54-T
100
AcDbText
10
0.0
20
0.0
30
0.0
40
0.001
1

100
AcDbAttributeDefinition
3

2
CAPPD
70
1
0
ATTDEF
5
30B
330
10B
100
AcDbEntity
8
A-FURN-P-PNLS-54-T
100
AcDbText
10
0.0
20
0.0
30
0.0
40
0.001
1

100
AcDbAttributeDefinition
3

2
CAPMG
70
1
0
ATTDEF
5
30C
330
10B
100
AcDbEntity
8
A-FURN-P-PNLS-54-T
100
AcDbText
10
0.0
20
0.0
30
0.0
40
0.001
1

100
AcDbAttributeDefinition
3

2
CAPMC
70
1
0
ATTDEF
5
30D
330
10B
100
AcDbEntity
8
A-FURN-P-PNLS-54-T
100
AcDbText
10
0.0
20
0.0
30
0.0
40
0.001
1

100
AcDbAttributeDefinition
3

2
CAPGC
70
1
0
ATTDEF
5
30E
330
10B
100
AcDbEntity
8
A-FURN-P-PNLS-54-T
100
AcDbText
10
0.0
20
0.0
30
0.0
40
0.001
1

100
AcDbAttributeDefinition
3

2
CAPALIAS1
70
1
0
ATTDEF
5
30F
330
10B
100
AcDbEntity
8
A-FURN-P-PNLS-54-T
100
AcDbText
10
0.0
20
0.0
30
0.0
40
0.001
1

100
AcDbAttributeDefinition
3

2
CAPALIAS2
70
1
0
ATTDEF
5
310
330
10B
100
AcDbEntity
8
A-FURN-P-PNLS-54-T
100
AcDbText
10
0.0
20
0.0
30
0.0
40
0.001
1

100
AcDbAttributeDefinition
3

2
CAPALIAS3
70
1
0
ATTDEF
5
311
330
10B
100
AcDbEntity
8
A-FURN-P-PNLS-54-T
100
AcDbText
10
0.0
20
0.0
30
0.0
40
0.001
1

100
AcDbAttributeDefinition
3

2
CAPBLDG
70
1
0
ATTDEF
5
312
330
10B
100
AcDbEntity
8
A-FURN-P-PNLS-54-T
100
AcDbText
10
0.0
20
0.0
30
0.0
40
0.001
1

100
AcDbAttributeDefinition
3

2
CAPFLOOR
70
1
0
ATTDEF
5
313
330
10B
100
AcDbEntity
8
A-FURN-P-PNLS-54-T
100
AcDbText
10
0.0
20
0.0
30
0.0
40
0.001
1

100
AcDbAttributeDefinition
3

2
CAPDEPT
70
1
0
ATTDEF
5
314
330
10B
100
AcDbEntity
8
A-FURN-P-PNLS-54-T
100
AcDbText
10
0.0
20
0.0
30
0.0
40
0.001
1

100
AcDbAttributeDefinition
3

2
CAPPERSON
70
1
0
ATTDEF
5
315
330
10B
100
AcDbEntity
8
A-FURN-P-PNLS-54-T
100
AcDbText
10
0.0
20
0.0
30
0.0
40
0.001
1

100
AcDbAttributeDefinition
3

2
CAPPL
70
1
0
ATTDEF
5
316
330
10B
100
AcDbEntity
8
A-FURN-P-PNLS-54-T
100
AcDbText
10
18.0
20
-5.5
30
0.0
40
3.0
1

7
MONOTXT
72
1
11
18.0
21
-5.5
31
0.0
100
AcDbAttributeDefinition
3

2
CAPTG
70
0
0
ATTDEF
5
317
330
10B
100
AcDbEntity
8
A-FURN-P-PNLS-54-T
100
AcDbText
10
0.0
20
0.0
30
0.0
40
0.001
1

100
AcDbAttributeDefinition
3

2
CAPQT
70
1
0
ATTDEF
5
318
330
10B
100
AcDbEntity
8
A-FURN-P-PNLS-54-T
100
AcDbText
10
0.0
20
0.0
30
0.0
40
0.001
1

100
AcDbAttributeDefinition
3

2
CAPDH
70
1
0
ENDBLK
5
319
330
10B
100
AcDbEntity
8
0
100
AcDbBlockEnd
0
BLOCK
5
31A
330
10D
100
AcDbEntity
8
0
100
AcDbBlockBegin
2
P_TS73636TK_2
70
2
10
0.0
20
0.0
30
0.0
3
P_TS73636TK_2
1

0
POINT
5
31B
330
10D
100
AcDbEntity
8
A-FURN-POINT-PART
100
AcDbPoint
10
0.0
20
0.0
30
0.0
0
ATTDEF
5
31C
330
10D
100
AcDbEntity
8
A-FURN-POINT-PART-T
100
AcDbText
10
0.0
20
0.0
30
0.0
40
0.001
1

100
AcDbAttributeDefinition
3

2
CAPPN
70
1
0
ATTDEF
5
31D
330
10D
100
AcDbEntity
8
A-FURN-POINT-PART-T
100
AcDbText
10
0.0
20
0.0
30
0.0
40
0.001
1

100
AcDbAttributeDefinition
3

2
CAPPD
70
1
0
ATTDEF
5
31E
330
10D
100
AcDbEntity
8
A-FURN-POINT-PART-T
100
AcDbText
10
0.0
20
0.0
30
0.0
40
0.001
1

100
AcDbAttributeDefinition
3

2
CAPMG
70
1
0
ATTDEF
5
31F
330
10D
100
AcDbEntity
8
A-FURN-POINT-PART-T
100
AcDbText
10
0.0
20
0.0
30
0.0
40
0.001
1

100
AcDbAttributeDefinition
3

2
CAPMC
70
1
0
ATTDEF
5
320
330
10D
100
AcDbEntity
8
A-FURN-POINT-PART-T
100
AcDbText
10
0.0
20
0.0
30
0.0
40
0.001
1

100
AcDbAttributeDefinition
3

2
CAPGC
70
1
0
ATTDEF
5
321
330
10D
100
AcDbEntity
8
A-FURN-POINT-PART-T
100
AcDbText
10
0.0
20
0.0
30
0.0
40
0.001
1

100
AcDbAttributeDefinition
3

2
CAPALIAS1
70
1
0
ATTDEF
5
322
330
10D
100
AcDbEntity
8
A-FURN-POINT-PART-T
100
AcDbText
10
0.0
20
0.0
30
0.0
40
0.001
1

100
AcDbAttributeDefinition
3

2
CAPALIAS2
70
1
0
ATTDEF
5
323
330
10D
100
AcDbEntity
8
A-FURN-POINT-PART-T
100
AcDbText
10
0.0
20
0.0
30
0.0
40
0.001
1

100
AcDbAttributeDefinition
3

2
CAPALIAS3
70
1
0
ATTDEF
5
324
330
10D
100
AcDbEntity
8
A-FURN-POINT-PART-T
100
AcDbText
10
0.0
20
0.0
30
0.0
40
0.001
1

100
AcDbAttributeDefinition
3

2
CAPBLDG
70
1
0
ATTDEF
5
325
330
10D
100
AcDbEntity
8
A-FURN-POINT-PART-T
100
AcDbText
10
0.0
20
0.0
30
0.0
40
0.001
1

100
AcDbAttributeDefinition
3

2
CAPFLOOR
70
1
0
ATTDEF
5
326
330
10D
100
AcDbEntity
8
A-FURN-POINT-PART-T
100
AcDbText
10
0.0
20
0.0
30
0.0
40
0.001
1

100
AcDbAttributeDefinition
3

2
CAPDEPT
70
1
0
ATTDEF
5
327
330
10D
100
AcDbEntity
8
A-FURN-POINT-PART-T
100
AcDbText
10
0.0
20
0.0
30
0.0
40
0.001
1

100
AcDbAttributeDefinition
3

2
CAPPERSON
70
1
0
ATTDEF
5
328
330
10D
100
AcDbEntity
8
A-FURN-POINT-PART-T
100
AcDbText
10
0.0
20
0.0
30
0.0
40
0.001
1

100
AcDbAttributeDefinition
3

2
CAPPL
70
1
0
ATTDEF
5
329
330
10D
100
AcDbEntity
8
A-FURN-POINT-PART-T
100
AcDbText
10
0.0
20
0.0
30
0.0
40
0.001
1

100
AcDbAttributeDefinition
3

2
CAPTG
70
1
0
ATTDEF
5
32A
330
10D
100
AcDbEntity
8
A-FURN-POINT-PART-T
100
AcDbText
10
0.0
20
0.0
30
0.0
40
0.001
1

100
AcDbAttributeDefinition
3

2
CAPQT
70
1
0
ATTDEF
5
32B
330
10D
100
AcDbEntity
8
A-FURN-POINT-PART-T
100
AcDbText
10
0.0
20
0.0
30
0.0
40
0.001
1

100
AcDbAttributeDefinition
3

2
CAPDH
70
1
0
ENDBLK
5
32C
330
10D
100
AcDbEntity
8
0
100
AcDbBlockEnd
0
BLOCK
5
32D
330
10E
100
AcDbEntity
8
0
100
AcDbBlockBegin
2
3_TS73636TK_2
70
2
10
0.0
20
0.0
30
0.0
3
3_TS73636TK_2
1

0
POLYLINE
5
32E
330
10E
100
AcDbEntity
8
AFUSK-3D-017
100
AcDbPolyFaceMesh
66
1
10
0.0
20
0.0
30
0.0
70
64
71
4
72
1
0
VERTEX
5
32F
330
32E
100
AcDbEntity
8
AFUSK-3D-017
100
AcDbVertex
100
AcDbPolyFaceMeshVertex
10
0.0
20
0.0
30
0.0
70
192
0
VERTEX
5
330
330
32E
100
AcDbEntity
8
AFUSK-3D-017
100
AcDbVertex
100
AcDbPolyFaceMeshVertex
10
36.0
20
0.0
30
0.0
70
192
0
VERTEX
5
331
330
32E
100
AcDbEntity
8
AFUSK-3D-017
100
AcDbVertex
100
AcDbPolyFaceMeshVertex
10
36.0
20
0.0
30
37.40625
70
192
0
VERTEX
5
332
330
32E
100
AcDbEntity
8
AFUSK-3D-017
100
AcDbVertex
100
AcDbPolyFaceMeshVertex
10
0.0
20
0.0
30
37.40625
70
192
0
VERTEX
5
333
330
32E
100
AcDbEntity
8
AFUSK-3D-017
100
AcDbFaceRecord
10
0.0
20
0.0
30
0.0
70
128
71
1
72
2
73
3
74
4
0
SEQEND
5
334
330
32E
100
AcDbEntity
8
AFUSK-3D-017
0
ATTDEF
5
335
330
10E
100
AcDbEntity
8
A-FURN-POINT-PART-T
100
AcDbText
10
0.0
20
0.0
30
0.0
40
0.001
1

100
AcDbAttributeDefinition
3

2
CAPPN
70
1
0
ATTDEF
5
336
330
10E
100
AcDbEntity
8
A-FURN-POINT-PART-T
100
AcDbText
10
0.0
20
0.0
30
0.0
40
0.001
1

100
AcDbAttributeDefinition
3

2
CAPPD
70
1
0
ATTDEF
5
337
330
10E
100
AcDbEntity
8
A-FURN-POINT-PART-T
100
AcDbText
10
0.0
20
0.0
30
0.0
40
0.001
1

100
AcDbAttributeDefinition
3

2
CAPMG
70
1
0
ATTDEF
5
338
330
10E
100
AcDbEntity
8
A-FURN-POINT-PART-T
100
AcDbText
10
0.0
20
0.0
30
0.0
40
0.001
1

100
AcDbAttributeDefinition
3

2
CAPMC
70
1
0
ATTDEF
5
339
330
10E
100
AcDbEntity
8
A-FURN-POINT-PART-T
100
AcDbText
10
0.0
20
0.0
30
0.0
40
0.001
1

100
AcDbAttributeDefinition
3

2
CAPGC
70
1
0
ATTDEF
5
33A
330
10E
100
AcDbEntity
8
A-FURN-POINT-PART-T
100
AcDbText
10
0.0
20
0.0
30
0.0
40
0.001
1

100
AcDbAttributeDefinition
3

2
CAPALIAS1
70
1
0
ATTDEF
5
33B
330
10E
100
AcDbEntity
8
A-FURN-POINT-PART-T
100
AcDbText
10
0.0
20
0.0
30
0.0
40
0.001
1

100
AcDbAttributeDefinition
3

2
CAPALIAS2
70
1
0
ATTDEF
5
33C
330
10E
100
AcDbEntity
8
A-FURN-POINT-PART-T
100
AcDbText
10
0.0
20
0.0
30
0.0
40
0.001
1

100
AcDbAttributeDefinition
3

2
CAPALIAS3
70
1
0
ATTDEF
5
33D
330
10E
100
AcDbEntity
8
A-FURN-POINT-PART-T
100
AcDbText
10
0.0
20
0.0
30
0.0
40
0.001
1

100
AcDbAttributeDefinition
3

2
CAPBLDG
70
1
0
ATTDEF
5
33E
330
10E
100
AcDbEntity
8
A-FURN-POINT-PART-T
100
AcDbText
10
0.0
20
0.0
30
0.0
40
0.001
1

100
AcDbAttributeDefinition
3

2
CAPFLOOR
70
1
0
ATTDEF
5
33F
330
10E
100
AcDbEntity
8
A-FURN-POINT-PART-T
100
AcDbText
10
0.0
20
0.0
30
0.0
40
0.001
1

100
AcDbAttributeDefinition
3

2
CAPDEPT
70
1
0
ATTDEF
5
340
330
10E
100
AcDbEntity
8
A-FURN-POINT-PART-T
100
AcDbText
10
0.0
20
0.0
30
0.0
40
0.001
1

100
AcDbAttributeDefinition
3

2
CAPPERSON
70
1
0
ATTDEF
5
341
330
10E
100
AcDbEntity
8
A-FURN-POINT-PART-T
100
AcDbText
10
0.0
20
0.0
30
0.0
40
0.001
1

100
AcDbAttributeDefinition
3

2
CAPPL
70
1
0
ATTDEF
5
342
330
10E
100
AcDbEntity
8
A-FURN-POINT-PART-T
100
AcDbText
10
0.0
20
0.0
30
0.0
40
0.001
1

100
AcDbAttributeDefinition
3

2
CAPTG
70
1
0
ATTDEF
5
343
330
10E
100
AcDbEntity
8
A-FURN-POINT-PART-T
100
AcDbText
10
0.0
20
0.0
30
0.0
40
0.001
1

100
AcDbAttributeDefinition
3

2
CAPQT
70
1
0
ATTDEF
5
344
330
10E
100
AcDbEntity
8
A-FURN-POINT-PART-T
100
AcDbText
10
0.0
20
0.0
30
0.0
40
0.001
1

100
AcDbAttributeDefinition
3

2
CAPDH
70
1
0
ENDBLK
5
345
330
10E
100
AcDbEntity
8
0
100
AcDbBlockEnd
0
BLOCK
5
346
330
10F
100
AcDbEntity
8
0
100
AcDbBlockBegin
2
P_TS71236SPW
70
2
10
0.0
20
0.0
30
0.0
3
P_TS71236SPW
1

0
POINT
5
347
330
10F
100
AcDbEntity
8
A-FURN-POINT-PART
100
AcDbPoint
10
0.0
20
0.0
30
0.0
0
ATTDEF
5
348
330
10F
100
AcDbEntity
8
A-FURN-POINT-PART-T
100
AcDbText
10
0.0
20
0.0
30
0.0
40
0.001
1

100
AcDbAttributeDefinition
3

2
CAPPN
70
1
0
ATTDEF
5
349
330
10F
100
AcDbEntity
8
A-FURN-POINT-PART-T
100
AcDbText
10
0.0
20
0.0
30
0.0
40
0.001
1

100
AcDbAttributeDefinition
3

2
CAPPD
70
1
0
ATTDEF
5
34A
330
10F
100
AcDbEntity
8
A-FURN-POINT-PART-T
100
AcDbText
10
0.0
20
0.0
30
0.0
40
0.001
1

100
AcDbAttributeDefinition
3

2
CAPMG
70
1
0
ATTDEF
5
34B
330
10F
100
AcDbEntity
8
A-FURN-POINT-PART-T
100
AcDbText
10
0.0
20
0.0
30
0.0
40
0.001
1

100
AcDbAttributeDefinition
3

2
CAPMC
70
1
0
ATTDEF
5
34C
330
10F
100
AcDbEntity
8
A-FURN-POINT-PART-T
100
AcDbText
10
0.0
20
0.0
30
0.0
40
0.001
1

100
AcDbAttributeDefinition
3

2
CAPGC
70
1
0
ATTDEF
5
34D
330
10F
100
AcDbEntity
8
A-FURN-POINT-PART-T
100
AcDbText
10
0.0
20
0.0
30
0.0
40
0.001
1

100
AcDbAttributeDefinition
3

2
CAPALIAS1
70
1
0
ATTDEF
5
34E
330
10F
100
AcDbEntity
8
A-FURN-POINT-PART-T
100
AcDbText
10
0.0
20
0.0
30
0.0
40
0.001
1

100
AcDbAttributeDefinition
3

2
CAPALIAS2
70
1
0
ATTDEF
5
34F
330
10F
100
AcDbEntity
8
A-FURN-POINT-PART-T
100
AcDbText
10
0.0
20
0.0
30
0.0
40
0.001
1

100
AcDbAttributeDefinition
3

2
CAPALIAS3
70
1
0
ATTDEF
5
350
330
10F
100
AcDbEntity
8
A-FURN-POINT-PART-T
100
AcDbText
10
0.0
20
0.0
30
0.0
40
0.001
1

100
AcDbAttributeDefinition
3

2
CAPBLDG
70
1
0
ATTDEF
5
351
330
10F
100
AcDbEntity
8
A-FURN-POINT-PART-T
100
AcDbText
10
0.0
20
0.0
30
0.0
40
0.001
1

100
AcDbAttributeDefinition
3

2
CAPFLOOR
70
1
0
ATTDEF
5
352
330
10F
100
AcDbEntity
8
A-FURN-POINT-PART-T
100
AcDbText
10
0.0
20
0.0
30
0.0
40
0.001
1

100
AcDbAttributeDefinition
3

2
CAPDEPT
70
1
0
ATTDEF
5
353
330
10F
100
AcDbEntity
8
A-FURN-POINT-PART-T
100
AcDbText
10
0.0
20
0.0
30
0.0
40
0.001
1

100
AcDbAttributeDefinition
3

2
CAPPERSON
70
1
0
ATTDEF
5
354
330
10F
100
AcDbEntity
8
A-FURN-POINT-PART-T
100
AcDbText
10
0.0
20
0.0
30
0.0
40
0.001
1

100
AcDbAttributeDefinition
3

2
CAPPL
70
1
0
ATTDEF
5
355
330
10F
100
AcDbEntity
8
A-FURN-POINT-PART-T
100
AcDbText
10
0.0
20
0.0
30
0.0
40
0.001
1

100
AcDbAttributeDefinition
3

2
CAPTG
70
1
0
ATTDEF
5
356
330
10F
100
AcDbEntity
8
A-FURN-POINT-PART-T
100
AcDbText
10
0.0
20
0.0
30
0.0
40
0.001
1

100
AcDbAttributeDefinition
3

2
CAPQT
70
1
0
ATTDEF
5
357
330
10F
100
AcDbEntity
8
A-FURN-POINT-PART-T
100
AcDbText
10
0.0
20
0.0
30
0.0
40
0.001
1

100
AcDbAttributeDefinition
3

2
CAPDH
70
1
0
ENDBLK
5
358
330
10F
100
AcDbEntity
8
0
100
AcDbBlockEnd
0
BLOCK
5
359
330
110
100
AcDbEntity
8
0
100
AcDbBlockBegin
2
3_TS71236SPW
70
2
10
0.0
20
0.0
30
0.0
3
3_TS71236SPW
1

0
POLYLINE
5
35A
330
110
100
AcDbEntity
8
AFUSK-3D-006
100
AcDbPolyFaceMesh
66
1
10
0.0
20
0.0
30
0.0
70
64
71
4
72
1
0
VERTEX
5
35B
330
35A
100
AcDbEntity
8
AFUSK-3D-006
100
AcDbVertex
100
AcDbPolyFaceMeshVertex
10
0.0
20
0.0
30
0.0
70
192
0
VERTEX
5
35C
330
35A
100
AcDbEntity
8
AFUSK-3D-006
100
AcDbVertex
100
AcDbPolyFaceMeshVertex
10
36.0
20
0.0
30
0.0
70
192
0
VERTEX
5
35D
330
35A
100
AcDbEntity
8
AFUSK-3D-006
100
AcDbVertex
100
AcDbPolyFaceMeshVertex
10
36.0
20
3.0
30
0.0
70
192
0
VERTEX
5
35E
330
35A
100
AcDbEntity
8
AFUSK-3D-006
100
AcDbVertex
100
AcDbPolyFaceMeshVertex
10
0.0
20
3.0
30
0.0
70
192
0
VERTEX
5
35F
330
35A
100
AcDbEntity
8
AFUSK-3D-006
100
AcDbFaceRecord
10
0.0
20
0.0
30
0.0
70
128
71
1
72
2
73
3
74
4
0
SEQEND
5
360
330
35A
100
AcDbEntity
8
AFUSK-3D-006
0
POLYLINE
5
361
330
110
100
AcDbEntity
8
AFUSK-3D-006
100
AcDbPolyFaceMesh
66
1
10
0.0
20
0.0
30
0.0
70
64
71
4
72
1
0
VERTEX
5
362
330
361
100
AcDbEntity
8
AFUSK-3D-006
100
AcDbVertex
100
AcDbPolyFaceMeshVertex
10
0.0
20
0.0
30
12.46875
70
192
0
VERTEX
5
363
330
361
100
AcDbEntity
8
AFUSK-3D-006
100
AcDbVertex
100
AcDbPolyFaceMeshVertex
10
36.0
20
0.0
30
12.46875
70
192
0
VERTEX
5
364
330
361
100
AcDbEntity
8
AFUSK-3D-006
100
AcDbVertex
100
AcDbPolyFaceMeshVertex
10
36.0
20
3.0
30
12.46875
70
192
0
VERTEX
5
365
330
361
100
AcDbEntity
8
AFUSK-3D-006
100
AcDbVertex
100
AcDbPolyFaceMeshVertex
10
0.0
20
3.0
30
12.46875
70
192
0
VERTEX
5
366
330
361
100
AcDbEntity
8
AFUSK-3D-006
100
AcDbFaceRecord
10
0.0
20
0.0
30
0.0
70
128
71
1
72
2
73
3
74
4
0
SEQEND
5
367
330
361
100
AcDbEntity
8
AFUSK-3D-006
0
POLYLINE
5
368
330
110
100
AcDbEntity
8
AFUSK-3D-006
100
AcDbPolyFaceMesh
66
1
10
0.0
20
0.0
30
0.0
70
64
71
4
72
1
0
VERTEX
5
369
330
368
100
AcDbEntity
8
AFUSK-3D-006
100
AcDbVertex
100
AcDbPolyFaceMeshVertex
10
0.0
20
0.0
30
0.0
70
192
0
VERTEX
5
36A
330
368
100
AcDbEntity
8
AFUSK-3D-006
100
AcDbVertex
100
AcDbPolyFaceMeshVertex
10
0.0
20
3.0
30
0.0
70
192
0
VERTEX
5
36B
330
368
100
AcDbEntity
8
AFUSK-3D-006
100
AcDbVertex
100
AcDbPolyFaceMeshVertex
10
0.0
20
3.0
30
12.46875
70
192
0
VERTEX
5
36C
330
368
100
AcDbEntity
8
AFUSK-3D-006
100
AcDbVertex
100
AcDbPolyFaceMeshVertex
10
0.0
20
0.0
30
12.46875
70
192
0
VERTEX
5
36D
330
368
100
AcDbEntity
8
AFUSK-3D-006
100
AcDbFaceRecord
10
0.0
20
0.0
30
0.0
70
128
71
1
72
2
73
3
74
4
0
SEQEND
5
36E
330
368
100
AcDbEntity
8
AFUSK-3D-006
0
POLYLINE
5
36F
330
110
100
AcDbEntity
8
AFUSK-3D-006
100
AcDbPolyFaceMesh
66
1
10
0.0
20
0.0
30
0.0
70
64
71
4
72
1
0
VERTEX
5
370
330
36F
100
AcDbEntity
8
AFUSK-3D-006
100
AcDbVertex
100
AcDbPolyFaceMeshVertex
10
36.0
20
0.0
30
0.0
70
192
0
VERTEX
5
371
330
36F
100
AcDbEntity
8
AFUSK-3D-006
100
AcDbVertex
100
AcDbPolyFaceMeshVertex
10
36.0
20
3.0
30
0.0
70
192
0
VERTEX
5
372
330
36F
100
AcDbEntity
8
AFUSK-3D-006
100
AcDbVertex
100
AcDbPolyFaceMeshVertex
10
36.0
20
3.0
30
12.46875
70
192
0
VERTEX
5
373
330
36F
100
AcDbEntity
8
AFUSK-3D-006
100
AcDbVertex
100
AcDbPolyFaceMeshVertex
10
36.0
20
0.0
30
12.46875
70
192
0
VERTEX
5
374
330
36F
100
AcDbEntity
8
AFUSK-3D-006
100
AcDbFaceRecord
10
0.0
20
0.0
30
0.0
70
128
71
1
72
2
73
3
74
4
0
SEQEND
5
375
330
36F
100
AcDbEntity
8
AFUSK-3D-006
0
POLYLINE
5
376
330
110
100
AcDbEntity
8
AFUSK-3D-016
100
AcDbPolyFaceMesh
66
1
10
0.0
20
0.0
30
0.0
70
64
71
4
72
1
0
VERTEX
5
377
330
376
100
AcDbEntity
8
AFUSK-3D-016
100
AcDbVertex
100
AcDbPolyFaceMeshVertex
10
0.0
20
1.5
30
0.0
70
192
0
VERTEX
5
378
330
376
100
AcDbEntity
8
AFUSK-3D-016
100
AcDbVertex
100
AcDbPolyFaceMeshVertex
10
36.0
20
1.5
30
0.0
70
192
0
VERTEX
5
379
330
376
100
AcDbEntity
8
AFUSK-3D-016
100
AcDbVertex
100
AcDbPolyFaceMeshVertex
10
36.0
20
1.5
30
12.46875
70
192
0
VERTEX
5
37A
330
376
100
AcDbEntity
8
AFUSK-3D-016
100
AcDbVertex
100
AcDbPolyFaceMeshVertex
10
0.0
20
1.5
30
12.46875
70
192
0
VERTEX
5
37B
330
376
100
AcDbEntity
8
AFUSK-3D-016
100
AcDbFaceRecord
10
0.0
20
0.0
30
0.0
70
128
71
1
72
2
73
3
74
4
0
SEQEND
5
37C
330
376
100
AcDbEntity
8
AFUSK-3D-016
0
ATTDEF
5
37D
330
110
100
AcDbEntity
8
A-FURN-POINT-PART-T
100
AcDbText
10
0.0
20
0.0
30
0.0
40
0.001
1

100
AcDbAttributeDefinition
3

2
CAPPN
70
1
0
ATTDEF
5
37E
330
110
100
AcDbEntity
8
A-FURN-POINT-PART-T
100
AcDbText
10
0.0
20
0.0
30
0.0
40
0.001
1

100
AcDbAttributeDefinition
3

2
CAPPD
70
1
0
ATTDEF
5
37F
330
110
100
AcDbEntity
8
A-FURN-POINT-PART-T
100
AcDbText
10
0.0
20
0.0
30
0.0
40
0.001
1

100
AcDbAttributeDefinition
3

2
CAPMG
70
1
0
ATTDEF
5
380
330
110
100
AcDbEntity
8
A-FURN-POINT-PART-T
100
AcDbText
10
0.0
20
0.0
30
0.0
40
0.001
1

100
AcDbAttributeDefinition
3

2
CAPMC
70
1
0
ATTDEF
5
381
330
110
100
AcDbEntity
8
A-FURN-POINT-PART-T
100
AcDbText
10
0.0
20
0.0
30
0.0
40
0.001
1

100
AcDbAttributeDefinition
3

2
CAPGC
70
1
0
ATTDEF
5
382
330
110
100
AcDbEntity
8
A-FURN-POINT-PART-T
100
AcDbText
10
0.0
20
0.0
30
0.0
40
0.001
1

100
AcDbAttributeDefinition
3

2
CAPALIAS1
70
1
0
ATTDEF
5
383
330
110
100
AcDbEntity
8
A-FURN-POINT-PART-T
100
AcDbText
10
0.0
20
0.0
30
0.0
40
0.001
1

100
AcDbAttributeDefinition
3

2
CAPALIAS2
70
1
0
ATTDEF
5
384
330
110
100
AcDbEntity
8
A-FURN-POINT-PART-T
100
AcDbText
10
0.0
20
0.0
30
0.0
40
0.001
1

100
AcDbAttributeDefinition
3

2
CAPALIAS3
70
1
0
ATTDEF
5
385
330
110
100
AcDbEntity
8
A-FURN-POINT-PART-T
100
AcDbText
10
0.0
20
0.0
30
0.0
40
0.001
1

100
AcDbAttributeDefinition
3

2
CAPBLDG
70
1
0
ATTDEF
5
386
330
110
100
AcDbEntity
8
A-FURN-POINT-PART-T
100
AcDbText
10
0.0
20
0.0
30
0.0
40
0.001
1

100
AcDbAttributeDefinition
3

2
CAPFLOOR
70
1
0
ATTDEF
5
387
330
110
100
AcDbEntity
8
A-FURN-POINT-PART-T
100
AcDbText
10
0.0
20
0.0
30
0.0
40
0.001
1

100
AcDbAttributeDefinition
3

2
CAPDEPT
70
1
0
ATTDEF
5
388
330
110
100
AcDbEntity
8
A-FURN-POINT-PART-T
100
AcDbText
10
0.0
20
0.0
30
0.0
40
0.001
1

100
AcDbAttributeDefinition
3

2
CAPPERSON
70
1
0
ATTDEF
5
389
330
110
100
AcDbEntity
8
A-FURN-POINT-PART-T
100
AcDbText
10
0.0
20
0.0
30
0.0
40
0.001
1

100
AcDbAttributeDefinition
3

2
CAPPL
70
1
0
ATTDEF
5
38A
330
110
100
AcDbEntity
8
A-FURN-POINT-PART-T
100
AcDbText
10
0.0
20
0.0
30
0.0
40
0.001
1

100
AcDbAttributeDefinition
3

2
CAPTG
70
1
0
ATTDEF
5
38B
330
110
100
AcDbEntity
8
A-FURN-POINT-PART-T
100
AcDbText
10
0.0
20
0.0
30
0.0
40
0.001
1

100
AcDbAttributeDefinition
3

2
CAPQT
70
1
0
ATTDEF
5
38C
330
110
100
AcDbEntity
8
A-FURN-POINT-PART-T
100
AcDbText
10
0.0
20
0.0
30
0.0
40
0.001
1

100
AcDbAttributeDefinition
3

2
CAPDH
70
1
0
ENDBLK
5
38D
330
110
100
AcDbEntity
8
0
100
AcDbBlockEnd
0
BLOCK
5
38E
330
10C
100
AcDbEntity
8
0
100
AcDbBlockBegin
2
P_B36.000000
70
2
10
0.0
20
0.0
30
0.0
3
P_B36.000000
1

0
INSERT
5
38F
330
10C
100
AcDbEntity
8
A-FURN
100
AcDbBlockReference
66
1
2
P_TS736THF_2
10
0.0
20
0.0
30
0.0
0
ATTRIB
5
390
330
10C
100
AcDbEntity
8
A-FURN-P-PNLS-54-T
100
AcDbText
10
0.0
20
0.0
30
0.0
40
0.001
1
TS736THF
100
AcDbAttribute
2
CAPPN
70
1
0
ATTRIB
5
391
330
10C
100
AcDbEntity
8
A-FURN-P-PNLS-54-T
100
AcDbText
10
0.0
20
0.0
30
0.0
40
0.001
1
Base horizontal frame package 36"W - Thin (2 bars, top cap, base trims)
100
AcDbAttribute
2
CAPPD
70
1
0
ATTRIB
5
392
330
10C
100
AcDbEntity
8
A-FURN-P-PNLS-54-T
100
AcDbText
10
0.0
20
0.0
30
0.0
40
0.001
1
STC
100
AcDbAttribute
2
CAPMG
70
1
0
ATTRIB
5
393
330
10C
100
AcDbEntity
8
A-FURN-P-PNLS-54-T
100
AcDbText
10
0.0
20
0.0
30
0.0
40
0.001
1
TSA
100
AcDbAttribute
2
CAPMC
70
1
0
ATTRIB
5
394
330
10C
100
AcDbEntity
8
A-FURN-P-PNLS-54-T
100
AcDbText
10
0.0
20
0.0
30
0.0
40
0.001
1

100
AcDbAttribute
2
CAPGC
70
1
0
ATTRIB
5
395
330
10C
100
AcDbEntity
8
A-FURN-P-PNLS-54-T
100
AcDbText
10
0.0
20
0.0
30
0.0
40
0.001
1

100
AcDbAttribute
2
CAPALIAS1
70
1
0
ATTRIB
5
396
330
10C
100
AcDbEntity
8
A-FURN-P-PNLS-54-T
100
AcDbText
10
0.0
20
0.0
30
0.0
40
0.001
1

100
AcDbAttribute
2
CAPALIAS2
70
1
0
ATTRIB
5
397
330
10C
100
AcDbEntity
8
A-FURN-P-PNLS-54-T
100
AcDbText
10
0.0
20
0.0
30
0.0
40
0.001
1

100
AcDbAttribute
2
CAPALIAS3
70
1
0
ATTRIB
5
398
330
10C
100
AcDbEntity
8
A-FURN-P-PNLS-54-T
100
AcDbText
10
0.0
20
0.0
30
0.0
40
0.001
1

100
AcDbAttribute
2
CAPBLDG
70
1
0
ATTRIB
5
399
330
10C
100
AcDbEntity
8
A-FURN-P-PNLS-54-T
100
AcDbText
10
0.0
20
0.0
30
0.0
40
0.001
1

100
AcDbAttribute
2
CAPFLOOR
70
1
0
ATTRIB
5
39A
330
10C
100
AcDbEntity
8
A-FURN-P-PNLS-54-T
100
AcDbText
10
0.0
20
0.0
30
0.0
40
0.001
1

100
AcDbAttribute
2
CAPDEPT
70
1
0
ATTRIB
5
39B
330
10C
100
AcDbEntity
8
A-FURN-P-PNLS-54-T
100
AcDbText
10
0.0
20
0.0
30
0.0
40
0.001
1

100
AcDbAttribute
2
CAPPERSON
70
1
0
ATTRIB
5
39C
330
10C
100
AcDbEntity
8
A-FURN-P-PNLS-54-T
100
AcDbText
10
0.0
20
0.0
30
0.0
40
0.001
1
89.0000
100
AcDbAttribute
2
CAPPL
70
1
0
ATTRIB
5
39D
330
10C
100
AcDbEntity
8
A-FURN-P-PNLS-54-T
100
AcDbText
10
18.0
20
-5.5
30
0.0
40
3.0
1
36/54
7
MONOTXT
72
1
11
18.0
21
-5.5
31
0.0
100
AcDbAttribute
2
CAPTG
70
0
0
ATTRIB
5
39E
330
10C
100
AcDbEntity
8
A-FURN-P-PNLS-54-T
100
AcDbText
10
0.0
20
0.0
30
0.0
40
0.001
1
1
100
AcDbAttribute
2
CAPQT
70
1
0
ATTRIB
5
39F
330
10C
100
AcDbEntity
8
A-FURN-P-PNLS-54-T
100
AcDbText
10
0.0
20
0.0
30
0.0
40
0.001
1
0
100
AcDbAttribute
2
CAPDH
70
1
0
SEQEND
5
3A0
330
38F
100
AcDbEntity
8
A-FURN
0
INSERT
5
3A1
330
10C
100
AcDbEntity
8
A-FURN
100
AcDbBlockReference
66
1
2
P_TS73636TK_2
10
36.0
20
0.0
30
0.0
50
180.0
0
ATTRIB
5
3A2
330
10C
100
AcDbEntity
8
A-FURN-POINT-PART-T
100
AcDbText
10
36.0
20
0.0
30
0.0
40
0.001
1
TS73636TK
100
AcDbAttribute
2
CAPPN
70
1
0
ATTRIB
5
3A3
330
10C
100
AcDbEntity
8
A-FURN-POINT-PART-T
100
AcDbText
10
36.0
20
0.0
30
0.0
40
0.001
1
Tackable acoustical skin 36"W x 36"H - side 1
100
AcDbAttribute
2
CAPPD
70
1
0
ATTRIB
5
3A4
330
10C
100
AcDbEntity
8
A-FURN-POINT-PART-T
100
AcDbText
10
36.0
20
0.0
30
0.0
40
0.001
1
STC
100
AcDbAttribute
2
CAPMG
70
1
0
ATTRIB
5
3A5
330
10C
100
AcDbEntity
8
A-FURN-POINT-PART-T
100
AcDbText
10
36.0
20
0.0
30
0.0
40
0.001
1
TSA
100
AcDbAttribute
2
CAPMC
70
1
0
ATTRIB
5
3A6
330
10C
100
AcDbEntity
8
A-FURN-POINT-PART-T
100
AcDbText
10
36.0
20
0.0
30
0.0
40
0.001
1

100
AcDbAttribute
2
CAPGC
70
1
0
ATTRIB
5
3A7
330
10C
100
AcDbEntity
8
A-FURN-POINT-PART-T
100
AcDbText
10
36.0
20
0.0
30
0.0
40
0.001
1

100
AcDbAttribute
2
CAPALIAS1
70
1
0
ATTRIB
5
3A8
330
10C
100
AcDbEntity
8
A-FURN-POINT-PART-T
100
AcDbText
10
36.0
20
0.0
30
0.0
40
0.001
1

100
AcDbAttribute
2
CAPALIAS2
70
1
0
ATTRIB
5
3A9
330
10C
100
AcDbEntity
8
A-FURN-POINT-PART-T
100
AcDbText
10
36.0
20
0.0
30
0.0
40
0.001
1

100
AcDbAttribute
2
CAPALIAS3
70
1
0
ATTRIB
5
3AA
330
10C
100
AcDbEntity
8
A-FURN-POINT-PART-T
100
AcDbText
10
36.0
20
0.0
30
0.0
40
0.001
1

100
AcDbAttribute
2
CAPBLDG
70
1
0
ATTRIB
5
3AB
330
10C
100
AcDbEntity
8
A-FURN-POINT-PART-T
100
AcDbText
10
36.0
20
0.0
30
0.0
40
0.001
1

100
AcDbAttribute
2
CAPFLOOR
70
1
0
ATTRIB
5
3AC
330
10C
100
AcDbEntity
8
A-FURN-POINT-PART-T
100
AcDbText
10
36.0
20
0.0
30
0.0
40
0.001
1

100
AcDbAttribute
2
CAPDEPT
70
1
0
ATTRIB
5
3AD
330
10C
100
AcDbEntity
8
A-FURN-POINT-PART-T
100
AcDbText
10
36.0
20
0.0
30
0.0
40
0.001
1

100
AcDbAttribute
2
CAPPERSON
70
1
0
ATTRIB
5
3AE
330
10C
100
AcDbEntity
8
A-FURN-POINT-PART-T
100
AcDbText
10
36.0
20
0.0
30
0.0
40
0.001
1
177.0000
100
AcDbAttribute
2
CAPPL
70
1
0
ATTRIB
5
3AF
330
10C
100
AcDbEntity
8
A-FURN-POINT-PART-T
100
AcDbText
10
36.0
20
0.0
30
0.0
40
0.001
1

100
AcDbAttribute
2
CAPTG
70
1
0
ATTRIB
5
3B0
330
10C
100
AcDbEntity
8
A-FURN-POINT-PART-T
100
AcDbText
10
36.0
20
0.0
30
0.0
40
0.001
1
1
100
AcDbAttribute
2
CAPQT
70
1
0
ATTRIB
5
3B1
330
10C
100
AcDbEntity
8
A-FURN-POINT-PART-T
100
AcDbText
10
36.0
20
0.0
30
0.0
40
0.001
1
3.75
100
AcDbAttribute
2
CAPDH
70
1
0
SEQEND
5
3B2
330
3A1
100
AcDbEntity
8
A-FURN
0
INSERT
5
3B3
330
10C
100
AcDbEntity
8
A-FURN
100
AcDbBlockReference
66
1
2
P_TS71236SPW
10
0.0
20
0.0
30
0.0
0
ATTRIB
5
3B4
330
10C
100
AcDbEntity
8
A-FURN-POINT-PART-T
100
AcDbText
10
0.0
20
0.0
30
0.0
40
0.001
1
TS71236SPW
100
AcDbAttribute
2
CAPPN
70
1
0
ATTRIB
5
3B5
330
10C
100
AcDbEntity
8
A-FURN-POINT-PART-T
100
AcDbText
10
0.0
20
0.0
30
0.0
40
0.001
1
Glass window 36"W x 12"H, single-pane 6500 clear (both sides)
100
AcDbAttribute
2
CAPPD
70
1
0
ATTRIB
5
3B6
330
10C
100
AcDbEntity
8
A-FURN-POINT-PART-T
100
AcDbText
10
0.0
20
0.0
30
0.0
40
0.001
1
STC
100
AcDbAttribute
2
CAPMG
70
1
0
ATTRIB
5
3B7
330
10C
100
AcDbEntity
8
A-FURN-POINT-PART-T
100
AcDbText
10
0.0
20
0.0
30
0.0
40
0.001
1
TSA
100
AcDbAttribute
2
CAPMC
70
1
0
ATTRIB
5
3B8
330
10C
100
AcDbEntity
8
A-FURN-POINT-PART-T
100
AcDbText
10
0.0
20
0.0
30
0.0
40
0.001
1

100
AcDbAttribute
2
CAPGC
70
1
0
ATTRIB
5
3B9
330
10C
100
AcDbEntity
8
A-FURN-POINT-PART-T
100
AcDbText
10
0.0
20
0.0
30
0.0
40
0.001
1

100
AcDbAttribute
2
CAPALIAS1
70
1
0
ATTRIB
5
3BA
330
10C
100
AcDbEntity
8
A-FURN-POINT-PART-T
100
AcDbText
10
0.0
20
0.0
30
0.0
40
0.001
1

100
AcDbAttribute
2
CAPALIAS2
70
1
0
ATTRIB
5
3BB
330
10C
100
AcDbEntity
8
A-FURN-POINT-PART-T
100
AcDbText
10
0.0
20
0.0
30
0.0
40
0.001
1

100
AcDbAttribute
2
CAPALIAS3
70
1
0
ATTRIB
5
3BC
330
10C
100
AcDbEntity
8
A-FURN-POINT-PART-T
100
AcDbText
10
0.0
20
0.0
30
0.0
40
0.001
1

100
AcDbAttribute
2
CAPBLDG
70
1
0
ATTRIB
5
3BD
330
10C
100
AcDbEntity
8
A-FURN-POINT-PART-T
100
AcDbText
10
0.0
20
0.0
30
0.0
40
0.001
1

100
AcDbAttribute
2
CAPFLOOR
70
1
0
ATTRIB
5
3BE
330
10C
100
AcDbEntity
8
A-FURN-POINT-PART-T
100
AcDbText
10
0.0
20
0.0
30
0.0
40
0.001
1

100
AcDbAttribute
2
CAPDEPT
70
1
0
ATTRIB
5
3BF
330
10C
100
AcDbEntity
8
A-FURN-POINT-PART-T
100
AcDbText
10
0.0
20
0.0
30
0.0
40
0.001
1

100
AcDbAttribute
2
CAPPERSON
70
1
0
ATTRIB
5
3C0
330
10C
100
AcDbEntity
8
A-FURN-POINT-PART-T
100
AcDbText
10
0.0
20
0.0
30
0.0
40
0.001
1
466.0000
100
AcDbAttribute
2
CAPPL
70
1
0
ATTRIB
5
3C1
330
10C
100
AcDbEntity
8
A-FURN-POINT-PART-T
100
AcDbText
10
0.0
20
0.0
30
0.0
40
0.001
1

100
AcDbAttribute
2
CAPTG
70
1
0
ATTRIB
5
3C2
330
10C
100
AcDbEntity
8
A-FURN-POINT-PART-T
100
AcDbText
10
0.0
20
0.0
30
0.0
40
0.001
1
1
100
AcDbAttribute
2
CAPQT
70
1
0
ATTRIB
5
3C3
330
10C
100
AcDbEntity
8
A-FURN-POINT-PART-T
100
AcDbText
10
0.0
20
0.0
30
0.0
40
0.001
1
41.1563
100
AcDbAttribute
2
CAPDH
70
1
0
SEQEND
5
3C4
330
3B3
100
AcDbEntity
8
A-FURN
0
INSERT
5
3C5
330
10C
100
AcDbEntity
8
A-FURN
100
AcDbBlockReference
66
1
2
P_TS73636TK_2
10
0.0
20
3.0
30
0.0
0
ATTRIB
5
3C6
330
10C
100
AcDbEntity
8
A-FURN-POINT-PART-T
100
AcDbText
10
0.0
20
3.0
30
0.0
40
0.001
1
TS73636TK
100
AcDbAttribute
2
CAPPN
70
1
0
ATTRIB
5
3C7
330
10C
100
AcDbEntity
8
A-FURN-POINT-PART-T
100
AcDbText
10
0.0
20
3.0
30
0.0
40
0.001
1
Tackable acoustical skin 36"W x 36"H - side 2
100
AcDbAttribute
2
CAPPD
70
1
0
ATTRIB
5
3C8
330
10C
100
AcDbEntity
8
A-FURN-POINT-PART-T
100
AcDbText
10
0.0
20
3.0
30
0.0
40
0.001
1
STC
100
AcDbAttribute
2
CAPMG
70
1
0
ATTRIB
5
3C9
330
10C
100
AcDbEntity
8
A-FURN-POINT-PART-T
100
AcDbText
10
0.0
20
3.0
30
0.0
40
0.001
1
TSA
100
AcDbAttribute
2
CAPMC
70
1
0
ATTRIB
5
3CA
330
10C
100
AcDbEntity
8
A-FURN-POINT-PART-T
100
AcDbText
10
0.0
20
3.0
30
0.0
40
0.001
1

100
AcDbAttribute
2
CAPGC
70
1
0
ATTRIB
5
3CB
330
10C
100
AcDbEntity
8
A-FURN-POINT-PART-T
100
AcDbText
10
0.0
20
3.0
30
0.0
40
0.001
1

100
AcDbAttribute
2
CAPALIAS1
70
1
0
ATTRIB
5
3CC
330
10C
100
AcDbEntity
8
A-FURN-POINT-PART-T
100
AcDbText
10
0.0
20
3.0
30
0.0
40
0.001
1

100
AcDbAttribute
2
CAPALIAS2
70
1
0
ATTRIB
5
3CD
330
10C
100
AcDbEntity
8
A-FURN-POINT-PART-T
100
AcDbText
10
0.0
20
3.0
30
0.0
40
0.001
1

100
AcDbAttribute
2
CAPALIAS3
70
1
0
ATTRIB
5
3CE
330
10C
100
AcDbEntity
8
A-FURN-POINT-PART-T
100
AcDbText
10
0.0
20
3.0
30
0.0
40
0.001
1

100
AcDbAttribute
2
CAPBLDG
70
1
0
ATTRIB
5
3CF
330
10C
100
AcDbEntity
8
A-FURN-POINT-PART-T
100
AcDbText
10
0.0
20
3.0
30
0.0
40
0.001
1

100
AcDbAttribute
2
CAPFLOOR
70
1
0
ATTRIB
5
3D0
330
10C
100
AcDbEntity
8
A-FURN-POINT-PART-T
100
AcDbText
10
0.0
20
3.0
30
0.0
40
0.001
1

100
AcDbAttribute
2
CAPDEPT
70
1
0
ATTRIB
5
3D1
330
10C
100
AcDbEntity
8
A-FURN-POINT-PART-T
100
AcDbText
10
0.0
20
3.0
30
0.0
40
0.001
1

100
AcDbAttribute
2
CAPPERSON
70
1
0
ATTRIB
5
3D2
330
10C
100
AcDbEntity
8
A-FURN-POINT-PART-T
100
AcDbText
10
0.0
20
3.0
30
0.0
40
0.001
1
177.0000
100
AcDbAttribute
2
CAPPL
70
1
0
ATTRIB
5
3D3
330
10C
100
AcDbEntity
8
A-FURN-POINT-PART-T
100
AcDbText
10
0.0
20
3.0
30
0.0
40
0.001
1

100
AcDbAttribute
2
CAPTG
70
1
0
ATTRIB
5
3D4
330
10C
100
AcDbEntity
8
A-FURN-POINT-PART-T
100
AcDbText
10
0.0
20
3.0
30
0.0
40
0.001
1
1
100
AcDbAttribute
2
CAPQT
70
1
0
ATTRIB
5
3D5
330
10C
100
AcDbEntity
8
A-FURN-POINT-PART-T
100
AcDbText
10
0.0
20
3.0
30
0.0
40
0.001
1
3.75
100
AcDbAttribute
2
CAPDH
70
1
0
SEQEND
5
3D6
330
3C5
100
AcDbEntity
8
A-FURN
0
ATTDEF
5
3D7
330
10C
100
AcDbEntity
8
A-FURN-PNLS-BUILDUP-T
100
AcDbText
10
18.0
20
4.5
30
0.0
40
3.0
1

7
Standard
72
1
11
18.0
21
4.5
31
0.0
100
AcDbAttributeDefinition
3

2
CAPSTD
70
0
0
ATTDEF
5
3D8
330
10C
100
AcDbEntity
8
A-FURN-PNLS-BUILDUP-T
100
AcDbText
10
0.0
20
0.0
30
0.0
40
0.001
1

100
AcDbAttributeDefinition
3

2
CAPSTDTITLE
70
1
0
ATTDEF
5
3D9
330
10C
100
AcDbEntity
8
A-FURN-PNLS-BUILDUP-T
100
AcDbText
10
0.0
20
0.0
30
0.0
40
0.001
1

100
AcDbAttributeDefinition
3

2
CAPPANELCAT
70
1
0
ATTDEF
5
3DA
330
10C
100
AcDbEntity
8
A-FURN-PNLS-BUILDUP-T
100
AcDbText
10
0.0
20
0.0
30
0.0
40
0.001
1

100
AcDbAttributeDefinition
3

2
CAPPANELNAME
70
1
0
ATTDEF
5
3DB
330
10C
100
AcDbEntity
8
A-FURN-PNLS-BUILDUP-T
100
AcDbText
10
0.0
20
0.0
30
0.0
40
0.001
1

100
AcDbAttributeDefinition
3

2
CAPPANELCONFIG
70
1
0
ATTDEF
5
3DC
330
10C
100
AcDbEntity
8
A-FURN-PNLS-BUILDUP-T
100
AcDbText
10
0.0
20
0.0
30
0.0
40
0.001
1

100
AcDbAttributeDefinition
3

2
CAPPANELWIDTH
70
1
0
ATTDEF
5
3DD
330
10C
100
AcDbEntity
8
A-FURN-PNLS-BUILDUP-T
100
AcDbText
10
0.0
20
0.0
30
0.0
40
0.001
1

100
AcDbAttributeDefinition
3

2
CAPPANELHEIGHT
70
1
0
ATTDEF
5
3DE
330
10C
100
AcDbEntity
8
A-FURN-PNLS-BUILDUP-T
100
AcDbText
10
0.0
20
0.0
30
0.0
40
0.001
1

100
AcDbAttributeDefinition
3

2
CAPALIAS1
70
1
0
ATTDEF
5
3DF
330
10C
100
AcDbEntity
8
A-FURN-PNLS-BUILDUP-T
100
AcDbText
10
0.0
20
0.0
30
0.0
40
0.001
1

100
AcDbAttributeDefinition
3

2
CAPALIAS2
70
1
0
ATTDEF
5
3E0
330
10C
100
AcDbEntity
8
A-FURN-PNLS-BUILDUP-T
100
AcDbText
10
0.0
20
0.0
30
0.0
40
0.001
1

100
AcDbAttributeDefinition
3

2
CAPALIAS3
70
1
0
ENDBLK
5
3E1
330
10C
100
AcDbEntity
8
0
100
AcDbBlockEnd
0
BLOCK
5
3E2
330
111
100
AcDbEntity
8
0
100
AcDbBlockBegin
2
3_B36.000000
70
2
10
0.0
20
0.0
30
0.0
3
3_B36.000000
1

0
INSERT
5
3E3
330
111
100
AcDbEntity
8
A-FURN
100
AcDbBlockReference
66
1
2
3_TS736THF_2
10
0.0
20
0.0
30
0.0
0
ATTRIB
5
3E4
330
111
100
AcDbEntity
8
A-FURN-P-PNLS-54-T
100
AcDbText
10
0.0
20
0.0
30
0.0
40
0.001
1
TS736THF
100
AcDbAttribute
2
CAPPN
70
1
0
ATTRIB
5
3E5
330
111
100
AcDbEntity
8
A-FURN-P-PNLS-54-T
100
AcDbText
10
0.0
20
0.0
30
0.0
40
0.001
1
Base horizontal frame package 36"W - Thin (2 bars, top cap, base trims)
100
AcDbAttribute
2
CAPPD
70
1
0
ATTRIB
5
3E6
330
111
100
AcDbEntity
8
A-FURN-P-PNLS-54-T
100
AcDbText
10
0.0
20
0.0
30
0.0
40
0.001
1
STC
100
AcDbAttribute
2
CAPMG
70
1
0
ATTRIB
5
3E7
330
111
100
AcDbEntity
8
A-FURN-P-PNLS-54-T
100
AcDbText
10
0.0
20
0.0
30
0.0
40
0.001
1
TSA
100
AcDbAttribute
2
CAPMC
70
1
0
ATTRIB
5
3E8
330
111
100
AcDbEntity
8
A-FURN-P-PNLS-54-T
100
AcDbText
10
0.0
20
0.0
30
0.0
40
0.001
1

100
AcDbAttribute
2
CAPGC
70
1
0
ATTRIB
5
3E9
330
111
100
AcDbEntity
8
A-FURN-P-PNLS-54-T
100
AcDbText
10
0.0
20
0.0
30
0.0
40
0.001
1

100
AcDbAttribute
2
CAPALIAS1
70
1
0
ATTRIB
5
3EA
330
111
100
AcDbEntity
8
A-FURN-P-PNLS-54-T
100
AcDbText
10
0.0
20
0.0
30
0.0
40
0.001
1

100
AcDbAttribute
2
CAPALIAS2
70
1
0
ATTRIB
5
3EB
330
111
100
AcDbEntity
8
A-FURN-P-PNLS-54-T
100
AcDbText
10
0.0
20
0.0
30
0.0
40
0.001
1

100
AcDbAttribute
2
CAPALIAS3
70
1
0
ATTRIB
5
3EC
330
111
100
AcDbEntity
8
A-FURN-P-PNLS-54-T
100
AcDbText
10
0.0
20
0.0
30
0.0
40
0.001
1

100
AcDbAttribute
2
CAPBLDG
70
1
0
ATTRIB
5
3ED
330
111
100
AcDbEntity
8
A-FURN-P-PNLS-54-T
100
AcDbText
10
0.0
20
0.0
30
0.0
40
0.001
1

100
AcDbAttribute
2
CAPFLOOR
70
1
0
ATTRIB
5
3EE
330
111
100
AcDbEntity
8
A-FURN-P-PNLS-54-T
100
AcDbText
10
0.0
20
0.0
30
0.0
40
0.001
1

100
AcDbAttribute
2
CAPDEPT
70
1
0
ATTRIB
5
3EF
330
111
100
AcDbEntity
8
A-FURN-P-PNLS-54-T
100
AcDbText
10
0.0
20
0.0
30
0.0
40
0.001
1

100
AcDbAttribute
2
CAPPERSON
70
1
0
ATTRIB
5
3F0
330
111
100
AcDbEntity
8
A-FURN-P-PNLS-54-T
100
AcDbText
10
0.0
20
0.0
30
0.0
40
0.001
1
89.0000
100
AcDbAttribute
2
CAPPL
70
1
0
ATTRIB
5
3F1
330
111
100
AcDbEntity
8
A-FURN-P-PNLS-54-T
100
AcDbText
10
18.0
20
-5.5
30
0.0
40
3.0
1
36/54
7
MONOTXT
72
1
11
18.0
21
-5.5
31
0.0
100
AcDbAttribute
2
CAPTG
70
0
0
ATTRIB
5
3F2
330
111
100
AcDbEntity
8
A-FURN-P-PNLS-54-T
100
AcDbText
10
0.0
20
0.0
30
0.0
40
0.001
1
1
100
AcDbAttribute
2
CAPQT
70
1
0
ATTRIB
5
3F3
330
111
100
AcDbEntity
8
A-FURN-P-PNLS-54-T
100
AcDbText
10
0.0
20
0.0
30
0.0
40
0.001
1
0
100
AcDbAttribute
2
CAPDH
70
1
0
SEQEND
5
3F4
330
3E3
100
AcDbEntity
8
A-FURN
0
INSERT
5
3F5
330
111
100
AcDbEntity
8
A-FURN
100
AcDbBlockReference
66
1
2
3_TS73636TK_2
10
36.0
20
0.0
30
3.75
50
180.0
0
ATTRIB
5
3F6
330
111
100
AcDbEntity
8
A-FURN-POINT-PART-T
100
AcDbText
10
36.0
20
0.0
30
0.0
40
0.001
1
TS73636TK
100
AcDbAttribute
2
CAPPN
70
1
0
ATTRIB
5
3F7
330
111
100
AcDbEntity
8
A-FURN-POINT-PART-T
100
AcDbText
10
36.0
20
0.0
30
0.0
40
0.001
1
Tackable acoustical skin 36"W x 36"H - side 1
100
AcDbAttribute
2
CAPPD
70
1
0
ATTRIB
5
3F8
330
111
100
AcDbEntity
8
A-FURN-POINT-PART-T
100
AcDbText
10
36.0
20
0.0
30
0.0
40
0.001
1
STC
100
AcDbAttribute
2
CAPMG
70
1
0
ATTRIB
5
3F9
330
111
100
AcDbEntity
8
A-FURN-POINT-PART-T
100
AcDbText
10
36.0
20
0.0
30
0.0
40
0.001
1
TSA
100
AcDbAttribute
2
CAPMC
70
1
0
ATTRIB
5
3FA
330
111
100
AcDbEntity
8
A-FURN-POINT-PART-T
100
AcDbText
10
36.0
20
0.0
30
0.0
40
0.001
1

100
AcDbAttribute
2
CAPGC
70
1
0
ATTRIB
5
3FB
330
111
100
AcDbEntity
8
A-FURN-POINT-PART-T
100
AcDbText
10
36.0
20
0.0
30
0.0
40
0.001
1

100
AcDbAttribute
2
CAPALIAS1
70
1
0
ATTRIB
5
3FC
330
111
100
AcDbEntity
8
A-FURN-POINT-PART-T
100
AcDbText
10
36.0
20
0.0
30
0.0
40
0.001
1

100
AcDbAttribute
2
CAPALIAS2
70
1
0
ATTRIB
5
3FD
330
111
100
AcDbEntity
8
A-FURN-POINT-PART-T
100
AcDbText
10
36.0
20
0.0
30
0.0
40
0.001
1

100
AcDbAttribute
2
CAPALIAS3
70
1
0
ATTRIB
5
3FE
330
111
100
AcDbEntity
8
A-FURN-POINT-PART-T
100
AcDbText
10
36.0
20
0.0
30
0.0
40
0.001
1

100
AcDbAttribute
2
CAPBLDG
70
1
0
ATTRIB
5
3FF
330
111
100
AcDbEntity
8
A-FURN-POINT-PART-T
100
AcDbText
10
36.0
20
0.0
30
0.0
40
0.001
1

100
AcDbAttribute
2
CAPFLOOR
70
1
0
ATTRIB
5
400
330
111
100
AcDbEntity
8
A-FURN-POINT-PART-T
100
AcDbText
10
36.0
20
0.0
30
0.0
40
0.001
1

100
AcDbAttribute
2
CAPDEPT
70
1
0
ATTRIB
5
401
330
111
100
AcDbEntity
8
A-FURN-POINT-PART-T
100
AcDbText
10
36.0
20
0.0
30
0.0
40
0.001
1

100
AcDbAttribute
2
CAPPERSON
70
1
0
ATTRIB
5
402
330
111
100
AcDbEntity
8
A-FURN-POINT-PART-T
100
AcDbText
10
36.0
20
0.0
30
0.0
40
0.001
1
177.0000
100
AcDbAttribute
2
CAPPL
70
1
0
ATTRIB
5
403
330
111
100
AcDbEntity
8
A-FURN-POINT-PART-T
100
AcDbText
10
36.0
20
0.0
30
0.0
40
0.001
1

100
AcDbAttribute
2
CAPTG
70
1
0
ATTRIB
5
404
330
111
100
AcDbEntity
8
A-FURN-POINT-PART-T
100
AcDbText
10
36.0
20
0.0
30
0.0
40
0.001
1
1
100
AcDbAttribute
2
CAPQT
70
1
0
ATTRIB
5
405
330
111
100
AcDbEntity
8
A-FURN-POINT-PART-T
100
AcDbText
10
36.0
20
0.0
30
0.0
40
0.001
1
3.75
100
AcDbAttribute
2
CAPDH
70
1
0
SEQEND
5
406
330
3F5
100
AcDbEntity
8
A-FURN
0
INSERT
5
407
330
111
100
AcDbEntity
8
A-FURN
100
AcDbBlockReference
66
1
2
3_TS71236SPW
10
0.0
20
0.0
30
41.15625
0
ATTRIB
5
408
330
111
100
AcDbEntity
8
A-FURN-POINT-PART-T
100
AcDbText
10
0.0
20
0.0
30
0.0
40
0.001
1
TS71236SPW
100
AcDbAttribute
2
CAPPN
70
1
0
ATTRIB
5
409
330
111
100
AcDbEntity
8
A-FURN-POINT-PART-T
100
AcDbText
10
0.0
20
0.0
30
0.0
40
0.001
1
Glass window 36"W x 12"H, single-pane 6500 clear (both sides)
100
AcDbAttribute
2
CAPPD
70
1
0
ATTRIB
5
40A
330
111
100
AcDbEntity
8
A-FURN-POINT-PART-T
100
AcDbText
10
0.0
20
0.0
30
0.0
40
0.001
1
STC
100
AcDbAttribute
2
CAPMG
70
1
0
ATTRIB
5
40B
330
111
100
AcDbEntity
8
A-FURN-POINT-PART-T
100
AcDbText
10
0.0
20
0.0
30
0.0
40
0.001
1
TSA
100
AcDbAttribute
2
CAPMC
70
1
0
ATTRIB
5
40C
330
111
100
AcDbEntity
8
A-FURN-POINT-PART-T
100
AcDbText
10
0.0
20
0.0
30
0.0
40
0.001
1

100
AcDbAttribute
2
CAPGC
70
1
0
ATTRIB
5
40D
330
111
100
AcDbEntity
8
A-FURN-POINT-PART-T
100
AcDbText
10
0.0
20
0.0
30
0.0
40
0.001
1

100
AcDbAttribute
2
CAPALIAS1
70
1
0
ATTRIB
5
40E
330
111
100
AcDbEntity
8
A-FURN-POINT-PART-T
100
AcDbText
10
0.0
20
0.0
30
0.0
40
0.001
1

100
AcDbAttribute
2
CAPALIAS2
70
1
0
ATTRIB
5
40F
330
111
100
AcDbEntity
8
A-FURN-POINT-PART-T
100
AcDbText
10
0.0
20
0.0
30
0.0
40
0.001
1

100
AcDbAttribute
2
CAPALIAS3
70
1
0
ATTRIB
5
410
330
111
100
AcDbEntity
8
A-FURN-POINT-PART-T
100
AcDbText
10
0.0
20
0.0
30
0.0
40
0.001
1

100
AcDbAttribute
2
CAPBLDG
70
1
0
ATTRIB
5
411
330
111
100
AcDbEntity
8
A-FURN-POINT-PART-T
100
AcDbText
10
0.0
20
0.0
30
0.0
40
0.001
1

100
AcDbAttribute
2
CAPFLOOR
70
1
0
ATTRIB
5
412
330
111
100
AcDbEntity
8
A-FURN-POINT-PART-T
100
AcDbText
10
0.0
20
0.0
30
0.0
40
0.001
1

100
AcDbAttribute
2
CAPDEPT
70
1
0
ATTRIB
5
413
330
111
100
AcDbEntity
8
A-FURN-POINT-PART-T
100
AcDbText
10
0.0
20
0.0
30
0.0
40
0.001
1

100
AcDbAttribute
2
CAPPERSON
70
1
0
ATTRIB
5
414
330
111
100
AcDbEntity
8
A-FURN-POINT-PART-T
100
AcDbText
10
0.0
20
0.0
30
0.0
40
0.001
1
466.0000
100
AcDbAttribute
2
CAPPL
70
1
0
ATTRIB
5
415
330
111
100
AcDbEntity
8
A-FURN-POINT-PART-T
100
AcDbText
10
0.0
20
0.0
30
0.0
40
0.001
1

100
AcDbAttribute
2
CAPTG
70
1
0
ATTRIB
5
416
330
111
100
AcDbEntity
8
A-FURN-POINT-PART-T
100
AcDbText
10
0.0
20
0.0
30
0.0
40
0.001
1
1
100
AcDbAttribute
2
CAPQT
70
1
0
ATTRIB
5
417
330
111
100
AcDbEntity
8
A-FURN-POINT-PART-T
100
AcDbText
10
0.0
20
0.0
30
0.0
40
0.001
1
41.1563
100
AcDbAttribute
2
CAPDH
70
1
0
SEQEND
5
418
330
407
100
AcDbEntity
8
A-FURN
0
INSERT
5
419
330
111
100
AcDbEntity
8
A-FURN
100
AcDbBlockReference
66
1
2
3_TS73636TK_2
10
0.0
20
3.0
30
3.75
0
ATTRIB
5
41A
330
111
100
AcDbEntity
8
A-FURN-POINT-PART-T
100
AcDbText
10
0.0
20
3.0
30
0.0
40
0.001
1
TS73636TK
100
AcDbAttribute
2
CAPPN
70
1
0
ATTRIB
5
41B
330
111
100
AcDbEntity
8
A-FURN-POINT-PART-T
100
AcDbText
10
0.0
20
3.0
30
0.0
40
0.001
1
Tackable acoustical skin 36"W x 36"H - side 2
100
AcDbAttribute
2
CAPPD
70
1
0
ATTRIB
5
41C
330
111
100
AcDbEntity
8
A-FURN-POINT-PART-T
100
AcDbText
10
0.0
20
3.0
30
0.0
40
0.001
1
STC
100
AcDbAttribute
2
CAPMG
70
1
0
ATTRIB
5
41D
330
111
100
AcDbEntity
8
A-FURN-POINT-PART-T
100
AcDbText
10
0.0
20
3.0
30
0.0
40
0.001
1
TSA
100
AcDbAttribute
2
CAPMC
70
1
0
ATTRIB
5
41E
330
111
100
AcDbEntity
8
A-FURN-POINT-PART-T
100
AcDbText
10
0.0
20
3.0
30
0.0
40
0.001
1

100
AcDbAttribute
2
CAPGC
70
1
0
ATTRIB
5
41F
330
111
100
AcDbEntity
8
A-FURN-POINT-PART-T
100
AcDbText
10
0.0
20
3.0
30
0.0
40
0.001
1

100
AcDbAttribute
2
CAPALIAS1
70
1
0
ATTRIB
5
420
330
111
100
AcDbEntity
8
A-FURN-POINT-PART-T
100
AcDbText
10
0.0
20
3.0
30
0.0
40
0.001
1

100
AcDbAttribute
2
CAPALIAS2
70
1
0
ATTRIB
5
421
330
111
100
AcDbEntity
8
A-FURN-POINT-PART-T
100
AcDbText
10
0.0
20
3.0
30
0.0
40
0.001
1

100
AcDbAttribute
2
CAPALIAS3
70
1
0
ATTRIB
5
422
330
111
100
AcDbEntity
8
A-FURN-POINT-PART-T
100
AcDbText
10
0.0
20
3.0
30
0.0
40
0.001
1

100
AcDbAttribute
2
CAPBLDG
70
1
0
ATTRIB
5
423
330
111
100
AcDbEntity
8
A-FURN-POINT-PART-T
100
AcDbText
10
0.0
20
3.0
30
0.0
40
0.001
1

100
AcDbAttribute
2
CAPFLOOR
70
1
0
ATTRIB
5
424
330
111
100
AcDbEntity
8
A-FURN-POINT-PART-T
100
AcDbText
10
0.0
20
3.0
30
0.0
40
0.001
1

100
AcDbAttribute
2
CAPDEPT
70
1
0
ATTRIB
5
425
330
111
100
AcDbEntity
8
A-FURN-POINT-PART-T
100
AcDbText
10
0.0
20
3.0
30
0.0
40
0.001
1

100
AcDbAttribute
2
CAPPERSON
70
1
0
ATTRIB
5
426
330
111
100
AcDbEntity
8
A-FURN-POINT-PART-T
100
AcDbText
10
0.0
20
3.0
30
0.0
40
0.001
1
177.0000
100
AcDbAttribute
2
CAPPL
70
1
0
ATTRIB
5
427
330
111
100
AcDbEntity
8
A-FURN-POINT-PART-T
100
AcDbText
10
0.0
20
3.0
30
0.0
40
0.001
1

100
AcDbAttribute
2
CAPTG
70
1
0
ATTRIB
5
428
330
111
100
AcDbEntity
8
A-FURN-POINT-PART-T
100
AcDbText
10
0.0
20
3.0
30
0.0
40
0.001
1
1
100
AcDbAttribute
2
CAPQT
70
1
0
ATTRIB
5
429
330
111
100
AcDbEntity
8
A-FURN-POINT-PART-T
100
AcDbText
10
0.0
20
3.0
30
0.0
40
0.001
1
3.75
100
AcDbAttribute
2
CAPDH
70
1
0
SEQEND
5
42A
330
419
100
AcDbEntity
8
A-FURN
0
ATTDEF
5
42B
330
111
100
AcDbEntity
8
A-FURN-PNLS-BUILDUP-T
100
AcDbText
10
18.0
20
4.5
30
0.0
40
3.0
1

7
Standard
72
1
11
18.0
21
4.5
31
0.0
100
AcDbAttributeDefinition
3

2
CAPSTD
70
0
0
ATTDEF
5
42C
330
111
100
AcDbEntity
8
A-FURN-PNLS-BUILDUP-T
100
AcDbText
10
0.0
20
0.0
30
0.0
40
0.001
1

100
AcDbAttributeDefinition
3

2
CAPSTDTITLE
70
1
0
ATTDEF
5
42D
330
111
100
AcDbEntity
8
A-FURN-PNLS-BUILDUP-T
100
AcDbText
10
0.0
20
0.0
30
0.0
40
0.001
1

100
AcDbAttributeDefinition
3

2
CAPPANELCAT
70
1
0
ATTDEF
5
42E
330
111
100
AcDbEntity
8
A-FURN-PNLS-BUILDUP-T
100
AcDbText
10
0.0
20
0.0
30
0.0
40
0.001
1

100
AcDbAttributeDefinition
3

2
CAPPANELNAME
70
1
0
ATTDEF
5
42F
330
111
100
AcDbEntity
8
A-FURN-PNLS-BUILDUP-T
100
AcDbText
10
0.0
20
0.0
30
0.0
40
0.001
1

100
AcDbAttributeDefinition
3

2
CAPPANELCONFIG
70
1
0
ATTDEF
5
430
330
111
100
AcDbEntity
8
A-FURN-PNLS-BUILDUP-T
100
AcDbText
10
0.0
20
0.0
30
0.0
40
0.001
1

100
AcDbAttributeDefinition
3

2
CAPPANELWIDTH
70
1
0
ATTDEF
5
431
330
111
100
AcDbEntity
8
A-FURN-PNLS-BUILDUP-T
100
AcDbText
10
0.0
20
0.0
30
0.0
40
0.001
1

100
AcDbAttributeDefinition
3

2
CAPPANELHEIGHT
70
1
0
ATTDEF
5
432
330
111
100
AcDbEntity
8
A-FURN-PNLS-BUILDUP-T
100
AcDbText
10
0.0
20
0.0
30
0.0
40
0.001
1

100
AcDbAttributeDefinition
3

2
CAPALIAS1
70
1
0
ATTDEF
5
433
330
111
100
AcDbEntity
8
A-FURN-PNLS-BUILDUP-T
100
AcDbText
10
0.0
20
0.0
30
0.0
40
0.001
1

100
AcDbAttributeDefinition
3

2
CAPALIAS2
70
1
0
ATTDEF
5
434
330
111
100
AcDbEntity
8
A-FURN-PNLS-BUILDUP-T
100
AcDbText
10
0.0
20
0.0
30
0.0
40
0.001
1

100
AcDbAttributeDefinition
3

2
CAPALIAS3
70
1
0
ENDBLK
5
435
330
111
100
AcDbEntity
8
0
100
AcDbBlockEnd
0
BLOCK
5
436
330
112
100
AcDbEntity
8
0
100
AcDbBlockBegin
2
P_TS745TCLJ
70
2
10
0.0
20
0.0
30
0.0
3
P_TS745TCLJ
1

0
LINE
5
437
330
112
100
AcDbEntity
8
A-FURN-P-PNLS-JNCT
100
AcDbLine
10
0.0
20
0.0
30
0.0
11
3.0
21
0.0
31
0.0
0
LINE
5
438
330
112
100
AcDbEntity
8
A-FURN-P-PNLS-JNCT
100
AcDbLine
10
3.0
20
0.0
30
0.0
11
3.0
21
3.0
31
0.0
0
LINE
5
439
330
112
100
AcDbEntity
8
A-FURN-P-PNLS-JNCT
100
AcDbLine
10
3.0
20
3.0
30
0.0
11
0.0
21
3.0
31
0.0
0
LINE
5
43A
330
112
100
AcDbEntity
8
A-FURN-P-PNLS-JNCT
100
AcDbLine
10
0.0
20
3.0
30
0.0
11
0.0
21
0.0
31
0.0
0
LINE
5
43B
330
112
100
AcDbEntity
8
A-FURN-P-PNLS-JNCT
100
AcDbLine
10
0.0
20
1.5
30
0.0
11
1.5
21
1.5
31
0.0
0
LINE
5
43C
330
112
100
AcDbEntity
8
A-FURN-P-PNLS-JNCT
100
AcDbLine
10
1.5
20
1.5
30
0.0
11
1.5
21
0.0
31
0.0
0
POINT
5
43D
330
112
100
AcDbEntity
8
A-FURN-P-PNLS-JNCT
100
AcDbPoint
10
0.0
20
0.0
30
0.0
0
POINT
5
43E
330
112
100
AcDbEntity
8
A-FURN-P-PNLS-JNCT
100
AcDbPoint
10
3.0
20
0.0
30
0.0
0
POINT
5
43F
330
112
100
AcDbEntity
8
A-FURN-P-PNLS-JNCT
100
AcDbPoint
10
3.0
20
3.0
30
0.0
0
POINT
5
440
330
112
100
AcDbEntity
8
A-FURN-P-PNLS-JNCT
100
AcDbPoint
10
0.0
20
3.0
30
0.0
0
ATTDEF
5
441
330
112
100
AcDbEntity
8
A-FURN-P-PNLS-JNCT-T
100
AcDbText
10
0.0
20
0.0
30
0.0
40
0.001
1

100
AcDbAttributeDefinition
3

2
CAPPN
70
1
0
ATTDEF
5
442
330
112
100
AcDbEntity
8
A-FURN-P-PNLS-JNCT-T
100
AcDbText
10
0.0
20
0.0
30
0.0
40
0.001
1

100
AcDbAttributeDefinition
3

2
CAPPD
70
1
0
ATTDEF
5
443
330
112
100
AcDbEntity
8
A-FURN-P-PNLS-JNCT-T
100
AcDbText
10
0.0
20
0.0
30
0.0
40
0.001
1

100
AcDbAttributeDefinition
3

2
CAPMG
70
1
0
ATTDEF
5
444
330
112
100
AcDbEntity
8
A-FURN-P-PNLS-JNCT-T
100
AcDbText
10
0.0
20
0.0
30
0.0
40
0.001
1

100
AcDbAttributeDefinition
3

2
CAPMC
70
1
0
ATTDEF
5
445
330
112
100
AcDbEntity
8
A-FURN-P-PNLS-JNCT-T
100
AcDbText
10
0.0
20
0.0
30
0.0
40
0.001
1

100
AcDbAttributeDefinition
3

2
CAPGC
70
1
0
ATTDEF
5
446
330
112
100
AcDbEntity
8
A-FURN-P-PNLS-JNCT-T
100
AcDbText
10
0.0
20
0.0
30
0.0
40
0.001
1

100
AcDbAttributeDefinition
3

2
CAPALIAS1
70
1
0
ATTDEF
5
447
330
112
100
AcDbEntity
8
A-FURN-P-PNLS-JNCT-T
100
AcDbText
10
0.0
20
0.0
30
0.0
40
0.001
1

100
AcDbAttributeDefinition
3

2
CAPALIAS2
70
1
0
ATTDEF
5
448
330
112
100
AcDbEntity
8
A-FURN-P-PNLS-JNCT-T
100
AcDbText
10
0.0
20
0.0
30
0.0
40
0.001
1

100
AcDbAttributeDefinition
3

2
CAPALIAS3
70
1
0
ATTDEF
5
449
330
112
100
AcDbEntity
8
A-FURN-P-PNLS-JNCT-T
100
AcDbText
10
0.0
20
0.0
30
0.0
40
0.001
1

100
AcDbAttributeDefinition
3

2
CAPBLDG
70
1
0
ATTDEF
5
44A
330
112
100
AcDbEntity
8
A-FURN-P-PNLS-JNCT-T
100
AcDbText
10
0.0
20
0.0
30
0.0
40
0.001
1

100
AcDbAttributeDefinition
3

2
CAPFLOOR
70
1
0
ATTDEF
5
44B
330
112
100
AcDbEntity
8
A-FURN-P-PNLS-JNCT-T
100
AcDbText
10
0.0
20
0.0
30
0.0
40
0.001
1

100
AcDbAttributeDefinition
3

2
CAPDEPT
70
1
0
ATTDEF
5
44C
330
112
100
AcDbEntity
8
A-FURN-P-PNLS-JNCT-T
100
AcDbText
10
0.0
20
0.0
30
0.0
40
0.001
1

100
AcDbAttributeDefinition
3

2
CAPPERSON
70
1
0
ATTDEF
5
44D
330
112
100
AcDbEntity
8
A-FURN-P-PNLS-JNCT-T
100
AcDbText
10
0.0
20
0.0
30
0.0
40
0.001
1

100
AcDbAttributeDefinition
3

2
CAPPL
70
1
0
ATTDEF
5
44E
330
112
100
AcDbEntity
8
A-FURN-P-PNLS-JNCT-T
100
AcDbText
10
1.359
20
6.073
30
0.0
40
2.5
1

7
MONOTXT
72
1
11
3.716
21
3.716
31
0.0
100
AcDbAttributeDefinition
3

2
CAPTG
70
0
0
ATTDEF
5
44F
330
112
100
AcDbEntity
8
A-FURN-P-PNLS-JNCT-T
100
AcDbText
10
0.0
20
0.0
30
0.0
40
0.001
1

100
AcDbAttributeDefinition
3

2
CAPQT
70
1
0
ATTDEF
5
450
330
112
100
AcDbEntity
8
A-FURN-P-PNLS-JNCT-T
100
AcDbText
10
0.0
20
0.0
30
0.0
40
0.001
1

100
AcDbAttributeDefinition
3

2
CAPDH
70
1
0
ENDBLK
5
451
330
112
100
AcDbEntity
8
0
100
AcDbBlockEnd
0
BLOCK
5
452
330
113
100
AcDbEntity
8
0
100
AcDbBlockBegin
2
3_TS745TCLJ
70
2
10
0.0
20
0.0
30
0.0
3
3_TS745TCLJ
1

0
POLYLINE
5
453
330
113
100
AcDbEntity
8
AFUPA-3D-020
100
AcDbPolyFaceMesh
66
1
10
0.0
20
0.0
30
0.0
70
64
71
8
72
6
0
VERTEX
5
454
330
453
100
AcDbEntity
8
AFUPA-3D-020
100
AcDbVertex
100
AcDbPolyFaceMeshVertex
10
0.0
20
0.0
30
0.0
70
192
0
VERTEX
5
455
330
453
100
AcDbEntity
8
AFUPA-3D-020
100
AcDbVertex
100
AcDbPolyFaceMeshVertex
10
3.0
20
0.0
30
0.0
70
192
0
VERTEX
5
456
330
453
100
AcDbEntity
8
AFUPA-3D-020
100
AcDbVertex
100
AcDbPolyFaceMeshVertex
10
3.0
20
3.0
30
0.0
70
192
0
VERTEX
5
457
330
453
100
AcDbEntity
8
AFUPA-3D-020
100
AcDbVertex
100
AcDbPolyFaceMeshVertex
10
0.0
20
3.0
30
0.0
70
192
0
VERTEX
5
458
330
453
100
AcDbEntity
8
AFUPA-3D-020
100
AcDbVertex
100
AcDbPolyFaceMeshVertex
10
0.0
20
0.0
30
53.125
70
192
0
VERTEX
5
459
330
453
100
AcDbEntity
8
AFUPA-3D-020
100
AcDbVertex
100
AcDbPolyFaceMeshVertex
10
3.0
20
0.0
30
53.125
70
192
0
VERTEX
5
45A
330
453
100
AcDbEntity
8
AFUPA-3D-020
100
AcDbVertex
100
AcDbPolyFaceMeshVertex
10
3.0
20
3.0
30
53.125
70
192
0
VERTEX
5
45B
330
453
100
AcDbEntity
8
AFUPA-3D-020
100
AcDbVertex
100
AcDbPolyFaceMeshVertex
10
0.0
20
3.0
30
53.125
70
192
0
VERTEX
5
45C
330
453
100
AcDbEntity
8
AFUPA-3D-020
100
AcDbFaceRecord
10
0.0
20
0.0
30
0.0
70
128
71
1
72
4
73
3
74
2
0
VERTEX
5
45D
330
453
100
AcDbEntity
8
AFUPA-3D-020
100
AcDbFaceRecord
10
0.0
20
0.0
30
0.0
70
128
71
5
72
6
73
7
74
8
0
VERTEX
5
45E
330
453
100
AcDbEntity
8
AFUPA-3D-020
100
AcDbFaceRecord
10
0.0
20
0.0
30
0.0
70
128
71
1
72
2
73
6
74
5
0
VERTEX
5
45F
330
453
100
AcDbEntity
8
AFUPA-3D-020
100
AcDbFaceRecord
10
0.0
20
0.0
30
0.0
70
128
71
2
72
3
73
7
74
6
0
VERTEX
5
460
330
453
100
AcDbEntity
8
AFUPA-3D-020
100
AcDbFaceRecord
10
0.0
20
0.0
30
0.0
70
128
71
3
72
4
73
8
74
7
0
VERTEX
5
461
330
453
100
AcDbEntity
8
AFUPA-3D-020
100
AcDbFaceRecord
10
0.0
20
0.0
30
0.0
70
128
71
4
72
1
73
5
74
8
0
SEQEND
5
462
330
453
100
AcDbEntity
8
AFUPA-3D-020
0
POLYLINE
5
463
330
113
100
AcDbEntity
8
AFUPA-3D-020
100
AcDbPolyFaceMesh
66
1
10
0.0
20
0.0
30
0.0
70
64
71
10
72
12
0
VERTEX
5
464
330
463
100
AcDbEntity
8
AFUPA-3D-020
100
AcDbVertex
100
AcDbPolyFaceMeshVertex
10
3.0
20
0.0
30
0.0
70
192
0
VERTEX
5
465
330
463
100
AcDbEntity
8
AFUPA-3D-020
100
AcDbVertex
100
AcDbPolyFaceMeshVertex
10
3.0
20
-0.75
30
0.0
70
192
0
VERTEX
5
466
330
463
100
AcDbEntity
8
AFUPA-3D-020
100
AcDbVertex
100
AcDbPolyFaceMeshVertex
10
0.0
20
-0.75
30
0.0
70
192
0
VERTEX
5
467
330
463
100
AcDbEntity
8
AFUPA-3D-020
100
AcDbVertex
100
AcDbPolyFaceMeshVertex
10
0.0
20
0.0
30
0.0
70
192
0
VERTEX
5
468
330
463
100
AcDbEntity
8
AFUPA-3D-020
100
AcDbVertex
100
AcDbPolyFaceMeshVertex
10
3.0
20
0.0
30
40.75
70
192
0
VERTEX
5
469
330
463
100
AcDbEntity
8
AFUPA-3D-020
100
AcDbVertex
100
AcDbPolyFaceMeshVertex
10
3.0
20
-0.75
30
40.75
70
192
0
VERTEX
5
46A
330
463
100
AcDbEntity
8
AFUPA-3D-020
100
AcDbVertex
100
AcDbPolyFaceMeshVertex
10
0.0
20
-0.75
30
40.75
70
192
0
VERTEX
5
46B
330
463
100
AcDbEntity
8
AFUPA-3D-020
100
AcDbVertex
100
AcDbPolyFaceMeshVertex
10
0.0
20
0.0
30
40.75
70
192
0
VERTEX
5
46C
330
463
100
AcDbEntity
8
AFUPA-3D-020
100
AcDbVertex
100
AcDbPolyFaceMeshVertex
10
1.5
20
-0.375
30
0.0
70
192
0
VERTEX
5
46D
330
463
100
AcDbEntity
8
AFUPA-3D-020
100
AcDbVertex
100
AcDbPolyFaceMeshVertex
10
1.5
20
-0.375
30
40.75
70
192
0
VERTEX
5
46E
330
463
100
AcDbEntity
8
AFUPA-3D-020
100
AcDbFaceRecord
10
0.0
20
0.0
30
0.0
70
128
71
1
72
2
73
6
74
5
0
VERTEX
5
46F
330
463
100
AcDbEntity
8
AFUPA-3D-020
100
AcDbFaceRecord
10
0.0
20
0.0
30
0.0
70
128
71
9
72
2
73
1
0
VERTEX
5
470
330
463
100
AcDbEntity
8
AFUPA-3D-020
100
AcDbFaceRecord
10
0.0
20
0.0
30
0.0
70
128
71
10
72
5
73
6
0
VERTEX
5
471
330
463
100
AcDbEntity
8
AFUPA-3D-020
100
AcDbFaceRecord
10
0.0
20
0.0
30
0.0
70
128
71
2
72
3
73
7
74
6
0
VERTEX
5
472
330
463
100
AcDbEntity
8
AFUPA-3D-020
100
AcDbFaceRecord
10
0.0
20
0.0
30
0.0
70
128
71
9
72
3
73
2
0
VERTEX
5
473
330
463
100
AcDbEntity
8
AFUPA-3D-020
100
AcDbFaceRecord
10
0.0
20
0.0
30
0.0
70
128
71
10
72
6
73
7
0
VERTEX
5
474
330
463
100
AcDbEntity
8
AFUPA-3D-020
100
AcDbFaceRecord
10
0.0
20
0.0
30
0.0
70
128
71
3
72
4
73
8
74
7
0
VERTEX
5
475
330
463
100
AcDbEntity
8
AFUPA-3D-020
100
AcDbFaceRecord
10
0.0
20
0.0
30
0.0
70
128
71
9
72
4
73
3
0
VERTEX
5
476
330
463
100
AcDbEntity
8
AFUPA-3D-020
100
AcDbFaceRecord
10
0.0
20
0.0
30
0.0
70
128
71
10
72
7
73
8
0
VERTEX
5
477
330
463
100
AcDbEntity
8
AFUPA-3D-020
100
AcDbFaceRecord
10
0.0
20
0.0
30
0.0
70
128
71
4
72
1
73
5
74
8
0
VERTEX
5
478
330
463
100
AcDbEntity
8
AFUPA-3D-020
100
AcDbFaceRecord
10
0.0
20
0.0
30
0.0
70
128
71
9
72
1
73
4
0
VERTEX
5
479
330
463
100
AcDbEntity
8
AFUPA-3D-020
100
AcDbFaceRecord
10
0.0
20
0.0
30
0.0
70
128
71
10
72
8
73
5
0
SEQEND
5
47A
330
463
100
AcDbEntity
8
AFUPA-3D-020
0
POLYLINE
5
47B
330
113
100
AcDbEntity
8
AFUPA-3D-020
100
AcDbPolyFaceMesh
66
1
10
0.0
20
0.0
30
0.0
70
64
71
10
72
12
0
VERTEX
5
47C
330
47B
100
AcDbEntity
8
AFUPA-3D-020
100
AcDbVertex
100
AcDbPolyFaceMeshVertex
10
0.0
20
0.0
30
0.0
70
192
0
VERTEX
5
47D
330
47B
100
AcDbEntity
8
AFUPA-3D-020
100
AcDbVertex
100
AcDbPolyFaceMeshVertex
10
-0.75
20
0.0
30
0.0
70
192
0
VERTEX
5
47E
330
47B
100
AcDbEntity
8
AFUPA-3D-020
100
AcDbVertex
100
AcDbPolyFaceMeshVertex
10
-0.75
20
3.0
30
0.0
70
192
0
VERTEX
5
47F
330
47B
100
AcDbEntity
8
AFUPA-3D-020
100
AcDbVertex
100
AcDbPolyFaceMeshVertex
10
0.0
20
3.0
30
0.0
70
192
0
VERTEX
5
480
330
47B
100
AcDbEntity
8
AFUPA-3D-020
100
AcDbVertex
100
AcDbPolyFaceMeshVertex
10
0.0
20
0.0
30
53.125
70
192
0
VERTEX
5
481
330
47B
100
AcDbEntity
8
AFUPA-3D-020
100
AcDbVertex
100
AcDbPolyFaceMeshVertex
10
-0.75
20
0.0
30
53.125
70
192
0
VERTEX
5
482
330
47B
100
AcDbEntity
8
AFUPA-3D-020
100
AcDbVertex
100
AcDbPolyFaceMeshVertex
10
-0.75
20
3.0
30
53.125
70
192
0
VERTEX
5
483
330
47B
100
AcDbEntity
8
AFUPA-3D-020
100
AcDbVertex
100
AcDbPolyFaceMeshVertex
10
0.0
20
3.0
30
53.125
70
192
0
VERTEX
5
484
330
47B
100
AcDbEntity
8
AFUPA-3D-020
100
AcDbVertex
100
AcDbPolyFaceMeshVertex
10
-0.375
20
1.5
30
0.0
70
192
0
VERTEX
5
485
330
47B
100
AcDbEntity
8
AFUPA-3D-020
100
AcDbVertex
100
AcDbPolyFaceMeshVertex
10
-0.375
20
1.5
30
53.125
70
192
0
VERTEX
5
486
330
47B
100
AcDbEntity
8
AFUPA-3D-020
100
AcDbFaceRecord
10
0.0
20
0.0
30
0.0
70
128
71
1
72
2
73
6
74
5
0
VERTEX
5
487
330
47B
100
AcDbEntity
8
AFUPA-3D-020
100
AcDbFaceRecord
10
0.0
20
0.0
30
0.0
70
128
71
9
72
2
73
1
0
VERTEX
5
488
330
47B
100
AcDbEntity
8
AFUPA-3D-020
100
AcDbFaceRecord
10
0.0
20
0.0
30
0.0
70
128
71
10
72
5
73
6
0
VERTEX
5
489
330
47B
100
AcDbEntity
8
AFUPA-3D-020
100
AcDbFaceRecord
10
0.0
20
0.0
30
0.0
70
128
71
2
72
3
73
7
74
6
0
VERTEX
5
48A
330
47B
100
AcDbEntity
8
AFUPA-3D-020
100
AcDbFaceRecord
10
0.0
20
0.0
30
0.0
70
128
71
9
72
3
73
2
0
VERTEX
5
48B
330
47B
100
AcDbEntity
8
AFUPA-3D-020
100
AcDbFaceRecord
10
0.0
20
0.0
30
0.0
70
128
71
10
72
6
73
7
0
VERTEX
5
48C
330
47B
100
AcDbEntity
8
AFUPA-3D-020
100
AcDbFaceRecord
10
0.0
20
0.0
30
0.0
70
128
71
3
72
4
73
8
74
7
0
VERTEX
5
48D
330
47B
100
AcDbEntity
8
AFUPA-3D-020
100
AcDbFaceRecord
10
0.0
20
0.0
30
0.0
70
128
71
9
72
4
73
3
0
VERTEX
5
48E
330
47B
100
AcDbEntity
8
AFUPA-3D-020
100
AcDbFaceRecord
10
0.0
20
0.0
30
0.0
70
128
71
10
72
7
73
8
0
VERTEX
5
48F
330
47B
100
AcDbEntity
8
AFUPA-3D-020
100
AcDbFaceRecord
10
0.0
20
0.0
30
0.0
70
128
71
4
72
1
73
5
74
8
0
VERTEX
5
490
330
47B
100
AcDbEntity
8
AFUPA-3D-020
100
AcDbFaceRecord
10
0.0
20
0.0
30
0.0
70
128
71
9
72
1
73
4
0
VERTEX
5
491
330
47B
100
AcDbEntity
8
AFUPA-3D-020
100
AcDbFaceRecord
10
0.0
20
0.0
30
0.0
70
128
71
10
72
8
73
5
0
SEQEND
5
492
330
47B
100
AcDbEntity
8
AFUPA-3D-020
0
POLYLINE
5
493
330
113
100
AcDbEntity
8
AFUPA-3D-020
100
AcDbPolyFaceMesh
66
1
10
0.0
20
0.0
30
0.0
70
64
71
8
72
6
0
VERTEX
5
494
330
493
100
AcDbEntity
8
AFUPA-3D-020
100
AcDbVertex
100
AcDbPolyFaceMeshVertex
10
0.0
20
0.0
30
53.125
70
192
0
VERTEX
5
495
330
493
100
AcDbEntity
8
AFUPA-3D-020
100
AcDbVertex
100
AcDbPolyFaceMeshVertex
10
3.0
20
0.0
30
53.125
70
192
0
VERTEX
5
496
330
493
100
AcDbEntity
8
AFUPA-3D-020
100
AcDbVertex
100
AcDbPolyFaceMeshVertex
10
3.0
20
3.0
30
53.125
70
192
0
VERTEX
5
497
330
493
100
AcDbEntity
8
AFUPA-3D-020
100
AcDbVertex
100
AcDbPolyFaceMeshVertex
10
0.0
20
3.0
30
53.125
70
192
0
VERTEX
5
498
330
493
100
AcDbEntity
8
AFUPA-3D-020
100
AcDbVertex
100
AcDbPolyFaceMeshVertex
10
0.0
20
0.0
30
54.25
70
192
0
VERTEX
5
499
330
493
100
AcDbEntity
8
AFUPA-3D-020
100
AcDbVertex
100
AcDbPolyFaceMeshVertex
10
3.0
20
0.0
30
54.25
70
192
0
VERTEX
5
49A
330
493
100
AcDbEntity
8
AFUPA-3D-020
100
AcDbVertex
100
AcDbPolyFaceMeshVertex
10
3.0
20
3.0
30
54.25
70
192
0
VERTEX
5
49B
330
493
100
AcDbEntity
8
AFUPA-3D-020
100
AcDbVertex
100
AcDbPolyFaceMeshVertex
10
0.0
20
3.0
30
54.25
70
192
0
VERTEX
5
49C
330
493
100
AcDbEntity
8
AFUPA-3D-020
100
AcDbFaceRecord
10
0.0
20
0.0
30
0.0
70
128
71
1
72
4
73
3
74
2
0
VERTEX
5
49D
330
493
100
AcDbEntity
8
AFUPA-3D-020
100
AcDbFaceRecord
10
0.0
20
0.0
30
0.0
70
128
71
5
72
6
73
7
74
8
0
VERTEX
5
49E
330
493
100
AcDbEntity
8
AFUPA-3D-020
100
AcDbFaceRecord
10
0.0
20
0.0
30
0.0
70
128
71
1
72
2
73
6
74
5
0
VERTEX
5
49F
330
493
100
AcDbEntity
8
AFUPA-3D-020
100
AcDbFaceRecord
10
0.0
20
0.0
30
0.0
70
128
71
2
72
3
73
7
74
6
0
VERTEX
5
4A0
330
493
100
AcDbEntity
8
AFUPA-3D-020
100
AcDbFaceRecord
10
0.0
20
0.0
30
0.0
70
128
71
3
72
4
73
8
74
7
0
VERTEX
5
4A1
330
493
100
AcDbEntity
8
AFUPA-3D-020
100
AcDbFaceRecord
10
0.0
20
0.0
30
0.0
70
128
71
4
72
1
73
5
74
8
0
SEQEND
5
4A2
330
493
100
AcDbEntity
8
AFUPA-3D-020
0
POLYLINE
5
4A3
330
113
100
AcDbEntity
8
AFUPA-3D-020
100
AcDbPolyFaceMesh
66
1
10
0.0
20
0.0
30
0.0
70
64
71
4
72
1
0
VERTEX
5
4A4
330
4A3
100
AcDbEntity
8
AFUPA-3D-020
100
AcDbVertex
100
AcDbPolyFaceMeshVertex
10
1.875
20
0.0
30
41.25
70
192
0
VERTEX
5
4A5
330
4A3
100
AcDbEntity
8
AFUPA-3D-020
100
AcDbVertex
100
AcDbPolyFaceMeshVertex
10
1.125
20
0.0
30
41.25
70
192
0
VERTEX
5
4A6
330
4A3
100
AcDbEntity
8
AFUPA-3D-020
100
AcDbVertex
100
AcDbPolyFaceMeshVertex
10
1.125
20
0.0
30
53.625
70
192
0
VERTEX
5
4A7
330
4A3
100
AcDbEntity
8
AFUPA-3D-020
100
AcDbVertex
100
AcDbPolyFaceMeshVertex
10
1.875
20
0.0
30
53.625
70
192
0
VERTEX
5
4A8
330
4A3
100
AcDbEntity
8
AFUPA-3D-020
100
AcDbFaceRecord
10
0.0
20
0.0
30
0.0
70
128
71
1
72
2
73
3
74
4
0
SEQEND
5
4A9
330
4A3
100
AcDbEntity
8
AFUPA-3D-020
0
ATTDEF
5
4AA
330
113
100
AcDbEntity
8
A-FURN-P-PNLS-JNCT-T
100
AcDbText
10
0.0
20
0.0
30
0.0
40
0.001
1

100
AcDbAttributeDefinition
3

2
CAPPN
70
1
0
ATTDEF
5
4AB
330
113
100
AcDbEntity
8
A-FURN-P-PNLS-JNCT-T
100
AcDbText
10
0.0
20
0.0
30
0.0
40
0.001
1

100
AcDbAttributeDefinition
3

2
CAPPD
70
1
0
ATTDEF
5
4AC
330
113
100
AcDbEntity
8
A-FURN-P-PNLS-JNCT-T
100
AcDbText
10
0.0
20
0.0
30
0.0
40
0.001
1

100
AcDbAttributeDefinition
3

2
CAPMG
70
1
0
ATTDEF
5
4AD
330
113
100
AcDbEntity
8
A-FURN-P-PNLS-JNCT-T
100
AcDbText
10
0.0
20
0.0
30
0.0
40
0.001
1

100
AcDbAttributeDefinition
3

2
CAPMC
70
1
0
ATTDEF
5
4AE
330
113
100
AcDbEntity
8
A-FURN-P-PNLS-JNCT-T
100
AcDbText
10
0.0
20
0.0
30
0.0
40
0.001
1

100
AcDbAttributeDefinition
3

2
CAPGC
70
1
0
ATTDEF
5
4AF
330
113
100
AcDbEntity
8
A-FURN-P-PNLS-JNCT-T
100
AcDbText
10
0.0
20
0.0
30
0.0
40
0.001
1

100
AcDbAttributeDefinition
3

2
CAPALIAS1
70
1
0
ATTDEF
5
4B0
330
113
100
AcDbEntity
8
A-FURN-P-PNLS-JNCT-T
100
AcDbText
10
0.0
20
0.0
30
0.0
40
0.001
1

100
AcDbAttributeDefinition
3

2
CAPALIAS2
70
1
0
ATTDEF
5
4B1
330
113
100
AcDbEntity
8
A-FURN-P-PNLS-JNCT-T
100
AcDbText
10
0.0
20
0.0
30
0.0
40
0.001
1

100
AcDbAttributeDefinition
3

2
CAPALIAS3
70
1
0
ATTDEF
5
4B2
330
113
100
AcDbEntity
8
A-FURN-P-PNLS-JNCT-T
100
AcDbText
10
0.0
20
0.0
30
0.0
40
0.001
1

100
AcDbAttributeDefinition
3

2
CAPBLDG
70
1
0
ATTDEF
5
4B3
330
113
100
AcDbEntity
8
A-FURN-P-PNLS-JNCT-T
100
AcDbText
10
0.0
20
0.0
30
0.0
40
0.001
1

100
AcDbAttributeDefinition
3

2
CAPFLOOR
70
1
0
ATTDEF
5
4B4
330
113
100
AcDbEntity
8
A-FURN-P-PNLS-JNCT-T
100
AcDbText
10
0.0
20
0.0
30
0.0
40
0.001
1

100
AcDbAttributeDefinition
3

2
CAPDEPT
70
1
0
ATTDEF
5
4B5
330
113
100
AcDbEntity
8
A-FURN-P-PNLS-JNCT-T
100
AcDbText
10
0.0
20
0.0
30
0.0
40
0.001
1

100
AcDbAttributeDefinition
3

2
CAPPERSON
70
1
0
ATTDEF
5
4B6
330
113
100
AcDbEntity
8
A-FURN-P-PNLS-JNCT-T
100
AcDbText
10
0.0
20
0.0
30
0.0
40
0.001
1

100
AcDbAttributeDefinition
3

2
CAPPL
70
1
0
ATTDEF
5
4B7
330
113
100
AcDbEntity
8
A-FURN-P-PNLS-JNCT-T
100
AcDbText
10
1.359
20
6.073
30
0.0
40
2.5
1

7
MONOTXT
72
1
11
3.716
21
3.716
31
0.0
100
AcDbAttributeDefinition
3

2
CAPTG
70
0
0
ATTDEF
5
4B8
330
113
100
AcDbEntity
8
A-FURN-P-PNLS-JNCT-T
100
AcDbText
10
0.0
20
0.0
30
0.0
40
0.001
1

100
AcDbAttributeDefinition
3

2
CAPQT
70
1
0
ATTDEF
5
4B9
330
113
100
AcDbEntity
8
A-FURN-P-PNLS-JNCT-T
100
AcDbText
10
0.0
20
0.0
30
0.0
40
0.001
1

100
AcDbAttributeDefinition
3

2
CAPDH
70
1
0
ENDBLK
5
4BA
330
113
100
AcDbEntity
8
0
100
AcDbBlockEnd
0
BLOCK
5
4BB
330
114
100
AcDbEntity
8
0
100
AcDbBlockBegin
2
P_TS742TEPJ
70
2
10
0.0
20
0.0
30
0.0
3
P_TS742TEPJ
1

0
LINE
5
4BC
330
114
100
AcDbEntity
8
A-FURN-P-PNLS-JNCT
100
AcDbLine
10
0.0
20
3.0
30
0.0
11
1.0
21
3.0
31
0.0
0
LINE
5
4BD
330
114
100
AcDbEntity
8
A-FURN-P-PNLS-JNCT
100
AcDbLine
10
1.0
20
3.0
30
0.0
11
1.0
21
0.0
31
0.0
0
LINE
5
4BE
330
114
100
AcDbEntity
8
A-FURN-P-PNLS-JNCT
100
AcDbLine
10
1.0
20
0.0
30
0.0
11
0.0
21
0.0
31
0.0
0
POINT
5
4BF
330
114
100
AcDbEntity
8
A-FURN-P-PNLS-JNCT
100
AcDbPoint
10
0.0
20
3.0
30
0.0
0
POINT
5
4C0
330
114
100
AcDbEntity
8
A-FURN-P-PNLS-JNCT
100
AcDbPoint
10
1.0
20
3.0
30
0.0
0
POINT
5
4C1
330
114
100
AcDbEntity
8
A-FURN-P-PNLS-JNCT
100
AcDbPoint
10
1.0
20
0.0
30
0.0
0
POINT
5
4C2
330
114
100
AcDbEntity
8
A-FURN-P-PNLS-JNCT
100
AcDbPoint
10
0.0
20
0.0
30
0.0
0
ATTDEF
5
4C3
330
114
100
AcDbEntity
8
A-FURN-P-PNLS-JNCT-T
100
AcDbText
10
0.0
20
0.0
30
0.0
40
0.001
1

100
AcDbAttributeDefinition
3

2
CAPPN
70
1
0
ATTDEF
5
4C4
330
114
100
AcDbEntity
8
A-FURN-P-PNLS-JNCT-T
100
AcDbText
10
0.0
20
0.0
30
0.0
40
0.001
1

100
AcDbAttributeDefinition
3

2
CAPPD
70
1
0
ATTDEF
5
4C5
330
114
100
AcDbEntity
8
A-FURN-P-PNLS-JNCT-T
100
AcDbText
10
0.0
20
0.0
30
0.0
40
0.001
1

100
AcDbAttributeDefinition
3

2
CAPMG
70
1
0
ATTDEF
5
4C6
330
114
100
AcDbEntity
8
A-FURN-P-PNLS-JNCT-T
100
AcDbText
10
0.0
20
0.0
30
0.0
40
0.001
1

100
AcDbAttributeDefinition
3

2
CAPMC
70
1
0
ATTDEF
5
4C7
330
114
100
AcDbEntity
8
A-FURN-P-PNLS-JNCT-T
100
AcDbText
10
0.0
20
0.0
30
0.0
40
0.001
1

100
AcDbAttributeDefinition
3

2
CAPGC
70
1
0
ATTDEF
5
4C8
330
114
100
AcDbEntity
8
A-FURN-P-PNLS-JNCT-T
100
AcDbText
10
0.0
20
0.0
30
0.0
40
0.001
1

100
AcDbAttributeDefinition
3

2
CAPALIAS1
70
1
0
ATTDEF
5
4C9
330
114
100
AcDbEntity
8
A-FURN-P-PNLS-JNCT-T
100
AcDbText
10
0.0
20
0.0
30
0.0
40
0.001
1

100
AcDbAttributeDefinition
3

2
CAPALIAS2
70
1
0
ATTDEF
5
4CA
330
114
100
AcDbEntity
8
A-FURN-P-PNLS-JNCT-T
100
AcDbText
10
0.0
20
0.0
30
0.0
40
0.001
1

100
AcDbAttributeDefinition
3

2
CAPALIAS3
70
1
0
ATTDEF
5
4CB
330
114
100
AcDbEntity
8
A-FURN-P-PNLS-JNCT-T
100
AcDbText
10
0.0
20
0.0
30
0.0
40
0.001
1

100
AcDbAttributeDefinition
3

2
CAPBLDG
70
1
0
ATTDEF
5
4CC
330
114
100
AcDbEntity
8
A-FURN-P-PNLS-JNCT-T
100
AcDbText
10
0.0
20
0.0
30
0.0
40
0.001
1

100
AcDbAttributeDefinition
3

2
CAPFLOOR
70
1
0
ATTDEF
5
4CD
330
114
100
AcDbEntity
8
A-FURN-P-PNLS-JNCT-T
100
AcDbText
10
0.0
20
0.0
30
0.0
40
0.001
1

100
AcDbAttributeDefinition
3

2
CAPDEPT
70
1
0
ATTDEF
5
4CE
330
114
100
AcDbEntity
8
A-FURN-P-PNLS-JNCT-T
100
AcDbText
10
0.0
20
0.0
30
0.0
40
0.001
1

100
AcDbAttributeDefinition
3

2
CAPPERSON
70
1
0
ATTDEF
5
4CF
330
114
100
AcDbEntity
8
A-FURN-P-PNLS-JNCT-T
100
AcDbText
10
0.0
20
0.0
30
0.0
40
0.001
1

100
AcDbAttributeDefinition
3

2
CAPPL
70
1
0
ATTDEF
5
4D0
330
114
100
AcDbEntity
8
A-FURN-P-PNLS-JNCT-T
100
AcDbText
10
-1.0
20
-1.833
30
0.0
40
2.5
1

7
MONOTXT
72
1
11
-1.0
21
1.5
31
0.0
100
AcDbAttributeDefinition
3

2
CAPTG
70
0
0
ATTDEF
5
4D1
330
114
100
AcDbEntity
8
A-FURN-P-PNLS-JNCT-T
100
AcDbText
10
0.0
20
0.0
30
0.0
40
0.001
1

100
AcDbAttributeDefinition
3

2
CAPQT
70
1
0
ATTDEF
5
4D2
330
114
100
AcDbEntity
8
A-FURN-P-PNLS-JNCT-T
100
AcDbText
10
0.0
20
0.0
30
0.0
40
0.001
1

100
AcDbAttributeDefinition
3

2
CAPDH
70
1
0
ENDBLK
5
4D3
330
114
100
AcDbEntity
8
0
100
AcDbBlockEnd
0
BLOCK
5
4D4
330
115
100
AcDbEntity
8
0
100
AcDbBlockBegin
2
3_TS742TEPJ
70
2
10
0.0
20
0.0
30
0.0
3
3_TS742TEPJ
1

0
POLYLINE
5
4D5
330
115
100
AcDbEntity
8
AFUPA-3D-020
100
AcDbPolyFaceMesh
66
1
10
0.0
20
0.0
30
0.0
70
64
71
10
72
12
0
VERTEX
5
4D6
330
4D5
100
AcDbEntity
8
AFUPA-3D-020
100
AcDbVertex
100
AcDbPolyFaceMeshVertex
10
0.0
20
0.0
30
0.0
70
192
0
VERTEX
5
4D7
330
4D5
100
AcDbEntity
8
AFUPA-3D-020
100
AcDbVertex
100
AcDbPolyFaceMeshVertex
10
-0.75
20
0.0
30
0.0
70
192
0
VERTEX
5
4D8
330
4D5
100
AcDbEntity
8
AFUPA-3D-020
100
AcDbVertex
100
AcDbPolyFaceMeshVertex
10
-0.75
20
3.0
30
0.0
70
192
0
VERTEX
5
4D9
330
4D5
100
AcDbEntity
8
AFUPA-3D-020
100
AcDbVertex
100
AcDbPolyFaceMeshVertex
10
0.0
20
3.0
30
0.0
70
192
0
VERTEX
5
4DA
330
4D5
100
AcDbEntity
8
AFUPA-3D-020
100
AcDbVertex
100
AcDbPolyFaceMeshVertex
10
0.0
20
0.0
30
40.75
70
192
0
VERTEX
5
4DB
330
4D5
100
AcDbEntity
8
AFUPA-3D-020
100
AcDbVertex
100
AcDbPolyFaceMeshVertex
10
-0.75
20
0.0
30
40.75
70
192
0
VERTEX
5
4DC
330
4D5
100
AcDbEntity
8
AFUPA-3D-020
100
AcDbVertex
100
AcDbPolyFaceMeshVertex
10
-0.75
20
3.0
30
40.75
70
192
0
VERTEX
5
4DD
330
4D5
100
AcDbEntity
8
AFUPA-3D-020
100
AcDbVertex
100
AcDbPolyFaceMeshVertex
10
0.0
20
3.0
30
40.75
70
192
0
VERTEX
5
4DE
330
4D5
100
AcDbEntity
8
AFUPA-3D-020
100
AcDbVertex
100
AcDbPolyFaceMeshVertex
10
-0.375
20
1.5
30
0.0
70
192
0
VERTEX
5
4DF
330
4D5
100
AcDbEntity
8
AFUPA-3D-020
100
AcDbVertex
100
AcDbPolyFaceMeshVertex
10
-0.375
20
1.5
30
40.75
70
192
0
VERTEX
5
4E0
330
4D5
100
AcDbEntity
8
AFUPA-3D-020
100
AcDbFaceRecord
10
0.0
20
0.0
30
0.0
70
128
71
1
72
2
73
6
74
5
0
VERTEX
5
4E1
330
4D5
100
AcDbEntity
8
AFUPA-3D-020
100
AcDbFaceRecord
10
0.0
20
0.0
30
0.0
70
128
71
9
72
2
73
1
0
VERTEX
5
4E2
330
4D5
100
AcDbEntity
8
AFUPA-3D-020
100
AcDbFaceRecord
10
0.0
20
0.0
30
0.0
70
128
71
10
72
5
73
6
0
VERTEX
5
4E3
330
4D5
100
AcDbEntity
8
AFUPA-3D-020
100
AcDbFaceRecord
10
0.0
20
0.0
30
0.0
70
128
71
2
72
3
73
7
74
6
0
VERTEX
5
4E4
330
4D5
100
AcDbEntity
8
AFUPA-3D-020
100
AcDbFaceRecord
10
0.0
20
0.0
30
0.0
70
128
71
9
72
3
73
2
0
VERTEX
5
4E5
330
4D5
100
AcDbEntity
8
AFUPA-3D-020
100
AcDbFaceRecord
10
0.0
20
0.0
30
0.0
70
128
71
10
72
6
73
7
0
VERTEX
5
4E6
330
4D5
100
AcDbEntity
8
AFUPA-3D-020
100
AcDbFaceRecord
10
0.0
20
0.0
30
0.0
70
128
71
3
72
4
73
8
74
7
0
VERTEX
5
4E7
330
4D5
100
AcDbEntity
8
AFUPA-3D-020
100
AcDbFaceRecord
10
0.0
20
0.0
30
0.0
70
128
71
9
72
4
73
3
0
VERTEX
5
4E8
330
4D5
100
AcDbEntity
8
AFUPA-3D-020
100
AcDbFaceRecord
10
0.0
20
0.0
30
0.0
70
128
71
10
72
7
73
8
0
VERTEX
5
4E9
330
4D5
100
AcDbEntity
8
AFUPA-3D-020
100
AcDbFaceRecord
10
0.0
20
0.0
30
0.0
70
128
71
4
72
1
73
5
74
8
0
VERTEX
5
4EA
330
4D5
100
AcDbEntity
8
AFUPA-3D-020
100
AcDbFaceRecord
10
0.0
20
0.0
30
0.0
70
128
71
9
72
1
73
4
0
VERTEX
5
4EB
330
4D5
100
AcDbEntity
8
AFUPA-3D-020
100
AcDbFaceRecord
10
0.0
20
0.0
30
0.0
70
128
71
10
72
8
73
5
0
SEQEND
5
4EC
330
4D5
100
AcDbEntity
8
AFUPA-3D-020
0
POLYLINE
5
4ED
330
115
100
AcDbEntity
8
AFUPA-3D-020
100
AcDbPolyFaceMesh
66
1
10
0.0
20
0.0
30
0.0
70
64
71
10
72
12
0
VERTEX
5
4EE
330
4ED
100
AcDbEntity
8
AFUPA-3D-020
100
AcDbVertex
100
AcDbPolyFaceMeshVertex
10
0.5
20
0.0
30
0.0
70
192
0
VERTEX
5
4EF
330
4ED
100
AcDbEntity
8
AFUPA-3D-020
100
AcDbVertex
100
AcDbPolyFaceMeshVertex
10
0.0
20
0.0
30
0.0
70
192
0
VERTEX
5
4F0
330
4ED
100
AcDbEntity
8
AFUPA-3D-020
100
AcDbVertex
100
AcDbPolyFaceMeshVertex
10
0.0
20
3.0
30
0.0
70
192
0
VERTEX
5
4F1
330
4ED
100
AcDbEntity
8
AFUPA-3D-020
100
AcDbVertex
100
AcDbPolyFaceMeshVertex
10
0.5
20
3.0
30
0.0
70
192
0
VERTEX
5
4F2
330
4ED
100
AcDbEntity
8
AFUPA-3D-020
100
AcDbVertex
100
AcDbPolyFaceMeshVertex
10
0.5
20
0.0
30
41.25
70
192
0
VERTEX
5
4F3
330
4ED
100
AcDbEntity
8
AFUPA-3D-020
100
AcDbVertex
100
AcDbPolyFaceMeshVertex
10
0.0
20
0.0
30
41.25
70
192
0
VERTEX
5
4F4
330
4ED
100
AcDbEntity
8
AFUPA-3D-020
100
AcDbVertex
100
AcDbPolyFaceMeshVertex
10
0.0
20
3.0
30
41.25
70
192
0
VERTEX
5
4F5
330
4ED
100
AcDbEntity
8
AFUPA-3D-020
100
AcDbVertex
100
AcDbPolyFaceMeshVertex
10
0.5
20
3.0
30
41.25
70
192
0
VERTEX
5
4F6
330
4ED
100
AcDbEntity
8
AFUPA-3D-020
100
AcDbVertex
100
AcDbPolyFaceMeshVertex
10
0.25
20
1.5
30
0.0
70
192
0
VERTEX
5
4F7
330
4ED
100
AcDbEntity
8
AFUPA-3D-020
100
AcDbVertex
100
AcDbPolyFaceMeshVertex
10
0.25
20
1.5
30
41.25
70
192
0
VERTEX
5
4F8
330
4ED
100
AcDbEntity
8
AFUPA-3D-020
100
AcDbFaceRecord
10
0.0
20
0.0
30
0.0
70
128
71
1
72
2
73
6
74
5
0
VERTEX
5
4F9
330
4ED
100
AcDbEntity
8
AFUPA-3D-020
100
AcDbFaceRecord
10
0.0
20
0.0
30
0.0
70
128
71
9
72
2
73
1
0
VERTEX
5
4FA
330
4ED
100
AcDbEntity
8
AFUPA-3D-020
100
AcDbFaceRecord
10
0.0
20
0.0
30
0.0
70
128
71
10
72
5
73
6
0
VERTEX
5
4FB
330
4ED
100
AcDbEntity
8
AFUPA-3D-020
100
AcDbFaceRecord
10
0.0
20
0.0
30
0.0
70
128
71
2
72
3
73
7
74
6
0
VERTEX
5
4FC
330
4ED
100
AcDbEntity
8
AFUPA-3D-020
100
AcDbFaceRecord
10
0.0
20
0.0
30
0.0
70
128
71
9
72
3
73
2
0
VERTEX
5
4FD
330
4ED
100
AcDbEntity
8
AFUPA-3D-020
100
AcDbFaceRecord
10
0.0
20
0.0
30
0.0
70
128
71
10
72
6
73
7
0
VERTEX
5
4FE
330
4ED
100
AcDbEntity
8
AFUPA-3D-020
100
AcDbFaceRecord
10
0.0
20
0.0
30
0.0
70
128
71
3
72
4
73
8
74
7
0
VERTEX
5
4FF
330
4ED
100
AcDbEntity
8
AFUPA-3D-020
100
AcDbFaceRecord
10
0.0
20
0.0
30
0.0
70
128
71
9
72
4
73
3
0
VERTEX
5
500
330
4ED
100
AcDbEntity
8
AFUPA-3D-020
100
AcDbFaceRecord
10
0.0
20
0.0
30
0.0
70
128
71
10
72
7
73
8
0
VERTEX
5
501
330
4ED
100
AcDbEntity
8
AFUPA-3D-020
100
AcDbFaceRecord
10
0.0
20
0.0
30
0.0
70
128
71
4
72
1
73
5
74
8
0
VERTEX
5
502
330
4ED
100
AcDbEntity
8
AFUPA-3D-020
100
AcDbFaceRecord
10
0.0
20
0.0
30
0.0
70
128
71
9
72
1
73
4
0
VERTEX
5
503
330
4ED
100
AcDbEntity
8
AFUPA-3D-020
100
AcDbFaceRecord
10
0.0
20
0.0
30
0.0
70
128
71
10
72
8
73
5
0
SEQEND
5
504
330
4ED
100
AcDbEntity
8
AFUPA-3D-020
0
ATTDEF
5
505
330
115
100
AcDbEntity
8
A-FURN-P-PNLS-JNCT-T
100
AcDbText
10
0.0
20
0.0
30
0.0
40
0.001
1

100
AcDbAttributeDefinition
3

2
CAPPN
70
1
0
ATTDEF
5
506
330
115
100
AcDbEntity
8
A-FURN-P-PNLS-JNCT-T
100
AcDbText
10
0.0
20
0.0
30
0.0
40
0.001
1

100
AcDbAttributeDefinition
3

2
CAPPD
70
1
0
ATTDEF
5
507
330
115
100
AcDbEntity
8
A-FURN-P-PNLS-JNCT-T
100
AcDbText
10
0.0
20
0.0
30
0.0
40
0.001
1

100
AcDbAttributeDefinition
3

2
CAPMG
70
1
0
ATTDEF
5
508
330
115
100
AcDbEntity
8
A-FURN-P-PNLS-JNCT-T
100
AcDbText
10
0.0
20
0.0
30
0.0
40
0.001
1

100
AcDbAttributeDefinition
3

2
CAPMC
70
1
0
ATTDEF
5
509
330
115
100
AcDbEntity
8
A-FURN-P-PNLS-JNCT-T
100
AcDbText
10
0.0
20
0.0
30
0.0
40
0.001
1

100
AcDbAttributeDefinition
3

2
CAPGC
70
1
0
ATTDEF
5
50A
330
115
100
AcDbEntity
8
A-FURN-P-PNLS-JNCT-T
100
AcDbText
10
0.0
20
0.0
30
0.0
40
0.001
1

100
AcDbAttributeDefinition
3

2
CAPALIAS1
70
1
0
ATTDEF
5
50B
330
115
100
AcDbEntity
8
A-FURN-P-PNLS-JNCT-T
100
AcDbText
10
0.0
20
0.0
30
0.0
40
0.001
1

100
AcDbAttributeDefinition
3

2
CAPALIAS2
70
1
0
ATTDEF
5
50C
330
115
100
AcDbEntity
8
A-FURN-P-PNLS-JNCT-T
100
AcDbText
10
0.0
20
0.0
30
0.0
40
0.001
1

100
AcDbAttributeDefinition
3

2
CAPALIAS3
70
1
0
ATTDEF
5
50D
330
115
100
AcDbEntity
8
A-FURN-P-PNLS-JNCT-T
100
AcDbText
10
0.0
20
0.0
30
0.0
40
0.001
1

100
AcDbAttributeDefinition
3

2
CAPBLDG
70
1
0
ATTDEF
5
50E
330
115
100
AcDbEntity
8
A-FURN-P-PNLS-JNCT-T
100
AcDbText
10
0.0
20
0.0
30
0.0
40
0.001
1

100
AcDbAttributeDefinition
3

2
CAPFLOOR
70
1
0
ATTDEF
5
50F
330
115
100
AcDbEntity
8
A-FURN-P-PNLS-JNCT-T
100
AcDbText
10
0.0
20
0.0
30
0.0
40
0.001
1

100
AcDbAttributeDefinition
3

2
CAPDEPT
70
1
0
ATTDEF
5
510
330
115
100
AcDbEntity
8
A-FURN-P-PNLS-JNCT-T
100
AcDbText
10
0.0
20
0.0
30
0.0
40
0.001
1

100
AcDbAttributeDefinition
3

2
CAPPERSON
70
1
0
ATTDEF
5
511
330
115
100
AcDbEntity
8
A-FURN-P-PNLS-JNCT-T
100
AcDbText
10
0.0
20
0.0
30
0.0
40
0.001
1

100
AcDbAttributeDefinition
3

2
CAPPL
70
1
0
ATTDEF
5
512
330
115
100
AcDbEntity
8
A-FURN-P-PNLS-JNCT-T
100
AcDbText
10
-1.0
20
-1.833
30
0.0
40
2.5
1

7
MONOTXT
72
1
11
-1.0
21
1.5
31
0.0
100
AcDbAttributeDefinition
3

2
CAPTG
70
0
0
ATTDEF
5
513
330
115
100
AcDbEntity
8
A-FURN-P-PNLS-JNCT-T
100
AcDbText
10
0.0
20
0.0
30
0.0
40
0.001
1

100
AcDbAttributeDefinition
3

2
CAPQT
70
1
0
ATTDEF
5
514
330
115
100
AcDbEntity
8
A-FURN-P-PNLS-JNCT-T
100
AcDbText
10
0.0
20
0.0
30
0.0
40
0.001
1

100
AcDbAttributeDefinition
3

2
CAPDH
70
1
0
ENDBLK
5
515
330
115
100
AcDbEntity
8
0
100
AcDbBlockEnd
0
BLOCK
5
516
330
116
100
AcDbEntity
8
0
100
AcDbBlockBegin
2
P_TS754TEPJ
70
2
10
0.0
20
0.0
30
0.0
3
P_TS754TEPJ
1

0
LINE
5
517
330
116
100
AcDbEntity
8
A-FURN-P-PNLS-JNCT
100
AcDbLine
10
0.0
20
3.0
30
0.0
11
1.0
21
3.0
31
0.0
0
LINE
5
518
330
116
100
AcDbEntity
8
A-FURN-P-PNLS-JNCT
100
AcDbLine
10
1.0
20
3.0
30
0.0
11
1.0
21
0.0
31
0.0
0
LINE
5
519
330
116
100
AcDbEntity
8
A-FURN-P-PNLS-JNCT
100
AcDbLine
10
1.0
20
0.0
30
0.0
11
0.0
21
0.0
31
0.0
0
POINT
5
51A
330
116
100
AcDbEntity
8
A-FURN-P-PNLS-JNCT
100
AcDbPoint
10
0.0
20
3.0
30
0.0
0
POINT
5
51B
330
116
100
AcDbEntity
8
A-FURN-P-PNLS-JNCT
100
AcDbPoint
10
1.0
20
3.0
30
0.0
0
POINT
5
51C
330
116
100
AcDbEntity
8
A-FURN-P-PNLS-JNCT
100
AcDbPoint
10
1.0
20
0.0
30
0.0
0
POINT
5
51D
330
116
100
AcDbEntity
8
A-FURN-P-PNLS-JNCT
100
AcDbPoint
10
0.0
20
0.0
30
0.0
0
ATTDEF
5
51E
330
116
100
AcDbEntity
8
A-FURN-P-PNLS-JNCT-T
100
AcDbText
10
0.0
20
0.0
30
0.0
40
0.001
1

100
AcDbAttributeDefinition
3

2
CAPPN
70
1
0
ATTDEF
5
51F
330
116
100
AcDbEntity
8
A-FURN-P-PNLS-JNCT-T
100
AcDbText
10
0.0
20
0.0
30
0.0
40
0.001
1

100
AcDbAttributeDefinition
3

2
CAPPD
70
1
0
ATTDEF
5
520
330
116
100
AcDbEntity
8
A-FURN-P-PNLS-JNCT-T
100
AcDbText
10
0.0
20
0.0
30
0.0
40
0.001
1

100
AcDbAttributeDefinition
3

2
CAPMG
70
1
0
ATTDEF
5
521
330
116
100
AcDbEntity
8
A-FURN-P-PNLS-JNCT-T
100
AcDbText
10
0.0
20
0.0
30
0.0
40
0.001
1

100
AcDbAttributeDefinition
3

2
CAPMC
70
1
0
ATTDEF
5
522
330
116
100
AcDbEntity
8
A-FURN-P-PNLS-JNCT-T
100
AcDbText
10
0.0
20
0.0
30
0.0
40
0.001
1

100
AcDbAttributeDefinition
3

2
CAPGC
70
1
0
ATTDEF
5
523
330
116
100
AcDbEntity
8
A-FURN-P-PNLS-JNCT-T
100
AcDbText
10
0.0
20
0.0
30
0.0
40
0.001
1

100
AcDbAttributeDefinition
3

2
CAPALIAS1
70
1
0
ATTDEF
5
524
330
116
100
AcDbEntity
8
A-FURN-P-PNLS-JNCT-T
100
AcDbText
10
0.0
20
0.0
30
0.0
40
0.001
1

100
AcDbAttributeDefinition
3

2
CAPALIAS2
70
1
0
ATTDEF
5
525
330
116
100
AcDbEntity
8
A-FURN-P-PNLS-JNCT-T
100
AcDbText
10
0.0
20
0.0
30
0.0
40
0.001
1

100
AcDbAttributeDefinition
3

2
CAPALIAS3
70
1
0
ATTDEF
5
526
330
116
100
AcDbEntity
8
A-FURN-P-PNLS-JNCT-T
100
AcDbText
10
0.0
20
0.0
30
0.0
40
0.001
1

100
AcDbAttributeDefinition
3

2
CAPBLDG
70
1
0
ATTDEF
5
527
330
116
100
AcDbEntity
8
A-FURN-P-PNLS-JNCT-T
100
AcDbText
10
0.0
20
0.0
30
0.0
40
0.001
1

100
AcDbAttributeDefinition
3

2
CAPFLOOR
70
1
0
ATTDEF
5
528
330
116
100
AcDbEntity
8
A-FURN-P-PNLS-JNCT-T
100
AcDbText
10
0.0
20
0.0
30
0.0
40
0.001
1

100
AcDbAttributeDefinition
3

2
CAPDEPT
70
1
0
ATTDEF
5
529
330
116
100
AcDbEntity
8
A-FURN-P-PNLS-JNCT-T
100
AcDbText
10
0.0
20
0.0
30
0.0
40
0.001
1

100
AcDbAttributeDefinition
3

2
CAPPERSON
70
1
0
ATTDEF
5
52A
330
116
100
AcDbEntity
8
A-FURN-P-PNLS-JNCT-T
100
AcDbText
10
0.0
20
0.0
30
0.0
40
0.001
1

100
AcDbAttributeDefinition
3

2
CAPPL
70
1
0
ATTDEF
5
52B
330
116
100
AcDbEntity
8
A-FURN-P-PNLS-JNCT-T
100
AcDbText
10
-1.0
20
-1.833
30
0.0
40
2.5
1

7
MONOTXT
72
1
11
-1.0
21
1.5
31
0.0
100
AcDbAttributeDefinition
3

2
CAPTG
70
0
0
ATTDEF
5
52C
330
116
100
AcDbEntity
8
A-FURN-P-PNLS-JNCT-T
100
AcDbText
10
0.0
20
0.0
30
0.0
40
0.001
1

100
AcDbAttributeDefinition
3

2
CAPQT
70
1
0
ATTDEF
5
52D
330
116
100
AcDbEntity
8
A-FURN-P-PNLS-JNCT-T
100
AcDbText
10
0.0
20
0.0
30
0.0
40
0.001
1

100
AcDbAttributeDefinition
3

2
CAPDH
70
1
0
ENDBLK
5
52E
330
116
100
AcDbEntity
8
0
100
AcDbBlockEnd
0
BLOCK
5
52F
330
117
100
AcDbEntity
8
0
100
AcDbBlockBegin
2
3_TS754TEPJ
70
2
10
0.0
20
0.0
30
0.0
3
3_TS754TEPJ
1

0
POLYLINE
5
530
330
117
100
AcDbEntity
8
AFUPA-3D-020
100
AcDbPolyFaceMesh
66
1
10
0.0
20
0.0
30
0.0
70
64
71
10
72
12
0
VERTEX
5
531
330
530
100
AcDbEntity
8
AFUPA-3D-020
100
AcDbVertex
100
AcDbPolyFaceMeshVertex
10
0.0
20
0.0
30
0.0
70
192
0
VERTEX
5
532
330
530
100
AcDbEntity
8
AFUPA-3D-020
100
AcDbVertex
100
AcDbPolyFaceMeshVertex
10
-0.75
20
0.0
30
0.0
70
192
0
VERTEX
5
533
330
530
100
AcDbEntity
8
AFUPA-3D-020
100
AcDbVertex
100
AcDbPolyFaceMeshVertex
10
-0.75
20
3.0
30
0.0
70
192
0
VERTEX
5
534
330
530
100
AcDbEntity
8
AFUPA-3D-020
100
AcDbVertex
100
AcDbPolyFaceMeshVertex
10
0.0
20
3.0
30
0.0
70
192
0
VERTEX
5
535
330
530
100
AcDbEntity
8
AFUPA-3D-020
100
AcDbVertex
100
AcDbPolyFaceMeshVertex
10
0.0
20
0.0
30
53.125
70
192
0
VERTEX
5
536
330
530
100
AcDbEntity
8
AFUPA-3D-020
100
AcDbVertex
100
AcDbPolyFaceMeshVertex
10
-0.75
20
0.0
30
53.125
70
192
0
VERTEX
5
537
330
530
100
AcDbEntity
8
AFUPA-3D-020
100
AcDbVertex
100
AcDbPolyFaceMeshVertex
10
-0.75
20
3.0
30
53.125
70
192
0
VERTEX
5
538
330
530
100
AcDbEntity
8
AFUPA-3D-020
100
AcDbVertex
100
AcDbPolyFaceMeshVertex
10
0.0
20
3.0
30
53.125
70
192
0
VERTEX
5
539
330
530
100
AcDbEntity
8
AFUPA-3D-020
100
AcDbVertex
100
AcDbPolyFaceMeshVertex
10
-0.375
20
1.5
30
0.0
70
192
0
VERTEX
5
53A
330
530
100
AcDbEntity
8
AFUPA-3D-020
100
AcDbVertex
100
AcDbPolyFaceMeshVertex
10
-0.375
20
1.5
30
53.125
70
192
0
VERTEX
5
53B
330
530
100
AcDbEntity
8
AFUPA-3D-020
100
AcDbFaceRecord
10
0.0
20
0.0
30
0.0
70
128
71
1
72
2
73
6
74
5
0
VERTEX
5
53C
330
530
100
AcDbEntity
8
AFUPA-3D-020
100
AcDbFaceRecord
10
0.0
20
0.0
30
0.0
70
128
71
9
72
2
73
1
0
VERTEX
5
53D
330
530
100
AcDbEntity
8
AFUPA-3D-020
100
AcDbFaceRecord
10
0.0
20
0.0
30
0.0
70
128
71
10
72
5
73
6
0
VERTEX
5
53E
330
530
100
AcDbEntity
8
AFUPA-3D-020
100
AcDbFaceRecord
10
0.0
20
0.0
30
0.0
70
128
71
2
72
3
73
7
74
6
0
VERTEX
5
53F
330
530
100
AcDbEntity
8
AFUPA-3D-020
100
AcDbFaceRecord
10
0.0
20
0.0
30
0.0
70
128
71
9
72
3
73
2
0
VERTEX
5
540
330
530
100
AcDbEntity
8
AFUPA-3D-020
100
AcDbFaceRecord
10
0.0
20
0.0
30
0.0
70
128
71
10
72
6
73
7
0
VERTEX
5
541
330
530
100
AcDbEntity
8
AFUPA-3D-020
100
AcDbFaceRecord
10
0.0
20
0.0
30
0.0
70
128
71
3
72
4
73
8
74
7
0
VERTEX
5
542
330
530
100
AcDbEntity
8
AFUPA-3D-020
100
AcDbFaceRecord
10
0.0
20
0.0
30
0.0
70
128
71
9
72
4
73
3
0
VERTEX
5
543
330
530
100
AcDbEntity
8
AFUPA-3D-020
100
AcDbFaceRecord
10
0.0
20
0.0
30
0.0
70
128
71
10
72
7
73
8
0
VERTEX
5
544
330
530
100
AcDbEntity
8
AFUPA-3D-020
100
AcDbFaceRecord
10
0.0
20
0.0
30
0.0
70
128
71
4
72
1
73
5
74
8
0
VERTEX
5
545
330
530
100
AcDbEntity
8
AFUPA-3D-020
100
AcDbFaceRecord
10
0.0
20
0.0
30
0.0
70
128
71
9
72
1
73
4
0
VERTEX
5
546
330
530
100
AcDbEntity
8
AFUPA-3D-020
100
AcDbFaceRecord
10
0.0
20
0.0
30
0.0
70
128
71
10
72
8
73
5
0
SEQEND
5
547
330
530
100
AcDbEntity
8
AFUPA-3D-020
0
POLYLINE
5
548
330
117
100
AcDbEntity
8
AFUPA-3D-020
100
AcDbPolyFaceMesh
66
1
10
0.0
20
0.0
30
0.0
70
64
71
10
72
12
0
VERTEX
5
549
330
548
100
AcDbEntity
8
AFUPA-3D-020
100
AcDbVertex
100
AcDbPolyFaceMeshVertex
10
0.5
20
0.0
30
0.0
70
192
0
VERTEX
5
54A
330
548
100
AcDbEntity
8
AFUPA-3D-020
100
AcDbVertex
100
AcDbPolyFaceMeshVertex
10
0.0
20
0.0
30
0.0
70
192
0
VERTEX
5
54B
330
548
100
AcDbEntity
8
AFUPA-3D-020
100
AcDbVertex
100
AcDbPolyFaceMeshVertex
10
0.0
20
3.0
30
0.0
70
192
0
VERTEX
5
54C
330
548
100
AcDbEntity
8
AFUPA-3D-020
100
AcDbVertex
100
AcDbPolyFaceMeshVertex
10
0.5
20
3.0
30
0.0
70
192
0
VERTEX
5
54D
330
548
100
AcDbEntity
8
AFUPA-3D-020
100
AcDbVertex
100
AcDbPolyFaceMeshVertex
10
0.5
20
0.0
30
53.625
70
192
0
VERTEX
5
54E
330
548
100
AcDbEntity
8
AFUPA-3D-020
100
AcDbVertex
100
AcDbPolyFaceMeshVertex
10
0.0
20
0.0
30
53.625
70
192
0
VERTEX
5
54F
330
548
100
AcDbEntity
8
AFUPA-3D-020
100
AcDbVertex
100
AcDbPolyFaceMeshVertex
10
0.0
20
3.0
30
53.625
70
192
0
VERTEX
5
550
330
548
100
AcDbEntity
8
AFUPA-3D-020
100
AcDbVertex
100
AcDbPolyFaceMeshVertex
10
0.5
20
3.0
30
53.625
70
192
0
VERTEX
5
551
330
548
100
AcDbEntity
8
AFUPA-3D-020
100
AcDbVertex
100
AcDbPolyFaceMeshVertex
10
0.25
20
1.5
30
0.0
70
192
0
VERTEX
5
552
330
548
100
AcDbEntity
8
AFUPA-3D-020
100
AcDbVertex
100
AcDbPolyFaceMeshVertex
10
0.25
20
1.5
30
53.625
70
192
0
VERTEX
5
553
330
548
100
AcDbEntity
8
AFUPA-3D-020
100
AcDbFaceRecord
10
0.0
20
0.0
30
0.0
70
128
71
1
72
2
73
6
74
5
0
VERTEX
5
554
330
548
100
AcDbEntity
8
AFUPA-3D-020
100
AcDbFaceRecord
10
0.0
20
0.0
30
0.0
70
128
71
9
72
2
73
1
0
VERTEX
5
555
330
548
100
AcDbEntity
8
AFUPA-3D-020
100
AcDbFaceRecord
10
0.0
20
0.0
30
0.0
70
128
71
10
72
5
73
6
0
VERTEX
5
556
330
548
100
AcDbEntity
8
AFUPA-3D-020
100
AcDbFaceRecord
10
0.0
20
0.0
30
0.0
70
128
71
2
72
3
73
7
74
6
0
VERTEX
5
557
330
548
100
AcDbEntity
8
AFUPA-3D-020
100
AcDbFaceRecord
10
0.0
20
0.0
30
0.0
70
128
71
9
72
3
73
2
0
VERTEX
5
558
330
548
100
AcDbEntity
8
AFUPA-3D-020
100
AcDbFaceRecord
10
0.0
20
0.0
30
0.0
70
128
71
10
72
6
73
7
0
VERTEX
5
559
330
548
100
AcDbEntity
8
AFUPA-3D-020
100
AcDbFaceRecord
10
0.0
20
0.0
30
0.0
70
128
71
3
72
4
73
8
74
7
0
VERTEX
5
55A
330
548
100
AcDbEntity
8
AFUPA-3D-020
100
AcDbFaceRecord
10
0.0
20
0.0
30
0.0
70
128
71
9
72
4
73
3
0
VERTEX
5
55B
330
548
100
AcDbEntity
8
AFUPA-3D-020
100
AcDbFaceRecord
10
0.0
20
0.0
30
0.0
70
128
71
10
72
7
73
8
0
VERTEX
5
55C
330
548
100
AcDbEntity
8
AFUPA-3D-020
100
AcDbFaceRecord
10
0.0
20
0.0
30
0.0
70
128
71
4
72
1
73
5
74
8
0
VERTEX
5
55D
330
548
100
AcDbEntity
8
AFUPA-3D-020
100
AcDbFaceRecord
10
0.0
20
0.0
30
0.0
70
128
71
9
72
1
73
4
0
VERTEX
5
55E
330
548
100
AcDbEntity
8
AFUPA-3D-020
100
AcDbFaceRecord
10
0.0
20
0.0
30
0.0
70
128
71
10
72
8
73
5
0
SEQEND
5
55F
330
548
100
AcDbEntity
8
AFUPA-3D-020
0
ATTDEF
5
560
330
117
100
AcDbEntity
8
A-FURN-P-PNLS-JNCT-T
100
AcDbText
10
0.0
20
0.0
30
0.0
40
0.001
1

100
AcDbAttributeDefinition
3

2
CAPPN
70
1
0
ATTDEF
5
561
330
117
100
AcDbEntity
8
A-FURN-P-PNLS-JNCT-T
100
AcDbText
10
0.0
20
0.0
30
0.0
40
0.001
1

100
AcDbAttributeDefinition
3

2
CAPPD
70
1
0
ATTDEF
5
562
330
117
100
AcDbEntity
8
A-FURN-P-PNLS-JNCT-T
100
AcDbText
10
0.0
20
0.0
30
0.0
40
0.001
1

100
AcDbAttributeDefinition
3

2
CAPMG
70
1
0
ATTDEF
5
563
330
117
100
AcDbEntity
8
A-FURN-P-PNLS-JNCT-T
100
AcDbText
10
0.0
20
0.0
30
0.0
40
0.001
1

100
AcDbAttributeDefinition
3

2
CAPMC
70
1
0
ATTDEF
5
564
330
117
100
AcDbEntity
8
A-FURN-P-PNLS-JNCT-T
100
AcDbText
10
0.0
20
0.0
30
0.0
40
0.001
1

100
AcDbAttributeDefinition
3

2
CAPGC
70
1
0
ATTDEF
5
565
330
117
100
AcDbEntity
8
A-FURN-P-PNLS-JNCT-T
100
AcDbText
10
0.0
20
0.0
30
0.0
40
0.001
1

100
AcDbAttributeDefinition
3

2
CAPALIAS1
70
1
0
ATTDEF
5
566
330
117
100
AcDbEntity
8
A-FURN-P-PNLS-JNCT-T
100
AcDbText
10
0.0
20
0.0
30
0.0
40
0.001
1

100
AcDbAttributeDefinition
3

2
CAPALIAS2
70
1
0
ATTDEF
5
567
330
117
100
AcDbEntity
8
A-FURN-P-PNLS-JNCT-T
100
AcDbText
10
0.0
20
0.0
30
0.0
40
0.001
1

100
AcDbAttributeDefinition
3

2
CAPALIAS3
70
1
0
ATTDEF
5
568
330
117
100
AcDbEntity
8
A-FURN-P-PNLS-JNCT-T
100
AcDbText
10
0.0
20
0.0
30
0.0
40
0.001
1

100
AcDbAttributeDefinition
3

2
CAPBLDG
70
1
0
ATTDEF
5
569
330
117
100
AcDbEntity
8
A-FURN-P-PNLS-JNCT-T
100
AcDbText
10
0.0
20
0.0
30
0.0
40
0.001
1

100
AcDbAttributeDefinition
3

2
CAPFLOOR
70
1
0
ATTDEF
5
56A
330
117
100
AcDbEntity
8
A-FURN-P-PNLS-JNCT-T
100
AcDbText
10
0.0
20
0.0
30
0.0
40
0.001
1

100
AcDbAttributeDefinition
3

2
CAPDEPT
70
1
0
ATTDEF
5
56B
330
117
100
AcDbEntity
8
A-FURN-P-PNLS-JNCT-T
100
AcDbText
10
0.0
20
0.0
30
0.0
40
0.001
1

100
AcDbAttributeDefinition
3

2
CAPPERSON
70
1
0
ATTDEF
5
56C
330
117
100
AcDbEntity
8
A-FURN-P-PNLS-JNCT-T
100
AcDbText
10
0.0
20
0.0
30
0.0
40
0.001
1

100
AcDbAttributeDefinition
3

2
CAPPL
70
1
0
ATTDEF
5
56D
330
117
100
AcDbEntity
8
A-FURN-P-PNLS-JNCT-T
100
AcDbText
10
-1.0
20
-1.833
30
0.0
40
2.5
1

7
MONOTXT
72
1
11
-1.0
21
1.5
31
0.0
100
AcDbAttributeDefinition
3

2
CAPTG
70
0
0
ATTDEF
5
56E
330
117
100
AcDbEntity
8
A-FURN-P-PNLS-JNCT-T
100
AcDbText
10
0.0
20
0.0
30
0.0
40
0.001
1

100
AcDbAttributeDefinition
3

2
CAPQT
70
1
0
ATTDEF
5
56F
330
117
100
AcDbEntity
8
A-FURN-P-PNLS-JNCT-T
100
AcDbText
10
0.0
20
0.0
30
0.0
40
0.001
1

100
AcDbAttributeDefinition
3

2
CAPDH
70
1
0
ENDBLK
5
570
330
117
100
AcDbEntity
8
0
100
AcDbBlockEnd
0
ENDSEC
0
SECTION
2
ENTITIES
0
INSERT
5
571
330
17
100
AcDbEntity
8
A-FURN
100
AcDbBlockReference
66
1
2
P_A36.000000
10
1.5
20
-1.5
30
0.0
0
ATTRIB
5
572
330
17
100
AcDbEntity
8
A-FURN-PNLS-BUILDUP-T
100
AcDbText
10
19.5
20
3.0
30
0.0
40
3.0
1
A 36
7
Standard
72
1
11
19.5
21
3.0
31
0.0
100
AcDbAttribute
2
CAPSTD
70
0
0
ATTRIB
5
573
330
17
100
AcDbEntity
8
A-FURN-PNLS-BUILDUP-T
100
AcDbText
10
1.5
20
-1.5
30
0.0
40
0.001
1
36" x 42" panel config A: TS736THF, TS73636TK, TS73636TK, TS71236TFGR, TS7TFGRC
100
AcDbAttribute
2
CAPSTDTITLE
70
1
0
ATTRIB
5
574
330
17
100
AcDbEntity
8
A-FURN-PNLS-BUILDUP-T
100
AcDbText
10
1.5
20
-1.5
30
0.0
40
0.001
1
TSA
100
AcDbAttribute
2
CAPPANELCAT
70
1
0
ATTRIB
5
575
330
17
100
AcDbEntity
8
A-FURN-PNLS-BUILDUP-T
100
AcDbText
10
1.5
20
-1.5
30
0.0
40
0.001
1
A
100
AcDbAttribute
2
CAPPANELNAME
70
1
0
ATTRIB
5
576
330
17
100
AcDbEntity
8
A-FURN-PNLS-BUILDUP-T
100
AcDbText
10
1.5
20
-1.5
30
0.0
40
0.001
1

100
AcDbAttribute
2
CAPPANELCONFIG
70
1
0
ATTRIB
5
577
330
17
100
AcDbEntity
8
A-FURN-PNLS-BUILDUP-T
100
AcDbText
10
1.5
20
-1.5
30
0.0
40
0.001
1
36.000000
100
AcDbAttribute
2
CAPPANELWIDTH
70
1
0
ATTRIB
5
578
330
17
100
AcDbEntity
8
A-FURN-PNLS-BUILDUP-T
100
AcDbText
10
1.5
20
-1.5
30
0.0
40
0.001
1
42.000000
100
AcDbAttribute
2
CAPPANELHEIGHT
70
1
0
ATTRIB
5
579
330
17
100
AcDbEntity
8
A-FURN-PNLS-BUILDUP-T
100
AcDbText
10
1.5
20
-1.5
30
0.0
40
0.001
1
Workstation 1
100
AcDbAttribute
2
CAPALIAS1
70
1
0
ATTRIB
5
57A
330
17
100
AcDbEntity
8
A-FURN-PNLS-BUILDUP-T
100
AcDbText
10
1.5
20
-1.5
30
0.0
40
0.001
1

100
AcDbAttribute
2
CAPALIAS2
70
1
0
ATTRIB
5
57B
330
17
100
AcDbEntity
8
A-FURN-PNLS-BUILDUP-T
100
AcDbText
10
1.5
20
-1.5
30
0.0
40
0.001
1

100
AcDbAttribute
2
CAPALIAS3
70
1
0
SEQEND
5
57C
330
571
100
AcDbEntity
8
A-FURN
0
INSERT
5
57D
330
17
100
AcDbEntity
8
A-FURN
100
AcDbBlockReference
66
1
2
P_B36.000000
10
-1.5
20
-1.5
30
0.0
50
270.0
0
ATTRIB
5
57E
330
17
100
AcDbEntity
8
A-FURN-PNLS-BUILDUP-T
100
AcDbText
10
3.0
20
-19.5
30
0.0
40
3.0
1
B 36
50
270.0
7
Standard
72
1
11
3.0
21
-19.5
31
0.0
100
AcDbAttribute
2
CAPSTD
70
0
0
ATTRIB
5
57F
330
17
100
AcDbEntity
8
A-FURN-PNLS-BUILDUP-T
100
AcDbText
10
-1.5
20
-1.5
30
0.0
40
0.001
1
36" x 54" panel config B: TS736THF, TS73636TK, TS71236SPW, TS73636TK
100
AcDbAttribute
2
CAPSTDTITLE
70
1
0
ATTRIB
5
580
330
17
100
AcDbEntity
8
A-FURN-PNLS-BUILDUP-T
100
AcDbText
10
-1.5
20
-1.5
30
0.0
40
0.001
1
TSA
100
AcDbAttribute
2
CAPPANELCAT
70
1
0
ATTRIB
5
581
330
17
100
AcDbEntity
8
A-FURN-PNLS-BUILDUP-T
100
AcDbText
10
-1.5
20
-1.5
30
0.0
40
0.001
1
B
100
AcDbAttribute
2
CAPPANELNAME
70
1
0
ATTRIB
5
582
330
17
100
AcDbEntity
8
A-FURN-PNLS-BUILDUP-T
100
AcDbText
10
-1.5
20
-1.5
30
0.0
40
0.001
1

100
AcDbAttribute
2
CAPPANELCONFIG
70
1
0
ATTRIB
5
583
330
17
100
AcDbEntity
8
A-FURN-PNLS-BUILDUP-T
100
AcDbText
10
-1.5
20
-1.5
30
0.0
40
0.001
1
36.000000
100
AcDbAttribute
2
CAPPANELWIDTH
70
1
0
ATTRIB
5
584
330
17
100
AcDbEntity
8
A-FURN-PNLS-BUILDUP-T
100
AcDbText
10
-1.5
20
-1.5
30
0.0
40
0.001
1
54.000000
100
AcDbAttribute
2
CAPPANELHEIGHT
70
1
0
ATTRIB
5
585
330
17
100
AcDbEntity
8
A-FURN-PNLS-BUILDUP-T
100
AcDbText
10
-1.5
20
-1.5
30
0.0
40
0.001
1
Workstation 1
100
AcDbAttribute
2
CAPALIAS1
70
1
0
ATTRIB
5
586
330
17
100
AcDbEntity
8
A-FURN-PNLS-BUILDUP-T
100
AcDbText
10
-1.5
20
-1.5
30
0.0
40
0.001
1

100
AcDbAttribute
2
CAPALIAS2
70
1
0
ATTRIB
5
587
330
17
100
AcDbEntity
8
A-FURN-PNLS-BUILDUP-T
100
AcDbText
10
-1.5
20
-1.5
30
0.0
40
0.001
1

100
AcDbAttribute
2
CAPALIAS3
70
1
0
SEQEND
5
588
330
57D
100
AcDbEntity
8
A-FURN
0
INSERT
5
589
330
17
100
AcDbEntity
8
A-FURN
100
AcDbBlockReference
66
1
2
P_TS745TCLJ
10
1.5
20
-1.5
30
0.0
50
90.0
0
ATTRIB
5
58A
330
17
100
AcDbEntity
8
A-FURN-P-PNLS-JNCT-T
100
AcDbText
10
1.5
20
-1.5
30
0.0
40
0.001
1
TS745TCLJ
100
AcDbAttribute
2
CAPPN
70
1
0
ATTRIB
5
58B
330
17
100
AcDbEntity
8
A-FURN-P-PNLS-JNCT-T
100
AcDbText
10
1.5
20
-1.5
30
0.0
40
0.001
1
L change-of-height junction 42"/54"H - Thin painted trim
100
AcDbAttribute
2
CAPPD
70
1
0
ATTRIB
5
58C
330
17
100
AcDbEntity
8
A-FURN-P-PNLS-JNCT-T
100
AcDbText
10
1.5
20
-1.5
30
0.0
40
0.001
1
STC
100
AcDbAttribute
2
CAPMG
70
1
0
ATTRIB
5
58D
330
17
100
AcDbEntity
8
A-FURN-P-PNLS-JNCT-T
100
AcDbText
10
1.5
20
-1.5
30
0.0
40
0.001
1
TSA
100
AcDbAttribute
2
CAPMC
70
1
0
ATTRIB
5
58E
330
17
100
AcDbEntity
8
A-FURN-P-PNLS-JNCT-T
100
AcDbText
10
1.5
20
-1.5
30
0.0
40
0.001
1

100
AcDbAttribute
2
CAPGC
70
1
0
ATTRIB
5
58F
330
17
100
AcDbEntity
8
A-FURN-P-PNLS-JNCT-T
100
AcDbText
10
1.5
20
-1.5
30
0.0
40
0.001
1
Workstation 1
100
AcDbAttribute
2
CAPALIAS1
70
1
0
ATTRIB
5
590
330
17
100
AcDbEntity
8
A-FURN-P-PNLS-JNCT-T
100
AcDbText
10
1.5
20
-1.5
30
0.0
40
0.001
1

100
AcDbAttribute
2
CAPALIAS2
70
1
0
ATTRIB
5
591
330
17
100
AcDbEntity
8
A-FURN-P-PNLS-JNCT-T
100
AcDbText
10
1.5
20
-1.5
30
0.0
40
0.001
1

100
AcDbAttribute
2
CAPALIAS3
70
1
0
ATTRIB
5
592
330
17
100
AcDbEntity
8
A-FURN-P-PNLS-JNCT-T
100
AcDbText
10
1.5
20
-1.5
30
0.0
40
0.001
1

100
AcDbAttribute
2
CAPBLDG
70
1
0
ATTRIB
5
593
330
17
100
AcDbEntity
8
A-FURN-P-PNLS-JNCT-T
100
AcDbText
10
1.5
20
-1.5
30
0.0
40
0.001
1

100
AcDbAttribute
2
CAPFLOOR
70
1
0
ATTRIB
5
594
330
17
100
AcDbEntity
8
A-FURN-P-PNLS-JNCT-T
100
AcDbText
10
1.5
20
-1.5
30
0.0
40
0.001
1

100
AcDbAttribute
2
CAPDEPT
70
1
0
ATTRIB
5
595
330
17
100
AcDbEntity
8
A-FURN-P-PNLS-JNCT-T
100
AcDbText
10
1.5
20
-1.5
30
0.0
40
0.001
1

100
AcDbAttribute
2
CAPPERSON
70
1
0
ATTRIB
5
596
330
17
100
AcDbEntity
8
A-FURN-P-PNLS-JNCT-T
100
AcDbText
10
1.5
20
-1.5
30
0.0
40
0.001
1
214.0000
100
AcDbAttribute
2
CAPPL
70
1
0
ATTRIB
5
597
330
17
100
AcDbEntity
8
A-FURN-P-PNLS-JNCT-T
100
AcDbText
10
-4.573
20
-0.141
30
0.0
40
2.5
1
L42/54
50
90.0
7
MONOTXT
72
1
11
-2.216
21
2.216
31
0.0
100
AcDbAttribute
2
CAPTG
70
0
0
ATTRIB
5
598
330
17
100
AcDbEntity
8
A-FURN-P-PNLS-JNCT-T
100
AcDbText
10
1.5
20
-1.5
30
0.0
40
0.001
1
1
100
AcDbAttribute
2
CAPQT
70
1
0
ATTRIB
5
599
330
17
100
AcDbEntity
8
A-FURN-P-PNLS-JNCT-T
100
AcDbText
10
1.5
20
-1.5
30
0.0
40
0.001
1
0
100
AcDbAttribute
2
CAPDH
70
1
0
SEQEND
5
59A
330
589
100
AcDbEntity
8
A-FURN
0
INSERT
5
59B
330
17
100
AcDbEntity
8
A-FURN
100
AcDbBlockReference
66
1
2
P_TS742TEPJ
10
37.5
20
-1.5
30
0.0
0
ATTRIB
5
59C
330
17
100
AcDbEntity
8
A-FURN-P-PNLS-JNCT-T
100
AcDbText
10
37.5
20
-1.5
30
0.0
40
0.001
1
TS742TEPJ
100
AcDbAttribute
2
CAPPN
70
1
0
ATTRIB
5
59D
330
17
100
AcDbEntity
8
A-FURN-P-PNLS-JNCT-T
100
AcDbText
10
37.5
20
-1.5
30
0.0
40
0.001
1
End-of-run base junction 42"H - Thin painted trim
100
AcDbAttribute
2
CAPPD
70
1
0
ATTRIB
5
59E
330
17
100
AcDbEntity
8
A-FURN-P-PNLS-JNCT-T
100
AcDbText
10
37.5
20
-1.5
30
0.0
40
0.001
1
STC
100
AcDbAttribute
2
CAPMG
70
1
0
ATTRIB
5
59F
330
17
100
AcDbEntity
8
A-FURN-P-PNLS-JNCT-T
100
AcDbText
10
37.5
20
-1.5
30
0.0
40
0.001
1
TSA
100
AcDbAttribute
2
CAPMC
70
1
0
ATTRIB
5
5A0
330
17
100
AcDbEntity
8
A-FURN-P-PNLS-JNCT-T
100
AcDbText
10
37.5
20
-1.5
30
0.0
40
0.001
1

100
AcDbAttribute
2
CAPGC
70
1
0
ATTRIB
5
5A1
330
17
100
AcDbEntity
8
A-FURN-P-PNLS-JNCT-T
100
AcDbText
10
37.5
20
-1.5
30
0.0
40
0.001
1
Workstation 1
100
AcDbAttribute
2
CAPALIAS1
70
1
0
ATTRIB
5
5A2
330
17
100
AcDbEntity
8
A-FURN-P-PNLS-JNCT-T
100
AcDbText
10
37.5
20
-1.5
30
0.0
40
0.001
1

100
AcDbAttribute
2
CAPALIAS2
70
1
0
ATTRIB
5
5A3
330
17
100
AcDbEntity
8
A-FURN-P-PNLS-JNCT-T
100
AcDbText
10
37.5
20
-1.5
30
0.0
40
0.001
1

100
AcDbAttribute
2
CAPALIAS3
70
1
0
ATTRIB
5
5A4
330
17
100
AcDbEntity
8
A-FURN-P-PNLS-JNCT-T
100
AcDbText
10
37.5
20
-1.5
30
0.0
40
0.001
1

100
AcDbAttribute
2
CAPBLDG
70
1
0
ATTRIB
5
5A5
330
17
100
AcDbEntity
8
A-FURN-P-PNLS-JNCT-T
100
AcDbText
10
37.5
20
-1.5
30
0.0
40
0.001
1

100
AcDbAttribute
2
CAPFLOOR
70
1
0
ATTRIB
5
5A6
330
17
100
AcDbEntity
8
A-FURN-P-PNLS-JNCT-T
100
AcDbText
10
37.5
20
-1.5
30
0.0
40
0.001
1

100
AcDbAttribute
2
CAPDEPT
70
1
0
ATTRIB
5
5A7
330
17
100
AcDbEntity
8
A-FURN-P-PNLS-JNCT-T
100
AcDbText
10
37.5
20
-1.5
30
0.0
40
0.001
1

100
AcDbAttribute
2
CAPPERSON
70
1
0
ATTRIB
5
5A8
330
17
100
AcDbEntity
8
A-FURN-P-PNLS-JNCT-T
100
AcDbText
10
37.5
20
-1.5
30
0.0
40
0.001
1
100.0000
100
AcDbAttribute
2
CAPPL
70
1
0
ATTRIB
5
5A9
330
17
100
AcDbEntity
8
A-FURN-P-PNLS-JNCT-T
100
AcDbText
10
36.5
20
-3.333
30
0.0
40
2.5
1
E42
7
MONOTXT
72
1
11
36.5
21
0.0
31
0.0
100
AcDbAttribute
2
CAPTG
70
0
0
ATTRIB
5
5AA
330
17
100
AcDbEntity
8
A-FURN-P-PNLS-JNCT-T
100
AcDbText
10
37.5
20
-1.5
30
0.0
40
0.001
1
1
100
AcDbAttribute
2
CAPQT
70
1
0
ATTRIB
5
5AB
330
17
100
AcDbEntity
8
A-FURN-P-PNLS-JNCT-T
100
AcDbText
10
37.5
20
-1.5
30
0.0
40
0.001
1
0
100
AcDbAttribute
2
CAPDH
70
1
0
SEQEND
5
5AC
330
59B
100
AcDbEntity
8
A-FURN
0
INSERT
5
5AD
330
17
100
AcDbEntity
8
A-FURN
100
AcDbBlockReference
66
1
2
P_TS754TEPJ
10
-1.5
20
-37.5
30
0.0
50
270.0
0
ATTRIB
5
5AE
330
17
100
AcDbEntity
8
A-FURN-P-PNLS-JNCT-T
100
AcDbText
10
-1.5
20
-37.5
30
0.0
40
0.001
1
TS754TEPJ
100
AcDbAttribute
2
CAPPN
70
1
0
ATTRIB
5
5AF
330
17
100
AcDbEntity
8
A-FURN-P-PNLS-JNCT-T
100
AcDbText
10
-1.5
20
-37.5
30
0.0
40
0.001
1
End-of-run base junction 54"H - Thin painted trim
100
AcDbAttribute
2
CAPPD
70
1
0
ATTRIB
5
5B0
330
17
100
AcDbEntity
8
A-FURN-P-PNLS-JNCT-T
100
AcDbText
10
-1.5
20
-37.5
30
0.0
40
0.001
1
STC
100
AcDbAttribute
2
CAPMG
70
1
0
ATTRIB
5
5B1
330
17
100
AcDbEntity
8
A-FURN-P-PNLS-JNCT-T
100
AcDbText
10
-1.5
20
-37.5
30
0.0
40
0.001
1
TSA
100
AcDbAttribute
2
CAPMC
70
1
0
ATTRIB
5
5B2
330
17
100
AcDbEntity
8
A-FURN-P-PNLS-JNCT-T
100
AcDbText
10
-1.5
20
-37.5
30
0.0
40
0.001
1

100
AcDbAttribute
2
CAPGC
70
1
0
ATTRIB
5
5B3
330
17
100
AcDbEntity
8
A-FURN-P-PNLS-JNCT-T
100
AcDbText
10
-1.5
20
-37.5
30
0.0
40
0.001
1
Workstation 1
100
AcDbAttribute
2
CAPALIAS1
70
1
0
ATTRIB
5
5B4
330
17
100
AcDbEntity
8
A-FURN-P-PNLS-JNCT-T
100
AcDbText
10
-1.5
20
-37.5
30
0.0
40
0.001
1

100
AcDbAttribute
2
CAPALIAS2
70
1
0
ATTRIB
5
5B5
330
17
100
AcDbEntity
8
A-FURN-P-PNLS-JNCT-T
100
AcDbText
10
-1.5
20
-37.5
30
0.0
40
0.001
1

100
AcDbAttribute
2
CAPALIAS3
70
1
0
ATTRIB
5
5B6
330
17
100
AcDbEntity
8
A-FURN-P-PNLS-JNCT-T
100
AcDbText
10
-1.5
20
-37.5
30
0.0
40
0.001
1

100
AcDbAttribute
2
CAPBLDG
70
1
0
ATTRIB
5
5B7
330
17
100
AcDbEntity
8
A-FURN-P-PNLS-JNCT-T
100
AcDbText
10
-1.5
20
-37.5
30
0.0
40
0.001
1

100
AcDbAttribute
2
CAPFLOOR
70
1
0
ATTRIB
5
5B8
330
17
100
AcDbEntity
8
A-FURN-P-PNLS-JNCT-T
100
AcDbText
10
-1.5
20
-37.5
30
0.0
40
0.001
1

100
AcDbAttribute
2
CAPDEPT
70
1
0
ATTRIB
5
5B9
330
17
100
AcDbEntity
8
A-FURN-P-PNLS-JNCT-T
100
AcDbText
10
-1.5
20
-37.5
30
0.0
40
0.001
1

100
AcDbAttribute
2
CAPPERSON
70
1
0
ATTRIB
5
5BA
330
17
100
AcDbEntity
8
A-FURN-P-PNLS-JNCT-T
100
AcDbText
10
-1.5
20
-37.5
30
0.0
40
0.001
1
100.0000
100
AcDbAttribute
2
CAPPL
70
1
0
ATTRIB
5
5BB
330
17
100
AcDbEntity
8
A-FURN-P-PNLS-JNCT-T
100
AcDbText
10
-3.333
20
-36.5
30
0.0
40
2.5
1
E54
50
270.0
7
MONOTXT
72
1
11
0.0
21
-36.5
31
0.0
100
AcDbAttribute
2
CAPTG
70
0
0
ATTRIB
5
5BC
330
17
100
AcDbEntity
8
A-FURN-P-PNLS-JNCT-T
100
AcDbText
10
-1.5
20
-37.5
30
0.0
40
0.001
1
1
100
AcDbAttribute
2
CAPQT
70
1
0
ATTRIB
5
5BD
330
17
100
AcDbEntity
8
A-FURN-P-PNLS-JNCT-T
100
AcDbText
10
-1.5
20
-37.5
30
0.0
40
0.001
1
0
100
AcDbAttribute
2
CAPDH
70
1
0
SEQEND
5
5BE
330
5AD
100
AcDbEntity
8
A-FURN
0
TEXT
5
5BF
330
17
100
AcDbEntity
8
CAPTAG
100
AcDbText
10
-1.5
20
-73.5
30
0.0
40
3.0
1
PANEL CONFIGS
100
AcDbText
0
TEXT
5
5C0
330
17
100
AcDbEntity
8
CAPTAG
100
AcDbText
10
-1.5
20
-78.5
30
0.0
40
2.4
1
A 36: 36" x 42" panel config A: TS736THF, TS73636TK, TS73636TK, TS71236TFGR, TS7TFGRC
100
AcDbText
0
TEXT
5
5C1
330
17
100
AcDbEntity
8
CAPTAG
100
AcDbText
10
-1.5
20
-83.5
30
0.0
40
2.4
1
B 36: 36" x 54" panel config B: TS736THF, TS73636TK, TS71236SPW, TS73636TK
100
AcDbText
0
TEXT
5
5C2
330
17
100
AcDbEntity
8
CAPTAG
100
AcDbText
10
-1.5
20
-91.5
30
0.0
40
3.0
1
v2 - Steelcase Answer thin trim - Answer Panel Planner test - inches - parts from the specification (CAPPN = style number)
100
AcDbText
0
ENDSEC
0
SECTION
2
OBJECTS
0
DICTIONARY
5
A
330
0
100
AcDbDictionary
281
1
3
ACAD_COLOR
350
B
3
ACAD_GROUP
350
C
3
ACAD_LAYOUT
350
D
3
ACAD_MATERIAL
350
E
3
ACAD_MLEADERSTYLE
350
F
3
ACAD_MLINESTYLE
350
10
3
ACAD_PLOTSETTINGS
350
11
3
ACAD_PLOTSTYLENAME
350
12
3
ACAD_SCALELIST
350
14
3
ACAD_TABLESTYLE
350
15
3
ACAD_VISUALSTYLE
350
16
0
DICTIONARY
5
B
330
A
100
AcDbDictionary
281
1
0
DICTIONARY
5
C
330
A
100
AcDbDictionary
281
1
0
DICTIONARY
5
D
330
A
100
AcDbDictionary
281
1
3
Model
350
1A
3
Layout1
350
1E
0
DICTIONARY
5
E
330
A
100
AcDbDictionary
281
1
3
ByBlock
350
1F
3
ByLayer
350
20
3
Global
350
21
0
DICTIONARY
5
F
330
A
100
AcDbDictionary
281
1
3
Standard
350
2C
0
DICTIONARY
5
10
330
A
100
AcDbDictionary
281
1
3
Standard
350
22
0
DICTIONARY
5
11
330
A
100
AcDbDictionary
281
1
0
ACDBDICTIONARYWDFLT
5
12
330
A
100
AcDbDictionary
281
1
3
Normal
350
13
100
AcDbDictionaryWithDefault
340
13
0
ACDBPLACEHOLDER
5
13
330
12
0
DICTIONARY
5
14
330
A
100
AcDbDictionary
281
1
0
DICTIONARY
5
15
330
A
100
AcDbDictionary
281
1
0
DICTIONARY
5
16
330
A
100
AcDbDictionary
281
1
0
LAYOUT
5
1A
330
D
100
AcDbPlotSettings
1

4
A3
6

40
7.5
41
20.0
42
7.5
43
20.0
44
420.0
45
297.0
46
0.0
47
0.0
48
0.0
49
0.0
140
0.0
141
0.0
142
1.0
143
1.0
70
1024
72
1
73
0
74
5
7

75
16
76
0
77
2
78
300
147
1.0
148
0.0
149
0.0
100
AcDbLayout
1
Model
70
1
71
0
10
0.0
20
0.0
11
420.0
21
297.0
12
0.0
22
0.0
32
0.0
14
1e+20
24
1e+20
34
1e+20
15
-1e+20
25
-1e+20
35
-1e+20
146
0.0
13
0.0
23
0.0
33
0.0
16
1.0
26
0.0
36
0.0
17
0.0
27
1.0
37
0.0
76
1
330
17
0
LAYOUT
5
1E
330
D
100
AcDbPlotSettings
1

4
A3
6

40
7.5
41
20.0
42
7.5
43
20.0
44
420.0
45
297.0
46
0.0
47
0.0
48
0.0
49
0.0
140
0.0
141
0.0
142
1.0
143
1.0
70
0
72
1
73
0
74
5
7

75
16
76
0
77
2
78
300
147
1.0
148
0.0
149
0.0
100
AcDbLayout
1
Layout1
70
1
71
1
10
0.0
20
0.0
11
420.0
21
297.0
12
0.0
22
0.0
32
0.0
14
1e+20
24
1e+20
34
1e+20
15
-1e+20
25
-1e+20
35
-1e+20
146
0.0
13
0.0
23
0.0
33
0.0
16
1.0
26
0.0
36
0.0
17
0.0
27
1.0
37
0.0
76
1
330
1B
0
MATERIAL
5
1F
102
{ACAD_REACTORS
330
E
102
}
330
E
100
AcDbMaterial
1
ByBlock
2

70
0
40
1.0
71
1
41
1.0
91
-1023410177
42
1.0
72
1
3

73
1
74
1
75
1
44
0.5
73
0
45
1.0
46
1.0
77
1
4

78
1
79
1
170
1
48
1.0
171
1
6

172
1
173
1
174
1
140
1.0
141
1.0
175
1
7

176
1
177
1
178
1
143
1.0
179
1
8

270
1
271
1
272
1
145
1.0
146
1.0
273
1
9

274
1
275
1
276
1
42
1.0
72
1
3

73
1
74
1
75
1
94
63
0
MATERIAL
5
20
102
{ACAD_REACTORS
330
E
102
}
330
E
100
AcDbMaterial
1
ByLayer
2

70
0
40
1.0
71
1
41
1.0
91
-1023410177
42
1.0
72
1
3

73
1
74
1
75
1
44
0.5
73
0
45
1.0
46
1.0
77
1
4

78
1
79
1
170
1
48
1.0
171
1
6

172
1
173
1
174
1
140
1.0
141
1.0
175
1
7

176
1
177
1
178
1
143
1.0
179
1
8

270
1
271
1
272
1
145
1.0
146
1.0
273
1
9

274
1
275
1
276
1
42
1.0
72
1
3

73
1
74
1
75
1
94
63
0
MATERIAL
5
21
102
{ACAD_REACTORS
330
E
102
}
330
E
100
AcDbMaterial
1
Global
2

70
0
40
1.0
71
1
41
1.0
91
-1023410177
42
1.0
72
1
3

73
1
74
1
75
1
44
0.5
73
0
45
1.0
46
1.0
77
1
4

78
1
79
1
170
1
48
1.0
171
1
6

172
1
173
1
174
1
140
1.0
141
1.0
175
1
7

176
1
177
1
178
1
143
1.0
179
1
8

270
1
271
1
272
1
145
1.0
146
1.0
273
1
9

274
1
275
1
276
1
42
1.0
72
1
3

73
1
74
1
75
1
94
63
0
MLINESTYLE
5
22
102
{ACAD_REACTORS
330
10
102
}
330
10
100
AcDbMlineStyle
2
Standard
70
0
3

62
256
51
90.0
52
90.0
71
2
49
0.5
62
256
6
BYLAYER
49
-0.5
62
256
6
BYLAYER
0
MLEADERSTYLE
5
2C
102
{ACAD_REACTORS
330
F
102
}
330
F
100
AcDbMLeaderStyle
179
2
170
2
171
1
172
0
90
2
40
0.0
41
0.0
173
1
91
-1056964608
92
-2
290
1
42
2.0
291
1
43
8.0
3
Standard
44
4.0
300

342
29
174
1
175
1
176
0
178
1
93
-1056964608
45
4.0
292
0
297
0
46
4.0
94
-1056964608
47
1.0
49
1.0
140
1.0
294
1
141
0.0
177
0
142
1.0
295
0
296
0
143
3.75
271
0
272
9
273
9
0
ENDSEC
0
EOF
